<?xml version="1.0" encoding="utf-8"?>
<!-- Generator: Adobe Illustrator 25.4.0, SVG Export Plug-In . SVG Version: 6.00 Build 0)  -->
<svg version="1.1" xmlns="http://www.w3.org/2000/svg" xmlns:xlink="http://www.w3.org/1999/xlink" x="0px" y="0px"
	 viewBox="0 0 3710 3710" style="enable-background:new 0 0 3710 3710;" xml:space="preserve">
<style type="text/css">
	.st0{opacity:0.6;}
	.st1{fill:#FFFFFF;}
	.st2{fill:url(#SVGID_1_);}
	.st3{fill:url(#SVGID_00000108273310773221993820000016249174737231872903_);}
	.st4{fill:#7D97F4;}
	.st5{fill:url(#SVGID_00000147180892002752974980000011298520441465439630_);}
	.st6{fill:#91B3FA;}
	.st7{filter:url(#Adobe_OpacityMaskFilter);}
	.st8{filter:url(#Adobe_OpacityMaskFilter_00000067922353514266688080000004987283777218195074_);}
	
		.st9{mask:url(#SVGID_00000083777254505513648140000007638959437569133700_);fill:url(#SVGID_00000183242798658259360240000001873147677027293586_);}
	.st10{opacity:0.53;fill:url(#SVGID_00000100371500851853285930000002011031426924692389_);}
	.st11{fill:url(#SVGID_00000118391054828609417130000007278141076683956151_);}
	.st12{fill:url(#SVGID_00000116205097757919036270000008327800994372488883_);}
	.st13{fill:url(#SVGID_00000014636274439437704190000012645158040149525402_);}
	.st14{fill:url(#SVGID_00000019636347059953026930000003630782758504499348_);}
	.st15{fill:url(#SVGID_00000114067827882250552970000012971452058691832479_);}
	.st16{opacity:0.78;fill:#FFFFFF;}
	.st17{fill:url(#SVGID_00000127763173812311526580000000554530426272438183_);}
	.st18{fill:url(#SVGID_00000174569201685695128130000013257889021462555548_);}
	.st19{fill:url(#SVGID_00000165232907999778877490000012108911751749122717_);}
</style>
<g id="Background">
	<g class="st0">
		<g>
			<rect class="st1" width="3710" height="3710"/>
		</g>
	</g>
</g>
<g id="Illustration">
	<g class="st0">
		<linearGradient id="SVGID_1_" gradientUnits="userSpaceOnUse" x1="3397.7593" y1="3498.6121" x2="1540.7953" y2="1521.8446">
			<stop  offset="0" style="stop-color:#DAE3FE"/>
			<stop  offset="1" style="stop-color:#E9EFFD"/>
		</linearGradient>
		<path class="st2" d="M2840.21,2705.54c-68.55,70.66-129.89,112.2-176.85,143.55c-458.01,305.82-981.57,217.67-1143.44,187.55
			c-261.16-48.61-481.61-82.9-671.02-254.02c-430.4-388.85-409.46-1200.01-80.59-1702.49c38.99-59.58,367.37-546.34,892.06-614.93
			c12.83-1.68,22.41-2.63,30.8-3.52c81.17-8.59,584.15-53.95,994.29,289.66c58.71,49.19,153.19,137.91,240.8,273.22
			C3246.6,1519.32,3247.62,2285.6,2840.21,2705.54z"/>
		<g>
			
				<linearGradient id="SVGID_00000016034693249145884470000005261769518986738363_" gradientUnits="userSpaceOnUse" x1="2421.4595" y1="2151.8665" x2="3017.4019" y2="2151.8665">
				<stop  offset="0" style="stop-color:#4F52FF"/>
				<stop  offset="1" style="stop-color:#4042E2"/>
			</linearGradient>
			<path style="fill:url(#SVGID_00000016034693249145884470000005261769518986738363_);" d="M2591.85,1409.78l233.62-54.39
				c0,0,156.2-14.04,177.32,124.79c21.12,138.83,15,961.35,8.39,1130.98c-2.18,55.91-1.91,107.57,2.85,152.62
				c9.91,93.83-63.3,175.79-157.64,177.43l-434.92,7.53L2591.85,1409.78z"/>
			<path class="st4" d="M2116.91,1421.07c0,0,425.38,23.37,708.55-65.68c0,0-188.25-12.9-188.25,421.72
				c0,332.29,49.28,966.54,6.25,1086.94c-43.03,120.4-203.92,282.24-434.56,143.15C1978.27,2868.11,2116.91,1421.07,2116.91,1421.07
				z"/>
			
				<linearGradient id="SVGID_00000124145264975705365970000003046405450037868474_" gradientUnits="userSpaceOnUse" x1="2503.8081" y1="1242.8999" x2="1654.1923" y2="-523.1577">
				<stop  offset="0" style="stop-color:#4042E2"/>
				<stop  offset="1" style="stop-color:#4F52FF"/>
			</linearGradient>
			<path style="fill:url(#SVGID_00000124145264975705365970000003046405450037868474_);" d="M2003.82,769.47
				c0,0,469.34,51.16,529.8-28.39c0,0-48.1-143.17-190.93-133.65C2199.87,616.96,2003.82,769.47,2003.82,769.47z"/>
			<path class="st6" d="M477.36,930.55c40.93,459.95,126.89,1432.82,164.29,1906.73c8.34,105.65,93.02,189.1,198.78,195.89
				c376.74,24.18,1224.59,71.1,1549.96,27.45h0c-74.53-36.74-121.47-112.9-120.79-195.99l17.28-2126.56
				c0.61-75.14,75.45-129.14,145.82-102.77c44.33,16.61,77.9,52,100.92,105.79c-30.72-89.52-79.03-155.01-190.93-133.65
				c0,0-1094.37,10.94-1625.43,43.87C572.97,660.25,464.55,786.54,477.36,930.55z"/>
			<defs>
				<filter id="Adobe_OpacityMaskFilter" filterUnits="userSpaceOnUse" x="519.16" y="655.56" width="1768.54" height="2390.98">
					<feFlood  style="flood-color:white;flood-opacity:1" result="back"/>
					<feBlend  in="SourceGraphic" in2="back" mode="normal"/>
				</filter>
			</defs>
			
				<mask maskUnits="userSpaceOnUse" x="519.16" y="655.56" width="1768.54" height="2390.98" id="SVGID_00000039853478280064215050000010992358658791544501_">
				<g class="st7">
					<defs>
						
							<filter id="Adobe_OpacityMaskFilter_00000039097398226593232390000011717524882567562144_" filterUnits="userSpaceOnUse" x="519.16" y="655.56" width="1768.54" height="2390.98">
							<feFlood  style="flood-color:white;flood-opacity:1" result="back"/>
							<feBlend  in="SourceGraphic" in2="back" mode="normal"/>
						</filter>
					</defs>
					
						<mask maskUnits="userSpaceOnUse" x="519.16" y="655.56" width="1768.54" height="2390.98" id="SVGID_00000039853478280064215050000010992358658791544501_">
						<g style="filter:url(#Adobe_OpacityMaskFilter_00000039097398226593232390000011717524882567562144_);">
						</g>
					</mask>
					
						<linearGradient id="SVGID_00000035507233300311531420000006709303561171989689_" gradientUnits="userSpaceOnUse" x1="2068.2991" y1="1106.5225" x2="-196.0579" y2="4004.2043">
						<stop  offset="0" style="stop-color:#FFFFFF"/>
						<stop  offset="1" style="stop-color:#000000"/>
					</linearGradient>
					
						<path style="mask:url(#SVGID_00000039853478280064215050000010992358658791544501_);fill:url(#SVGID_00000035507233300311531420000006709303561171989689_);" d="
						M748.08,712.17l1470.51-56.61c-60.65,449.01-35.05,1363.4-11.91,2264.54c1.37,53.42,32.7,101.5,81.02,124.34l0,0
						c0,0-980.82,11.3-1402.26-18.59c-99.23-7.04-180.18-82.12-194.92-180.5c-57.86-386.09-196.28-1383.49-167.47-1911.53
						C529.66,812.89,627.07,716.83,748.08,712.17z"/>
				</g>
			</mask>
			
				<linearGradient id="SVGID_00000061434072732270269990000013910108115454909372_" gradientUnits="userSpaceOnUse" x1="2068.2991" y1="1106.5225" x2="-196.0579" y2="4004.2043">
				<stop  offset="0" style="stop-color:#FFFFFF"/>
				<stop  offset="1" style="stop-color:#FFFFFF"/>
			</linearGradient>
			<path style="opacity:0.53;fill:url(#SVGID_00000061434072732270269990000013910108115454909372_);" d="M748.08,712.17
				l1470.51-56.61c-60.65,449.01-35.05,1363.4-11.91,2264.54c1.37,53.42,32.7,101.5,81.02,124.34l0,0c0,0-980.82,11.3-1402.26-18.59
				c-99.23-7.04-180.18-82.12-194.92-180.5c-57.86-386.09-196.28-1383.49-167.47-1911.53C529.66,812.89,627.07,716.83,748.08,712.17
				z"/>
			<g>
				
					<linearGradient id="SVGID_00000055689637670960987430000014338581612882977692_" gradientUnits="userSpaceOnUse" x1="728.2858" y1="1481.8649" x2="963.3754" y2="1481.8649">
					<stop  offset="0" style="stop-color:#DAE3FE"/>
					<stop  offset="1" style="stop-color:#E9EFFD"/>
				</linearGradient>
				<path style="fill:url(#SVGID_00000055689637670960987430000014338581612882977692_);" d="M728.62,1408.64l17.16,164.71
					c3.15,30.19,28.01,53.48,58.34,54.64l95.9,3.68c34.59,1.33,63.35-26.35,63.35-60.97v-177.69c0-35.67-30.46-63.73-66.01-60.81
					l-113.06,9.29C750.2,1344.31,725.07,1374.61,728.62,1408.64z"/>
				
					<linearGradient id="SVGID_00000023973693812642253150000000751976248445886604_" gradientUnits="userSpaceOnUse" x1="1032.3932" y1="1379.6897" x2="2028.5472" y2="1379.6897">
					<stop  offset="0" style="stop-color:#DAE3FE"/>
					<stop  offset="1" style="stop-color:#E9EFFD"/>
				</linearGradient>
				<path style="fill:url(#SVGID_00000023973693812642253150000000751976248445886604_);" d="M1065.85,1357.87
					c159.61-4.96,772.33-24.88,927.05-29.92c19.52-0.63,35.65,15.01,35.65,34.54l0,0c0,18.59-14.7,33.84-33.28,34.53l-926.45,34.4
					c-17.85,0.66-33.26-12.38-35.55-30.09l-0.58-4.48C1030.06,1376.6,1045.44,1358.5,1065.85,1357.87z"/>
				
					<linearGradient id="SVGID_00000168103298105332597610000017843747549878294435_" gradientUnits="userSpaceOnUse" x1="1050.655" y1="1539.606" x2="1719.2996" y2="1539.606">
					<stop  offset="0" style="stop-color:#DAE3FE"/>
					<stop  offset="1" style="stop-color:#E9EFFD"/>
				</linearGradient>
				<path style="fill:url(#SVGID_00000168103298105332597610000017843747549878294435_);" d="M1055.83,1575.01L1055.83,1575.01
					c2.71,4.54,7.65,7.28,12.94,7.17l636.15-13.82c7.99-0.17,14.38-6.7,14.38-14.7v-41.94c0-8.33-6.92-15-15.25-14.69l-618.41,23.12
					C1058.1,1521.19,1041.71,1551.34,1055.83,1575.01z"/>
			</g>
			<g>
				
					<linearGradient id="SVGID_00000148640961924792091480000002086730538052705432_" gradientUnits="userSpaceOnUse" x1="728.2858" y1="1939.009" x2="963.3754" y2="1939.009">
					<stop  offset="0" style="stop-color:#DAE3FE"/>
					<stop  offset="1" style="stop-color:#E9EFFD"/>
				</linearGradient>
				<path style="fill:url(#SVGID_00000148640961924792091480000002086730538052705432_);" d="M728.62,1865.78l17.16,164.71
					c3.15,30.19,28.01,53.48,58.34,54.64l95.9,3.68c34.59,1.33,63.35-26.35,63.35-60.97v-177.69c0-35.67-30.46-63.73-66.01-60.81
					l-113.06,9.29C750.2,1801.46,725.07,1831.75,728.62,1865.78z"/>
				
					<linearGradient id="SVGID_00000075127747130631771630000014271712120311356858_" gradientUnits="userSpaceOnUse" x1="1032.3932" y1="1836.8341" x2="2028.5472" y2="1836.8341">
					<stop  offset="0" style="stop-color:#DAE3FE"/>
					<stop  offset="1" style="stop-color:#E9EFFD"/>
				</linearGradient>
				<path style="fill:url(#SVGID_00000075127747130631771630000014271712120311356858_);" d="M1065.85,1815.01
					c159.61-4.96,772.33-24.88,927.05-29.92c19.52-0.64,35.65,15.01,35.65,34.54v0c0,18.59-14.7,33.84-33.28,34.53l-926.45,34.39
					c-17.85,0.66-33.26-12.38-35.55-30.09l-0.58-4.48C1030.06,1833.74,1045.44,1815.65,1065.85,1815.01z"/>
				<path class="st16" d="M1055.83,2032.16L1055.83,2032.16c2.71,4.54,7.65,7.28,12.94,7.17l636.15-13.82
					c7.99-0.17,14.38-6.7,14.38-14.69v-41.94c0-8.33-6.92-15-15.25-14.69l-618.41,23.12
					C1058.1,1978.33,1041.71,2008.48,1055.83,2032.16z"/>
			</g>
			<g>
				
					<linearGradient id="SVGID_00000034784285693413439890000012930599011926349759_" gradientUnits="userSpaceOnUse" x1="728.2858" y1="2396.1533" x2="963.3754" y2="2396.1533">
					<stop  offset="0" style="stop-color:#DAE3FE"/>
					<stop  offset="1" style="stop-color:#E9EFFD"/>
				</linearGradient>
				<path style="fill:url(#SVGID_00000034784285693413439890000012930599011926349759_);" d="M728.62,2322.93l17.16,164.71
					c3.15,30.19,28.01,53.48,58.34,54.64l95.9,3.68c34.59,1.33,63.35-26.35,63.35-60.97v-177.69c0-35.67-30.46-63.73-66.01-60.81
					l-113.06,9.29C750.2,2258.6,725.07,2288.89,728.62,2322.93z"/>
				
					<linearGradient id="SVGID_00000099639305291493101760000007910998375988676994_" gradientUnits="userSpaceOnUse" x1="1032.3932" y1="2293.9783" x2="2028.5472" y2="2293.9783">
					<stop  offset="0" style="stop-color:#DAE3FE"/>
					<stop  offset="1" style="stop-color:#E9EFFD"/>
				</linearGradient>
				<path style="fill:url(#SVGID_00000099639305291493101760000007910998375988676994_);" d="M1065.85,2272.16
					c159.61-4.96,772.33-24.88,927.05-29.92c19.52-0.63,35.65,15.01,35.65,34.54l0,0c0,18.59-14.7,33.84-33.28,34.53l-926.45,34.39
					c-17.85,0.66-33.26-12.38-35.55-30.09l-0.58-4.48C1030.06,2290.89,1045.44,2272.79,1065.85,2272.16z"/>
				
					<linearGradient id="SVGID_00000057131179987194734490000004206387150450282892_" gradientUnits="userSpaceOnUse" x1="1050.655" y1="2453.8945" x2="1719.2996" y2="2453.8945">
					<stop  offset="0" style="stop-color:#DAE3FE"/>
					<stop  offset="1" style="stop-color:#E9EFFD"/>
				</linearGradient>
				<path style="fill:url(#SVGID_00000057131179987194734490000004206387150450282892_);" d="M1055.83,2489.3L1055.83,2489.3
					c2.71,4.54,7.65,7.28,12.94,7.17l636.15-13.82c7.99-0.17,14.38-6.7,14.38-14.69v-41.94c0-8.33-6.92-15-15.25-14.69
					l-618.41,23.12C1058.1,2435.48,1041.71,2465.63,1055.83,2489.3z"/>
			</g>
			<path class="st1" d="M2581.97,2371.15c-3.89,0-7.08-3.12-7.16-7.02c0-0.22-0.44-22.77-2.61-100.07c-0.11-3.95,3-7.25,6.95-7.36
				c3.86-0.2,7.25,3,7.36,6.95c2.17,77.39,2.61,99.98,2.62,100.2c0.07,3.95-3.07,7.22-7.02,7.29
				C2582.06,2371.15,2582.01,2371.15,2581.97,2371.15z"/>
			<path class="st1" d="M2576.76,2182.48c-3.86,0-7.03-3.06-7.15-6.94c-1.54-50.31-3.94-105.93-6.48-164.82
				c-3.43-79.56-6.98-161.84-8.85-241.09c-4.94-209.17,29.56-289.46,59.38-319.99c16.2-16.59,29.78-17.07,31.28-17.07
				c3.95,0,7.16,3.21,7.16,7.16c0,3.91-3.13,7.08-7.02,7.16c-1.63,0.12-83.88,9.15-76.48,322.41c1.87,79.12,5.41,161.32,8.84,240.81
				c2.54,58.93,4.94,114.6,6.48,165c0.12,3.95-2.98,7.25-6.94,7.37C2576.91,2182.48,2576.84,2182.48,2576.76,2182.48z"/>
			<path class="st16" d="M1977.61,1152.06l-1171.46,34.76c-42.08,1.25-77.42-31.41-79.48-73.46l-4.3-87.63
				c-2.12-43.31,31.8-79.9,75.15-81.04l1177.28-31.13c44.02-1.16,80.11,34.63,79.31,78.65l-1.52,84
				C2051.84,1117.45,2018.84,1150.83,1977.61,1152.06z"/>
		</g>
	</g>
</g>
</svg>
