<?xml version="1.0" encoding="utf-8"?>
<!-- Generator: Adobe Illustrator 25.4.0, SVG Export Plug-In . SVG Version: 6.00 Build 0)  -->
<svg version="1.1" xmlns="http://www.w3.org/2000/svg" xmlns:xlink="http://www.w3.org/1999/xlink" x="0px" y="0px"
	 viewBox="0 0 4680 3120" style="enable-background:new 0 0 4680 3120;" xml:space="preserve">
<style type="text/css">
	.st0{opacity:0.3;fill:none;stroke:#15803D;stroke-width:75;stroke-miterlimit:10;stroke-dasharray:265;}
	.st1{opacity:0.3;}
	.st2{fill:#15803D;stroke:#15803D;stroke-width:15;stroke-miterlimit:10;}
</style>
<g id="Ebene_1">
	<path class="st0" d="M4240.9,257c61.2,232,53.1,472.8-23.5,702.6c-25.9,77.5-61.3,156.3-135.8,216.6
		c-60.4,48.9-142.4,82.2-226.3,109.3c-614,198.4-1330.3,95.6-2004.9,131.4c-218.6,11.6-435.5,38.2-646.6,79.4
		c-153.1,29.9-307.2,68.9-427.3,141.7c-162.7,98.5-243.5,246-314.2,388c-30.2,60.7-60,122.7-63.5,187c-2.5,46.4,8.8,92.5,13,138.8
		c14.8,164.3-60.2,325.3-134.2,481.6"/>
	<g id="ExdvJM_00000088812702371670597620000007048836322441614268_" class="st1">
		<g>
			<path class="st2" d="M114.8,2873.8c14.5-9.2,29.6-18.8,44.8-28.5c32.3,49.9,65.1,100.7,98.3,152.1
				c52.5-34.4,102.9-67.5,152.5-100.1c10.6,16,20.6,31.2,30.2,45.7c-65.5,42.7-131.6,85.8-197,128.4
				C201.1,3006.2,158,2940,114.8,2873.8z"/>
		</g>
	</g>
</g>
<g id="Ebene_2">
</g>
<g id="Ebene_3">
</g>
</svg>
