<?xml version="1.0" encoding="utf-8"?>
<!-- Generator: Adobe Illustrator 25.4.0, SVG Export Plug-In . SVG Version: 6.00 Build 0)  -->
<svg version="1.1" id="Ebene_1" xmlns="http://www.w3.org/2000/svg" xmlns:xlink="http://www.w3.org/1999/xlink" x="0px" y="0px"
	 viewBox="0 0 4680 3120" style="enable-background:new 0 0 4680 3120;" xml:space="preserve">
<style type="text/css">
	.st0{opacity:0.3;fill:none;stroke:#15803D;stroke-width:75;stroke-miterlimit:10;stroke-dasharray:265;}
	.st1{opacity:0.3;}
	.st2{fill:#15803D;stroke:#15803D;stroke-width:15;stroke-miterlimit:10;}
</style>
<path class="st0" d="M359.7,158.8c-69.2,330.8-53,671.1,47.5,997.6c19.8,64.2,44.8,130.7,105.7,179.1c58.3,46.3,142.1,70,224,89.3
	c685.7,161.7,1424.7,116.4,2145.1,117.3c252.5,0.3,510.8,7.3,746,74.7c271.6,77.7,500.4,239.6,597.1,441.3s52,440-131,606.3"/>
<g id="ExdvJM_00000088812702371670597620000007048836322441614268_" class="st1">
	<g>
		<path class="st2" d="M4027.5,2636.2c15-8.4,30.6-17.1,46.4-25.9c29.4,51.7,59.4,104.2,89.6,157.4c54.3-31.4,106.5-61.6,157.9-91.3
			c9.7,16.6,18.8,32.3,27.6,47.3c-67.8,38.9-136.3,78.3-203.9,117.2C4106.3,2773.3,4066.9,2704.8,4027.5,2636.2z"/>
	</g>
</g>
</svg>
