<?xml version="1.0" encoding="utf-8"?>
<!-- Generator: Adobe Illustrator 25.3.1, SVG Export Plug-In . SVG Version: 6.00 Build 0)  -->
<svg version="1.1" id="Ebene_1" xmlns="http://www.w3.org/2000/svg" xmlns:xlink="http://www.w3.org/1999/xlink" x="0px" y="0px"
	 viewBox="0 0 565 174" style="enable-background:new 0 0 565 174;" xml:space="preserve">
<style type="text/css">
	.st0{fill:#E2EAF5;}
	.st1{fill:#15803D;}
</style>
<g>
	<path class="st0" d="M70.91,127.66c-3.68,0.01-7.38-0.15-11.05,0.04c-5.14,0.27-7.84-2.42-8.03-7.11
		c-0.35-8.51-0.17-17.04-0.19-25.57c0-1.18,0.13-2.48,1.28-3.06c1.31-0.66,2.12,0.49,2.92,1.3c10.04,10.24,20.08,20.47,30.08,30.75
		c0.63,0.65,1.4,1.71,1.26,2.43c-0.26,1.43-1.76,1.2-2.88,1.2C79.84,127.68,75.37,127.66,70.91,127.66z"/>
	<path class="st1" d="M132.91,100.44c0,6.21,0.12,12.42-0.03,18.63c-0.16,6.56-2.38,8.73-8.81,8.8c-7.77,0.08-15.54,0.09-23.31-0.01
		c-6.43-0.08-8.68-2.34-8.78-8.88c-0.12-7.18-0.01-14.36-0.04-21.54c-0.04-7.93-1.98-9.9-10.06-10.06
		c-6.99-0.14-13.98-0.07-20.97-0.26c-3.48-0.09-7.16-0.15-8.65-4.33c-1.62-4.53,0.16-7.79,3.72-10.6
		C65.7,64.52,75.42,56.83,85,48.96c4.65-3.82,8.95-3.88,13.59-0.11c9.92,8.05,19.87,16.06,29.93,23.93
		c3.25,2.54,4.39,5.74,4.39,9.62C132.91,88.41,132.91,94.43,132.91,100.44z"/>
	<g>
		<path class="st1" d="M154.44,103.11l-3.87,2.82l-2.48-3.8l7.56-5.45h3.72v26.92h-4.93V103.11z"/>
		<path class="st1" d="M165.05,119.09c0.85-0.88,2.51-2.57,4.96-5.08c2.46-2.51,4.02-4.14,4.7-4.89c0.93-1.03,1.57-1.89,1.92-2.59
			c0.35-0.7,0.53-1.48,0.53-2.33c0-0.98-0.36-1.8-1.07-2.48c-0.71-0.68-1.64-1.02-2.76-1.02c-1.08,0-1.96,0.31-2.63,0.92
			s-1.15,1.37-1.43,2.27l-4.48-1.84c0.28-1,0.78-1.96,1.52-2.86c0.74-0.9,1.71-1.65,2.91-2.24c1.2-0.59,2.59-0.88,4.17-0.88
			c1.75,0,3.3,0.35,4.63,1.05c1.33,0.7,2.35,1.65,3.06,2.86c0.71,1.2,1.07,2.52,1.07,3.95c0,1.56-0.37,3.02-1.11,4.4
			c-0.74,1.38-1.75,2.74-3.03,4.1l-6.73,6.84h11.32v4.32h-17.56V119.09z"/>
		<path class="st1" d="M189.54,122.44c-1.69-1.18-2.85-2.89-3.48-5.15l4.59-1.81c0.33,1.3,0.9,2.31,1.73,3.03
			c0.83,0.72,1.84,1.07,3.05,1.07c1.2,0,2.22-0.38,3.06-1.13c0.84-0.75,1.26-1.68,1.26-2.78c0-1.13-0.46-2.07-1.39-2.82
			c-0.93-0.75-2.11-1.13-3.53-1.13h-2.18v-4.25h1.96c1.23,0,2.26-0.31,3.08-0.94c0.83-0.63,1.24-1.53,1.24-2.71
			c0-0.95-0.36-1.75-1.07-2.39c-0.71-0.64-1.62-0.96-2.73-0.96c-1.03,0-1.89,0.3-2.57,0.88c-0.69,0.59-1.18,1.31-1.49,2.16
			l-4.32-1.77c0.55-1.53,1.55-2.86,2.99-3.99c1.44-1.13,3.26-1.69,5.47-1.69c1.68,0,3.17,0.31,4.47,0.94
			c1.3,0.63,2.31,1.5,3.03,2.61c0.71,1.12,1.07,2.38,1.07,3.78c0,1.4-0.28,2.56-0.83,3.46c-0.55,0.9-1.32,1.68-2.29,2.33v0.3
			c1.23,0.58,2.21,1.42,2.93,2.52c0.73,1.1,1.09,2.43,1.09,3.99c0,1.5-0.39,2.88-1.18,4.14s-1.89,2.24-3.29,2.97
			c-1.4,0.73-3,1.09-4.78,1.09C193.2,124.21,191.24,123.62,189.54,122.44z"/>
		<path d="M211.88,96.68h9.48c1.7,0,3.26,0.36,4.66,1.07c1.4,0.72,2.51,1.72,3.31,3.01c0.8,1.29,1.2,2.76,1.2,4.42
			c0,1.65-0.4,3.13-1.2,4.44c-0.8,1.3-1.9,2.31-3.31,3.03c-1.4,0.72-2.96,1.07-4.66,1.07h-4.4v9.89h-5.08V96.68z M221.5,108.9
			c1.25,0,2.24-0.36,2.95-1.09c0.71-0.73,1.07-1.6,1.07-2.63c0-1.03-0.36-1.9-1.07-2.61c-0.71-0.71-1.7-1.07-2.95-1.07h-4.55v7.41
			H221.5z"/>
		<path d="M234.81,96.68h9.81c1.75,0,3.32,0.36,4.68,1.09c1.37,0.73,2.43,1.74,3.18,3.03c0.75,1.29,1.13,2.75,1.13,4.38
			c0,1.73-0.55,3.27-1.64,4.61c-1.09,1.34-2.46,2.31-4.12,2.91l-0.04,0.26l7.22,10.34v0.3h-5.83l-6.96-10.11h-2.37v10.11h-5.08
			V96.68z M244.59,108.83c1.15,0,2.09-0.35,2.82-1.05c0.73-0.7,1.09-1.59,1.09-2.67c0-1.03-0.35-1.9-1.04-2.63
			c-0.69-0.73-1.62-1.09-2.8-1.09h-4.77v7.44H244.59z"/>
		<path d="M264.2,122.35c-2.14-1.24-3.83-2.94-5.06-5.09c-1.23-2.15-1.84-4.52-1.84-7.11s0.61-4.95,1.84-7.11
			c1.23-2.15,2.91-3.85,5.06-5.09s4.53-1.86,7.16-1.86c2.63,0,5.02,0.62,7.16,1.86s3.83,2.94,5.06,5.09
			c1.23,2.16,1.84,4.53,1.84,7.11s-0.62,4.95-1.84,7.11c-1.23,2.16-2.91,3.86-5.06,5.09c-2.14,1.24-4.53,1.86-7.16,1.86
			C268.73,124.21,266.34,123.59,264.2,122.35z M275.91,118.23c1.38-0.78,2.46-1.87,3.25-3.27c0.79-1.4,1.18-3.01,1.18-4.81
			c0-1.81-0.39-3.41-1.18-4.81c-0.79-1.4-1.87-2.49-3.25-3.27c-1.38-0.78-2.9-1.17-4.55-1.17c-1.65,0-3.17,0.39-4.53,1.17
			c-1.37,0.78-2.44,1.87-3.23,3.27c-0.79,1.4-1.18,3.01-1.18,4.81c0,1.8,0.39,3.41,1.18,4.81c0.79,1.4,1.87,2.49,3.23,3.27
			c1.37,0.78,2.88,1.17,4.53,1.17C273.01,119.39,274.53,119.01,275.91,118.23z"/>
		<path d="M286.55,96.68h5.49l5.57,16.24l0.98,3.42h0.3l1.05-3.42l5.79-16.24h5.49l-9.81,26.92h-5.34L286.55,96.68z"/>
		<path d="M314.82,96.68h5.08v26.92h-5.08V96.68z"/>
		<path d="M327.91,122.21c-1.8-1.33-3.07-3.21-3.8-5.64l4.77-1.88c0.38,1.43,1.02,2.57,1.92,3.42c0.9,0.85,2.03,1.28,3.38,1.28
			c1.13,0,2.09-0.28,2.9-0.84c0.8-0.56,1.2-1.35,1.2-2.35c0-1-0.38-1.82-1.15-2.46c-0.77-0.64-2.12-1.32-4.08-2.05l-1.65-0.6
			c-1.73-0.6-3.21-1.52-4.44-2.76s-1.84-2.8-1.84-4.68c0-1.4,0.36-2.68,1.09-3.83c0.73-1.15,1.75-2.06,3.08-2.73
			c1.33-0.66,2.83-1,4.51-1c2.43,0,4.35,0.57,5.75,1.71c1.4,1.14,2.37,2.47,2.9,4l-4.48,1.88c-0.28-0.83-0.76-1.52-1.45-2.09
			c-0.69-0.56-1.57-0.84-2.65-0.84c-1.1,0-2.01,0.26-2.73,0.77c-0.71,0.51-1.07,1.18-1.07,2.01c0,0.8,0.34,1.48,1.02,2.05
			c0.68,0.56,1.79,1.11,3.35,1.64l1.69,0.56c2.33,0.8,4.12,1.86,5.36,3.18c1.24,1.31,1.86,3.04,1.86,5.17
			c0,1.76-0.45,3.24-1.35,4.45c-0.9,1.22-2.06,2.13-3.48,2.73s-2.88,0.9-4.38,0.9C331.79,124.21,329.71,123.54,327.91,122.21z"/>
		<path d="M348.18,96.68h5.08v26.92h-5.08V96.68z"/>
		<path d="M364.55,122.35c-2.14-1.24-3.83-2.94-5.06-5.09c-1.23-2.15-1.84-4.52-1.84-7.11s0.61-4.95,1.84-7.11
			c1.23-2.15,2.91-3.85,5.06-5.09c2.14-1.24,4.53-1.86,7.16-1.86c2.63,0,5.02,0.62,7.16,1.86c2.14,1.24,3.83,2.94,5.06,5.09
			c1.23,2.16,1.84,4.53,1.84,7.11s-0.62,4.95-1.84,7.11c-1.23,2.16-2.91,3.86-5.06,5.09c-2.14,1.24-4.53,1.86-7.16,1.86
			C369.08,124.21,366.69,123.59,364.55,122.35z M376.26,118.23c1.38-0.78,2.46-1.87,3.25-3.27c0.79-1.4,1.18-3.01,1.18-4.81
			c0-1.81-0.39-3.41-1.18-4.81c-0.79-1.4-1.87-2.49-3.25-3.27c-1.38-0.78-2.9-1.17-4.55-1.17c-1.65,0-3.17,0.39-4.53,1.17
			c-1.37,0.78-2.44,1.87-3.23,3.27c-0.79,1.4-1.18,3.01-1.18,4.81c0,1.8,0.39,3.41,1.18,4.81c0.79,1.4,1.87,2.49,3.23,3.27
			c1.37,0.78,2.88,1.17,4.53,1.17C373.37,119.39,374.88,119.01,376.26,118.23z"/>
		<path d="M390.59,96.68h5.9l10.83,18.05h0.3l-0.3-5.19V96.68h5.04v26.92h-5.34l-11.43-19.06h-0.3l0.3,5.19v13.87h-5V96.68z"/>
		<path d="M420.37,122.21c-1.8-1.33-3.07-3.21-3.8-5.64l4.77-1.88c0.38,1.43,1.02,2.57,1.92,3.42c0.9,0.85,2.03,1.28,3.38,1.28
			c1.13,0,2.09-0.28,2.9-0.84c0.8-0.56,1.2-1.35,1.2-2.35c0-1-0.38-1.82-1.15-2.46c-0.77-0.64-2.12-1.32-4.08-2.05l-1.65-0.6
			c-1.73-0.6-3.21-1.52-4.44-2.76s-1.84-2.8-1.84-4.68c0-1.4,0.36-2.68,1.09-3.83c0.73-1.15,1.75-2.06,3.08-2.73
			c1.33-0.66,2.83-1,4.51-1c2.43,0,4.35,0.57,5.75,1.71c1.4,1.14,2.37,2.47,2.9,4l-4.48,1.88c-0.28-0.83-0.76-1.52-1.45-2.09
			c-0.69-0.56-1.57-0.84-2.65-0.84c-1.1,0-2.01,0.26-2.73,0.77c-0.71,0.51-1.07,1.18-1.07,2.01c0,0.8,0.34,1.48,1.02,2.05
			c0.68,0.56,1.79,1.11,3.35,1.64l1.69,0.56c2.33,0.8,4.12,1.86,5.36,3.18c1.24,1.31,1.86,3.04,1.86,5.17
			c0,1.76-0.45,3.24-1.35,4.45c-0.9,1.22-2.06,2.13-3.48,2.73s-2.88,0.9-4.38,0.9C424.25,124.21,422.17,123.54,420.37,122.21z"/>
		<path d="M440.63,96.68h17.07v4.81h-12v6.54h10.79v4.81h-10.79v10.75h-5.08V96.68z"/>
		<path d="M462.18,96.68h9.82c1.75,0,3.31,0.36,4.68,1.09c1.37,0.73,2.42,1.74,3.18,3.03c0.75,1.29,1.13,2.75,1.13,4.38
			c0,1.73-0.54,3.27-1.63,4.61c-1.09,1.34-2.46,2.31-4.12,2.91l-0.04,0.26l7.22,10.34v0.3h-5.83l-6.96-10.11h-2.37v10.11h-5.08
			V96.68z M471.95,108.83c1.15,0,2.09-0.35,2.82-1.05c0.73-0.7,1.09-1.59,1.09-2.67c0-1.03-0.34-1.9-1.03-2.63
			c-0.69-0.73-1.62-1.09-2.8-1.09h-4.78v7.44H471.95z"/>
		<path d="M486.01,96.68h17.07v4.81h-12v6.24h10.79v4.81h-10.79v6.24h12v4.81h-17.07V96.68z"/>
		<path d="M508.31,96.68h5.08v26.92h-5.08V96.68z"/>
	</g>
</g>
</svg>
