<?xml version="1.0" encoding="utf-8"?>
<!-- Generator: Adobe Illustrator 25.3.1, SVG Export Plug-In . SVG Version: 6.00 Build 0)  -->
<svg version="1.1" xmlns="http://www.w3.org/2000/svg" xmlns:xlink="http://www.w3.org/1999/xlink" x="0px" y="0px"
	 viewBox="0 0 4680 3120" style="enable-background:new 0 0 4680 3120;" xml:space="preserve">
<style type="text/css">
	.st0{opacity:0.6;}
	.st1{fill:#FFFFFF;}
	.st2{fill:#15803D;stroke:#15803D;stroke-miterlimit:10;}
	.st3{fill:#2B4183;}
	.st4{fill:#15803D;}
	.st5{fill:none;stroke:#F0E0DF;stroke-width:2.2132;stroke-miterlimit:10;}
	.st6{fill:#FF7193;}
	.st7{fill:none;stroke:#FF003D;stroke-width:7;stroke-miterlimit:10;}
	.st8{fill:#F9D1BA;}
	.st9{fill:#685656;}
	.st10{fill:#1C1A21;}
	.st11{fill:#F6AE94;}
	.st12{fill:#626264;}
	.st13{fill:#454545;}
	.st14{fill:#393F6D;}
	.st15{fill:#5B5BDC;}
	.st16{fill:#6D6DEB;}
	.st17{fill:#22DB00;}
	.st18{fill:#DF5A57;}
	.st19{fill:#FA6C6C;}
	.st20{fill:#FFC117;}
	.st21{fill:#4343BE;}
	.st22{fill:#5252D7;}
	.st23{fill:#FFE04B;}
	.st24{fill:#4E4E4E;}
</style>
<g id="Ebene_2">
	<g class="st0">
		<g>
			<g>
				<rect x="1855.2" y="712.9" class="st1" width="2376.3" height="2164.8"/>
				<path class="st2" d="M4231.6,372.4v340.5H1855.2V372.4c0-67.6,60.4-122.5,134.9-122.5h2106.5
					C4171.2,249.9,4231.6,304.7,4231.6,372.4z"/>
				<g>
					<g>
						<ellipse class="st3" cx="3863.3" cy="461.3" rx="111.8" ry="101.5"/>
						<path class="st4" d="M3863.3,499.5L3863.3,499.5c35.4,0,64.1-26,64.1-58.2V178.5c0-32.1-28.7-58.2-64.1-58.2l0,0
							c-35.4,0-64.1,26-64.1,58.2v262.8C3799.2,473.4,3827.9,499.5,3863.3,499.5z"/>
					</g>
					<g>
						<ellipse class="st3" cx="3074.3" cy="461.3" rx="111.8" ry="101.5"/>
						<path class="st4" d="M3074.3,499.5L3074.3,499.5c35.4,0,64.1-26,64.1-58.2V178.5c0-32.1-28.7-58.2-64.1-58.2l0,0
							c-35.4,0-64.1,26-64.1,58.2v262.8C3010.2,473.4,3038.9,499.5,3074.3,499.5z"/>
					</g>
					<g>
						<ellipse class="st3" cx="2285.3" cy="461.3" rx="111.8" ry="101.5"/>
						<path class="st4" d="M2285.3,499.5L2285.3,499.5c35.4,0,64.1-26,64.1-58.2V178.5c0-32.1-28.7-58.2-64.1-58.2l0,0
							c-35.4,0-64.1,26-64.1,58.2v262.8C2221.3,473.4,2250,499.5,2285.3,499.5z"/>
					</g>
				</g>
			</g>
			<g>
				<g>
					
						<rect x="3428.6" y="1060.8" transform="matrix(-1 -1.224647e-16 1.224647e-16 -1 7308.9595 2531.8708)" class="st5" width="451.8" height="410.3"/>
					
						<rect x="2827.4" y="1060.8" transform="matrix(-1 -1.224647e-16 1.224647e-16 -1 6106.6895 2531.8708)" class="st5" width="451.8" height="410.3"/>
					
						<rect x="2226.3" y="1060.8" transform="matrix(-1 -1.224647e-16 1.224647e-16 -1 4904.4194 2531.8708)" class="st5" width="451.8" height="410.3"/>
				</g>
				<g>
					
						<rect x="3428.6" y="1581.6" transform="matrix(-1 -1.224647e-16 1.224647e-16 -1 7308.9595 3573.5093)" class="st5" width="451.8" height="410.3"/>
					
						<rect x="2827.4" y="1581.6" transform="matrix(-1 -1.224647e-16 1.224647e-16 -1 6106.6895 3573.5093)" class="st5" width="451.8" height="410.3"/>
					
						<rect x="2226.3" y="1581.6" transform="matrix(-1 -1.224647e-16 1.224647e-16 -1 4904.4194 3573.5093)" class="st6" width="451.8" height="410.3"/>
					<g>
						<line class="st7" x1="2389.6" y1="1728.1" x2="2514.8" y2="1845.4"/>
						<line class="st7" x1="2514.8" y1="1728.1" x2="2389.6" y2="1845.4"/>
					</g>
				</g>
				<g>
					
						<rect x="3428.6" y="2102.4" transform="matrix(-1 -1.224647e-16 1.224647e-16 -1 7308.9595 4615.1465)" class="st5" width="451.8" height="410.3"/>
					
						<rect x="2827.4" y="2102.4" transform="matrix(-1 -1.224647e-16 1.224647e-16 -1 6106.6895 4615.1465)" class="st5" width="451.8" height="410.3"/>
					
						<rect x="2226.3" y="2102.4" transform="matrix(-1 -1.224647e-16 1.224647e-16 -1 4904.4194 4615.1465)" class="st5" width="451.8" height="410.3"/>
				</g>
			</g>
		</g>
	</g>
</g>
<g id="Ebene_1">
	<g id="bvTGEk.tif">
	</g>
	<g>
		<g>
			<g>
				<ellipse class="st8" cx="1312.8" cy="937.4" rx="164.6" ry="217.9"/>
				<path class="st9" d="M1200,775.6c0,0-42.7,61.8-52.1,161.8c0,0-57.2-91.5,6.9-210.5L1200,775.6z"/>
				<path class="st9" d="M1472.1,910.4c0,0-12.6-100.6-64.5-108.7c-51.9-8.1-147.8,4-196.6,0c-91.2-7.5-55.1-97.2-48.8-124.8
					c0,0,141.6-8.2,196.7,4.8c55.1,13,174.6,44.9,154.9,227.6C1513.8,909.3,1487.8,884.4,1472.1,910.4z"/>
				<path class="st9" d="M1504.9,965.2c0,0-38.1,99.9-68.1,115.3c0,0,30.2-71.2,34.1-85.1C1470.9,995.5,1494.6,983.6,1504.9,965.2z"
					/>
				<path class="st8" d="M1455.6,909.3c0,0,45.6-24.3,58.2,0c12.6,24.3-18.9,100.6-58.2,84.3
					C1416.2,977.4,1455.6,909.3,1455.6,909.3z"/>
				<g>
					<path class="st10" d="M1261,942.9c-0.7,10.5-8.7,18.6-17.9,18s-16.1-9.7-15.4-20.2c0.7-10.5,8.7-18.6,17.9-18
						C1254.8,923.4,1261.7,932.4,1261,942.9z"/>
					<path class="st10" d="M1367.6,946.5c-0.7,10.5-8.7,18.6-17.9,18s-16.1-9.7-15.4-20.2c0.7-10.5,8.7-18.6,17.9-18
						S1368.3,936,1367.6,946.5z"/>
					<path class="st11" d="M1298.4,1071.6c-1.3,0-2.6-0.1-3.9-0.2c-26-2.5-43.1-29-43.8-30.2c-1.4-2.2-0.7-5,1.4-6.4
						c2.1-1.4,5-0.7,6.4,1.4c0.2,0.2,15.5,23.9,36.9,25.9c11.6,1.1,23.4-4.5,34.8-16.6c1.8-1.9,4.7-2,6.6-0.2c1.9,1.8,2,4.7,0.2,6.6
						C1324.8,1065.1,1311.8,1071.6,1298.4,1071.6z"/>
					<path class="st9" d="M1397.9,878.5c-5.6,0.2-9.7,0.2-13.5,0.1c-3.8-0.2-7.1-0.5-10.4-1c-3.3-0.4-6.5-1.3-10.2-2.2
						c-3.7-1.2-7.7-2.1-12.9-4.6c5.5-9.7,16.2-13,26-11.6c4.9,0.7,9.6,2.9,13.4,6.1S1397.3,872.8,1397.9,878.5z"/>
					<path class="st9" d="M1231.2,881c0.6-5.7,3.8-10,7.5-13.3c3.8-3.2,8.5-5.3,13.4-6.1c9.8-1.4,20.5,1.9,26,11.6
						c-5.2,2.5-9.2,3.4-12.9,4.6c-3.7,0.9-6.9,1.8-10.2,2.2c-3.3,0.5-6.6,0.8-10.4,1C1240.8,881.2,1236.8,881.3,1231.2,881z"/>
					<path class="st11" d="M1302.5,1013.9c-5.2,0-12.3-0.8-16.9-4.8c-2.8-2.5-4.3-5.8-4.3-9.7c0-19.6,19.4-28.7,20.3-29.1
						c2.4-1,5.1,0,6.2,2.3c1.1,2.3,0.1,5.1-2.3,6.2c-0.1,0.1-14.8,7.1-14.8,20.6c0,1.5,0.6,2.2,1.1,2.7c3.2,2.8,12,2.7,15.7,2.2
						c2.5-0.4,4.9,1.4,5.2,4c0.4,2.5-1.4,4.9-4,5.2C1308.1,1013.6,1305.7,1013.9,1302.5,1013.9z"/>
				</g>
			</g>
		</g>
	</g>
	<g>
		<g>
			<g>
				<path class="st12" d="M934.7,2871.4c49.7-1.2,127.1-7.6,188.5-13.5l1.1-1l0.4,0.9c27.8-2.6,52.2-5.1,69.1-6.9l0.9-58
					c-64.4,1-104.6-13.5-104.6-13.5s-93.9,59.5-129.3,71.1C944.5,2855.8,937.4,2864.1,934.7,2871.4z"/>
				<path class="st13" d="M1124.8,2857.8l11.3,21.5c30.1,4.5,57.3,0.3,57.3,0.3l0.4-28.6C1176.9,2852.8,1152.5,2855.2,1124.8,2857.8
					z"/>
				<path class="st13" d="M934,2887.4c74.5,5.1,165.7-6.9,165.7-6.9l23.5-22.5c-61.4,5.8-138.8,12.3-188.5,13.5
					C931.5,2880,934,2887.4,934,2887.4z"/>
			</g>
			<g>
				<path class="st12" d="M1386.7,2845c82.5-11.2,98.8-46.4,119.7-80c6.6-10.6,9.5-23.6,20.3-32.3l0.3-1.4l0.8,0.4
					c20.4-16.4,38.3-31,50.6-41.2l-29.3-46c-50,34.2-101.2,52.8-101.2,52.8s7.6,46.1-11.6,82.6c-9.5,18-38,33.2-45.2,42.3
					C1381.1,2834.8,1385.1,2837.8,1386.7,2845z"/>
				<path class="st13" d="M1527.8,2731.7l20,11c25.9-12,45.1-29.5,45.1-29.5l-14.5-22.7C1566.1,2700.7,1548.2,2715.3,1527.8,2731.7z
					"/>
				<path class="st13" d="M1394,2859.7c27.1-8.2,49.3-11.5,75.9-24.2c30.9-23.1,58.7-80.8,58.7-80.8l-2-22.1
					c-22.5,18.1-40.3,65.8-65,84.9c-29.1,15.5-54,21.2-75,27.5C1388.7,2853.3,1394,2859.7,1394,2859.7z"/>
			</g>
			<path class="st14" d="M1155.2,1768.3c0,0-133.1,308.6,30,560.4c36.8,56.8,259.1,387.9,259.1,387.9l116-63.6
				c0,0-159.8-284.4-180.6-326.3c-21.5-43.3-49-442.7-60.1-469.5C1308.5,1830.4,1262.7,1727.1,1155.2,1768.3z"/>
			<path class="st14" d="M1273.8,1832c-70.2,72.7-141.7,393.5-151.8,439.6c-10.2,46.2-58,519-58,519l139,6.8
				c0,0,77.1-429.3,94.8-464s265.8-367.3,242.5-525.3C1526,1711.1,1343.2,1760.2,1273.8,1832z"/>
		</g>
		<path class="st8" d="M1166.8,1693.7c-178.6-79.7-314-87.2-314-87.2l-5.2,55.6c0,0,135.1,45,262.7,65.2
			C1129.2,1730.3,1186.5,1702.5,1166.8,1693.7z"/>
		<path class="st15" d="M1161.3,1762.7c-169.9-14.4-291.9-82.4-291.9-82.4s25.6-67.3,36.6-74.5c11.1-7.2,213.6,37,296.7,57.5
			C1231.4,1670.5,1248.9,1770.2,1161.3,1762.7z"/>
		<path class="st15" d="M1200.5,1209.1c-126.6,39.6-87.1,432.8-73.8,442.8s115.2-22.1,120.7-49.6
			C1252.8,1574.8,1299.2,1178.2,1200.5,1209.1z"/>
		<path class="st16" d="M1398.2,1179c0,0,78.9,9.9,152.6,74.6c0,0-68.7,33.3-16.5,157.1l2.8,358.8c0,0-150.7,47.6-384.9-13.5
			c0,0-42.7-429.6,3.1-499.8C1206,1178.4,1292.3,1167,1398.2,1179z"/>
		<path class="st8" d="M1359.3,1124.3l13.9,75.6c0,0-21.9,53.7-61.7,53.7s-39.8-53.7-39.8-53.7v-75.6H1359.3z"/>
		<polygon class="st17" points="1306.4,1228.7 1341,1253.9 1320.4,1294.5 1277.6,1294.5 1271.8,1253.9 		"/>
		<path class="st15" d="M1306.4,1228.7l59.7-67.6l15.8,17.1l-8.7,106.6C1373.2,1284.8,1322.5,1241.8,1306.4,1228.7z"/>
		<path class="st15" d="M1306.4,1228.7l-34.6-65.8l-18.3,19.8l-16.4,88.3C1237,1271,1258,1266.6,1306.4,1228.7z"/>
		<path class="st17" d="M1277.6,1294.5c0,0-59.9,206.8-31.8,389.1l42.2,36.1l44.8-48.7c0,0-45.4-297.9-12.4-376.5H1277.6z"/>
		<g>
			<path class="st18" d="M774.6,1506.4h-36.9v-23.3c0-0.6,0.5-1.2,1.2-1.2h34.5c0.6,0,1.2,0.5,1.2,1.2L774.6,1506.4L774.6,1506.4z"
				/>
			<polygon class="st18" points="885.2,1514.6 709.1,1514.6 744.3,1731.7 850,1731.7 			"/>
			<path class="st19" d="M878.3,1572.4H716c-1.4,0-2.4,1.3-2.2,2.7l16,96.9c0.2,1.1,1.1,1.9,2.2,1.9h130.3c1.1,0,2-0.8,2.2-1.9
				l16-96.9C880.7,1573.7,879.6,1572.4,878.3,1572.4z"/>
			<path class="st1" d="M827.1,1620.8c0-16.5-13.4-29.9-29.9-29.9s-29.9,13.4-29.9,29.9s13.4,29.9,29.9,29.9
				C813.7,1650.7,827.1,1637.3,827.1,1620.8z"/>
			<path class="st18" d="M868.5,1512.7H725.8c-5.1,0-9.2-4.1-9.2-9.2l0,0c0-5.1,4.1-9.2,9.2-9.2h142.7c5.1,0,9.2,4.1,9.2,9.2l0,0
				C877.7,1508.6,873.6,1512.7,868.5,1512.7z"/>
			<path class="st20" d="M819.8,1620.8c0-12.5-10.2-22.7-22.7-22.7s-22.7,10.2-22.7,22.7s10.2,22.7,22.7,22.7
				C809.7,1643.5,819.8,1633.3,819.8,1620.8z"/>
			<path class="st19" d="M886.3,1525.8H708.5c-6.2,0-11.2-5-11.2-11.2l0,0c0-6.2,5-11.2,11.2-11.2h177.8c6.2,0,11.1,5,11.1,11.2l0,0
				C897.5,1520.8,892.5,1525.8,886.3,1525.8z"/>
		</g>
		<g>
			<path class="st21" d="M1325.2,1957.2l452.2,88.1c3.5,0.7,6.7,1.9,9.7,3.6l0,0l0.7,0.4c0.6,0.4,1.3,0.8,1.9,1.2l26.1,16.4
				l-12.2,8.6c0.1,2.6,0,5.2-0.5,7.8l-58.9,302.3c-3.4,17.6-20.4,29-38,25.6l-436.5-85.1l1,10.1l-27.1-17.1l0,0
				c-11.4-6.8-17.9-20.2-15.2-34l58.9-302.3C1290.6,1965.3,1307.6,1953.8,1325.2,1957.2z"/>
			<path class="st22" d="M1280.9,2340.1l452.2,88.1c17.6,3.4,34.6-8,38-25.6l58.9-302.3c3.4-17.6-8-34.6-25.6-38l-452.2-88.1
				c-17.6-3.4-34.6,8-38,25.6l-58.9,302.3C1251.9,2319.7,1263.4,2336.7,1280.9,2340.1z"/>
			<path class="st16" d="M1287.8,2135.6c0,0,84.3,67.1,248.2,100.1c163.8,33,267.6,0.4,267.6,0.4l26.4-135.7
				c3.4-17.6-8-34.6-25.6-38l-452.2-88.1c-17.6-3.4-34.6,8-38,25.6L1287.8,2135.6z"/>
			<path class="st23" d="M1486,2248.6l91.4,17.8c12.1,2.4,23.8-5.5,26.1-17.6l0,0c2.4-12.1-5.5-23.8-17.6-26.1l-91.4-17.8
				c-12.1-2.3-23.8,5.5-26.1,17.6l0,0C1466.1,2234.6,1474,2246.3,1486,2248.6z"/>
			<path class="st20" d="M1502.2,2244.4l61.8,12.1c8.2,1.6,16.1-3.8,17.7-11.9l0,0c1.6-8.2-3.7-16.1-11.9-17.7l-61.8-12
				c-8.2-1.6-16.1,3.7-17.7,11.9l0,0C1488.7,2234.9,1494,2242.8,1502.2,2244.4z"/>
			<path class="st23" d="M1695.6,2034.2l52.2,10.2l2-10.4c1-5.3-2.4-10.5-7.8-11.6l-32.9-6.4c-5.3-1-10.5,2.5-11.5,7.8
				L1695.6,2034.2z"/>
			<path class="st21" d="M1492.1,1993.2l20.1,3.9l3.9-19.9c1.3-6.9,8.1-11.5,15-10.1l89.6,17.5c6.9,1.4,11.5,8.1,10.1,15l-3.9,19.9
				l20.1,3.9l3.9-19.9c3.5-18-8.3-35.5-26.3-39L1535,1947c-18-3.5-35.5,8.3-39,26.3L1492.1,1993.2z"/>
			<path class="st23" d="M1378.3,1972.3l52.2,10.2l2-10.4c1-5.3-2.5-10.5-7.8-11.6l-32.9-6.4c-5.3-1-10.5,2.4-11.6,7.8
				L1378.3,1972.3z"/>
		</g>
		<path class="st8" d="M1664.1,1643.2c3.3,195.5-43,323-43,323l-53.2-17.1c0,0-3-180.6-14.7-267.1
			C1550.6,1663.1,1663.7,1621.6,1664.1,1643.2z"/>
		<path class="st15" d="M1492.5,1220.9c132.1,12,187.7,400.8,176.8,413.5c-10.9,12.6-108.3,27.3-119.4,1.6
			C1538.8,1610.2,1389.5,1211.5,1492.5,1220.9z"/>
		<path class="st8" d="M1613.5,1939.4c-7.9-3.5-16.6-3.4-25-1.1c0.7-5.1-1.2-9.4-8.2-7.3c-0.2,0-0.3,0.2-0.5,0.3
			c-8.9,1.1-17,1.4-25.2,6.1c-6,3.4-15.1,8.8-18.6,15.2c-3,5.5-0.4,28,8.8,19.8c1.2-1.1,1.9-2.8,2.5-4.3c0.7-1.7,0.9-3.5,1.3-5.3
			c1.7-6.4,7.1-9.3,13.4-9.7c0.3,0,0.6,0,0.9,0c-4.1,3.8-7.7,7.9-10.4,12c-0.6,0.9-12.7,28.4,0.5,31.9c4.2,1.1,7.7-0.7,10.6-3.9
			c-0.1,3.8,1.4,6.8,6,7.4c5.4,0.8,9.6-1.6,12.9-5.4c0.4,4,2.8,6.9,9.2,6.8c5.9-0.1,10.3-3.8,13.2-8.7c0.4,0.8,0.9,1.6,1.5,2.4
			c0.8,1,7.5-1,8.3-1.7C1627.2,1982.5,1635.2,1949,1613.5,1939.4z"/>
		<path class="st15" d="M1670,1621.7c18.1,169.6-25.8,302.2-25.8,302.2s-91.1-10-91.1-23.3c0-35.6-11.8-203.3-7.3-288.8
			C1547.3,1582.3,1660.7,1534.3,1670,1621.7z"/>
		<path class="st8" d="M716.3,1633.5c0.2-0.7,0.8-1.3,1.6-1.6c-3.3-1.3-6.6-3.2-7.5-6.3c-1.2-4,2.1-7.5,4.5-10.1
			c0.1-0.1,0.3-0.2,0.4-0.3c-7.5-2-14.3-5.8-14.6-12.8c-0.3-6.6,5-9.7,11.6-11.2c-2.7-0.9-5.2-2.1-7.3-3.5
			c-8.6-5.4-3.2-15.4,3.3-20.1c1.1-0.8,2.2-0.8,3.1-0.4c0.3-0.1,0.5-0.2,0.8-0.2c7.3-0.4,14.6-0.1,21.9,1.2c5,0.9,12.4,1.7,16.4,5.3
			c7.2,6.3-1.8,12.9-8.2,16.4c7.4,0,14.4,2,13.2,11.1c-0.8,6.2-4.5,10.3-9.2,12.9c3.6,0.7,6.9,1.9,9.5,3.9
			c6.7,5.3-0.3,12.7-5.6,15.7c-2.5,1.4-5.2,2.3-8,2.7c0.5,0.4,0.9,0.8,1.2,1.4c2.5,4.6-3.3,9.9-7,11.7
			C725.2,1654.7,712.7,1645.7,716.3,1633.5z"/>
	</g>
	<g>
		<path class="st12" d="M1149,1743.5c0,0-7.4,32.5-4.1,44.2c0,0,146.4,54.3,395,17.2c0,0,5.9-31.9-3.2-42.1
			C1536.7,1762.8,1309.3,1792.8,1149,1743.5z"/>
		<path class="st24" d="M1223.7,1830.8h108.5c0.9,0,1.7-0.8,1.7-1.7v-79.4c0-0.9-0.8-1.7-1.7-1.7h-108.5c-0.9,0-1.7,0.8-1.7,1.7
			v79.4C1222,1830.1,1222.8,1830.8,1223.7,1830.8z"/>
		<path class="st12" d="M1241.2,1817.4h73.4c0.6,0,1.1-0.5,1.1-1.1v-53.7c0-0.6-0.5-1.1-1.1-1.1h-73.4c-0.6,0-1.1,0.5-1.1,1.1v53.7
			C1240.1,1816.9,1240.6,1817.4,1241.2,1817.4z"/>
	</g>
</g>
</svg>
