<?xml version="1.0" encoding="utf-8"?>
<!-- Generator: Adobe Illustrator 25.4.0, SVG Export Plug-In . SVG Version: 6.00 Build 0)  -->
<svg version="1.1" id="Ebene_1" xmlns="http://www.w3.org/2000/svg" xmlns:xlink="http://www.w3.org/1999/xlink" x="0px" y="0px"
	 viewBox="0 0 192 134" style="enable-background:new 0 0 192 134;" xml:space="preserve">
<style type="text/css">
	.st0{fill:#F8F8F8;stroke:#17813D;stroke-width:4;stroke-miterlimit:10;}
	.st1{fill:#17813D;stroke:#17813D;}
	.st2{fill:#17813D;stroke:#17813D;stroke-width:2;}
	.st3{fill:#17813D;stroke:#17813D;stroke-miterlimit:10;}
</style>
<path class="st0" d="M48.6,26.6v78.9h94.5V66.2l-47.3-0.1V26.6H48.6z"/>
<path class="st1" d="M34.9,35.6l3.3-9.1l3.3,9.1H34.9z"/>
<path class="st1" d="M41.6,97.6l-3.3,9.1l-3.3-9.1H41.6z"/>
<path class="st2" d="M38.2,34.1v66"/>
<path class="st3" d="M29.7,73.6c2.4,0,4-1.5,4.3-3.4h-1.7c-0.3,1.2-1.3,1.9-2.6,1.9c-2,0-3.3-1.6-3.3-4.2c0-2.5,1.3-4.1,3.3-4.1
	c1.5,0,2.4,0.9,2.6,1.9H34c-0.3-2-2-3.4-4.3-3.4c-3,0-4.9,2.3-4.9,5.7C24.8,71.3,26.6,73.6,29.7,73.6z"/>
</svg>
