<?xml version="1.0" encoding="utf-8"?>
<!-- Generator: Adobe Illustrator 25.4.0, SVG Export Plug-In . SVG Version: 6.00 Build 0)  -->
<svg version="1.1" id="Ebene_1" xmlns="http://www.w3.org/2000/svg" xmlns:xlink="http://www.w3.org/1999/xlink" x="0px" y="0px"
	 viewBox="0 0 192 134" style="enable-background:new 0 0 192 134;" xml:space="preserve">
<style type="text/css">
	.st0{fill:#F8F8F8;stroke:#17813D;stroke-width:4;stroke-miterlimit:10;}
	.st1{fill:#17813D;stroke:#17813D;}
	.st2{fill:#17813D;stroke:#17813D;stroke-width:2;}
	.st3{fill:#17813D;stroke:#17813D;stroke-miterlimit:10;}
</style>
<path class="st0" d="M48.6,28.6v78.9h94.5V68.2l-47.3-0.1V28.6H48.6z"/>
<path class="st1" d="M103.2,37.6l3.3-9.1l3.3,9.1H103.2z"/>
<path class="st1" d="M109.9,55.6l-3.3,9.1l-3.3-9.1H109.9z"/>
<path class="st2" d="M106.6,36.1v22"/>
<path class="st3" d="M116.2,53.6c2.2,0,3.8-1.1,4.3-2.8l-1.6-0.5c-0.4,1.1-1.4,1.7-2.7,1.7c-2,0-3.3-1.3-3.4-3.6h7.9v-0.7
	c0-4.1-2.4-5.5-4.7-5.5c-3,0-4.9,2.3-4.9,5.7C111.1,51.4,113,53.6,116.2,53.6z M112.8,47.1c0.1-1.7,1.3-3.2,3.2-3.2
	c1.8,0,3,1.4,3,3.2H112.8z"/>
</svg>
