<?xml version="1.0" encoding="utf-8"?>
<!-- Generator: Adobe Illustrator 25.4.0, SVG Export Plug-In . SVG Version: 6.00 Build 0)  -->
<svg version="1.1" id="Ebene_1" xmlns="http://www.w3.org/2000/svg" xmlns:xlink="http://www.w3.org/1999/xlink" x="0px" y="0px"
	 viewBox="0 0 192 134" style="enable-background:new 0 0 192 134;" xml:space="preserve">
<style type="text/css">
	.st0{fill:#F8F8F8;stroke:#17813D;stroke-width:4;stroke-miterlimit:10;}
	.st1{fill:#17813D;stroke:#17813D;}
	.st2{fill:#17813D;stroke:#17813D;stroke-width:2;}
	.st3{fill:#17813D;stroke:#17813D;stroke-miterlimit:10;}
</style>
<path class="st0" d="M48.6,28v78.9h94.5V67.6l-47.3-0.1V28H48.6z"/>
<path class="st1" d="M108.6,61.2l-9.1-3.3l9.1-3.3V61.2z"/>
<path class="st1" d="M134.6,54.5l9.1,3.3l-9.1,3.3V54.5z"/>
<path class="st2" d="M107.1,57.8h30"/>
<path class="st3" d="M124.8,39.7h-2.4v-1.1c0-1.1,0.5-1.6,1.6-1.6c0.5,0,0.8,0.1,0.9,0.2l0.5-1.4c-0.3-0.1-0.8-0.3-1.6-0.3
	c-1.6,0-3.1,0.9-3.1,2.8v1.5H119v1.4h1.8v9.5h1.7v-9.5h2.4V39.7z"/>
</svg>
