<svg width="110" height="168" viewBox="0 0 110 168" fill="none" xmlns="http://www.w3.org/2000/svg">
<rect x="20.5" y="20.5" width="69" height="47" rx="5.5" fill="white" stroke="#D9D9D9"/>
<path fill-rule="evenodd" clip-rule="evenodd" d="M55.5 54.3139C53.1169 56.3704 50.0255 57.6119 46.6475 57.6119C39.1102 57.6119 33 51.4308 33 43.806C33 36.1811 39.1102 30 46.6475 30C50.0255 30 53.1169 31.2415 55.5 33.2981C57.8831 31.2415 60.9745 30 64.3525 30C71.8898 30 78 36.1811 78 43.806C78 51.4308 71.8898 57.6119 64.3525 57.6119C60.9745 57.6119 57.8831 56.3704 55.5 54.3139Z" fill="#ED0006"/>
<path fill-rule="evenodd" clip-rule="evenodd" d="M55.5 54.3139C58.4344 51.7816 60.2951 48.0136 60.2951 43.806C60.2951 39.5983 58.4344 35.8303 55.5 33.2981C57.8831 31.2415 60.9745 30 64.3524 30C71.8898 30 78 36.1811 78 43.806C78 51.4308 71.8898 57.6119 64.3524 57.6119C60.9745 57.6119 57.8831 56.3704 55.5 54.3139Z" fill="#F9A000"/>
<path fill-rule="evenodd" clip-rule="evenodd" d="M55.5 33.2981C58.4344 35.8304 60.2951 39.5984 60.2951 43.806C60.2951 48.0136 58.4344 51.7816 55.5 54.3138C52.5657 51.7816 50.705 48.0136 50.705 43.806C50.705 39.5984 52.5657 35.8304 55.5 33.2981Z" fill="#FF5E00"/>
<rect x="20.5" y="88.5" width="34" height="23" rx="3.5" fill="white" stroke="#D9D9D9"/>
<path fill-rule="evenodd" clip-rule="evenodd" d="M37.75 105.157C36.5584 106.185 35.0128 106.806 33.3238 106.806C29.5551 106.806 26.5 103.715 26.5 99.903C26.5 96.0906 29.5551 93 33.3238 93C35.0128 93 36.5584 93.6208 37.75 94.649C38.9416 93.6208 40.4872 93 42.1762 93C45.9449 93 49 96.0906 49 99.903C49 103.715 45.9449 106.806 42.1762 106.806C40.4872 106.806 38.9416 106.185 37.75 105.157Z" fill="#ED0006"/>
<path fill-rule="evenodd" clip-rule="evenodd" d="M37.75 105.157C39.2172 103.891 40.1475 102.007 40.1475 99.903C40.1475 97.7992 39.2172 95.9152 37.75 94.649C38.9416 93.6208 40.4872 93 42.1762 93C45.9449 93 49 96.0906 49 99.903C49 103.715 45.9449 106.806 42.1762 106.806C40.4872 106.806 38.9416 106.185 37.75 105.157Z" fill="#F9A000"/>
<path fill-rule="evenodd" clip-rule="evenodd" d="M37.75 94.6491C39.2172 95.9152 40.1475 97.7992 40.1475 99.903C40.1475 102.007 39.2172 103.891 37.75 105.157C36.2828 103.891 35.3525 102.007 35.3525 99.903C35.3525 97.7992 36.2828 95.9152 37.75 94.6491Z" fill="#FF5E00"/>
<rect x="20.5" y="132.5" width="22" height="15" rx="2" fill="white" stroke="#D9D9D9"/>
<path fill-rule="evenodd" clip-rule="evenodd" d="M31.7143 143.697C30.8367 144.434 29.6983 144.878 28.4544 144.878C25.6787 144.878 23.4286 142.665 23.4286 139.935C23.4286 137.205 25.6787 134.992 28.4544 134.992C29.6983 134.992 30.8367 135.437 31.7143 136.173C32.5919 135.437 33.7303 134.992 34.9743 134.992C37.7499 134.992 40 137.205 40 139.935C40 142.665 37.7499 144.878 34.9743 144.878C33.7303 144.878 32.5919 144.434 31.7143 143.697Z" fill="#ED0006"/>
<path fill-rule="evenodd" clip-rule="evenodd" d="M31.7143 143.697C32.7949 142.791 33.4801 141.442 33.4801 139.935C33.4801 138.429 32.7949 137.08 31.7143 136.173C32.5919 135.437 33.7303 134.992 34.9742 134.992C37.7499 134.992 40 137.205 40 139.935C40 142.665 37.7499 144.878 34.9742 144.878C33.7303 144.878 32.5919 144.434 31.7143 143.697Z" fill="#F9A000"/>
<path fill-rule="evenodd" clip-rule="evenodd" d="M31.7143 143.697C32.7949 142.791 33.4801 141.442 33.4801 139.935C33.4801 138.429 32.7949 137.08 31.7143 136.173C30.6338 137.08 29.9486 138.429 29.9486 139.935C29.9486 141.442 30.6338 142.791 31.7143 143.697Z" fill="#FF5E00"/>
<rect x="0.5" y="0.5" width="109" height="167" rx="4.5" stroke="#7B61FF" stroke-dasharray="10 5"/>
</svg>
