<?xml version="1.0" encoding="utf-8"?>
<!-- Generator: Adobe Illustrator 25.4.0, SVG Export Plug-In . SVG Version: 6.00 Build 0)  -->
<svg version="1.1" xmlns="http://www.w3.org/2000/svg" xmlns:xlink="http://www.w3.org/1999/xlink" x="0px" y="0px"
	 viewBox="0 0 1920 1080" style="enable-background:new 0 0 1920 1080;" xml:space="preserve">
<style type="text/css">
	.st0{opacity:0.65;}
	.st1{fill:#FAFCFF;}
	.st2{opacity:0.65;fill:#B3B3B3;}
	.st3{fill:#B3B3B3;}
	.st4{opacity:0.65;fill:#15803D;}
	.st5{fill:#BDCCD4;}
	.st6{fill:#F9D1BA;}
	.st7{fill:#685656;}
	.st8{fill:#1C1A21;}
	.st9{fill:#F6AE94;}
	.st10{fill:#626264;}
	.st11{fill:#454545;}
	.st12{fill:#393F6D;}
	.st13{fill:#5B5BDC;}
	.st14{fill:#6D6DEB;}
	.st15{fill:#22DB00;}
	.st16{fill:#DF5A57;}
	.st17{fill:#FA6C6C;}
	.st18{fill:#FFFFFF;}
	.st19{fill:#FFC117;}
	.st20{fill:#4343BE;}
	.st21{fill:#5252D7;}
	.st22{fill:#FFE04B;}
	.st23{fill:#4E4E4E;}
</style>
<g id="Ebene_1">
</g>
<g id="Ebene_2">
	<g class="st0">
		<path class="st1" d="M1664,660.8h-273c-8.28,0-15-6.72-15-15v-357c0-8.28,6.72-15,15-15h273c8.28,0,15,6.72,15,15v357
			C1679,654.08,1672.28,660.8,1664,660.8z"/>
	</g>
	<rect x="1412.6" y="317" class="st2" width="229.2" height="23.4"/>
	<g id="SNKbiF_12_" class="st0">
		<g>
			<path class="st3" d="M1418.92,400.14c1.31-1.32,2.52-2.54,3.73-3.75c2.09-2.09,4.18-4.19,6.28-6.28
				c0.11-0.11,0.23-0.23,0.35-0.32c0.37-0.26,0.82-0.22,1.14,0.09c0.29,0.29,0.35,0.75,0.12,1.1c-0.09,0.13-0.2,0.25-0.31,0.36
				c-3.46,3.46-6.92,6.92-10.38,10.38c-0.65,0.65-1.05,0.65-1.7,0c-1.69-1.68-3.37-3.37-5.06-5.05c-0.29-0.29-0.51-0.64-0.32-1.02
				c0.12-0.25,0.42-0.55,0.67-0.58c0.3-0.03,0.69,0.14,0.92,0.35c1.44,1.39,2.84,2.81,4.25,4.23
				C1418.72,399.79,1418.8,399.95,1418.92,400.14z"/>
		</g>
	</g>
	<g id="SNKbiF_11_" class="st0">
		<g>
			<path class="st3" d="M1418.85,444.31c1.31-1.32,2.52-2.54,3.73-3.75c2.09-2.09,4.18-4.19,6.28-6.28
				c0.11-0.11,0.23-0.23,0.35-0.32c0.37-0.26,0.82-0.22,1.14,0.09c0.29,0.29,0.35,0.75,0.12,1.1c-0.09,0.13-0.2,0.25-0.31,0.36
				c-3.46,3.46-6.92,6.92-10.38,10.38c-0.65,0.65-1.05,0.65-1.7,0c-1.69-1.68-3.37-3.37-5.06-5.05c-0.29-0.29-0.51-0.64-0.32-1.02
				c0.12-0.25,0.42-0.55,0.67-0.58c0.3-0.03,0.69,0.14,0.92,0.35c1.44,1.39,2.84,2.81,4.25,4.23
				C1418.65,443.96,1418.73,444.12,1418.85,444.31z"/>
		</g>
	</g>
	<g id="SNKbiF_10_" class="st0">
		<g>
			<path class="st3" d="M1418.85,488.71c1.31-1.32,2.52-2.54,3.73-3.75c2.09-2.09,4.18-4.19,6.28-6.28
				c0.11-0.11,0.23-0.23,0.35-0.32c0.37-0.26,0.82-0.22,1.14,0.09c0.29,0.29,0.35,0.75,0.12,1.1c-0.09,0.13-0.2,0.25-0.31,0.36
				c-3.46,3.46-6.92,6.92-10.38,10.38c-0.65,0.65-1.05,0.65-1.7,0c-1.69-1.68-3.37-3.37-5.06-5.05c-0.29-0.29-0.51-0.64-0.32-1.02
				c0.12-0.25,0.42-0.55,0.67-0.58c0.3-0.03,0.69,0.14,0.92,0.35c1.44,1.39,2.84,2.81,4.25,4.23
				C1418.65,488.36,1418.73,488.52,1418.85,488.71z"/>
		</g>
	</g>
	<g id="SNKbiF_9_" class="st0">
		<g>
			<path class="st3" d="M1418.75,533.03c1.31-1.32,2.52-2.54,3.73-3.75c2.09-2.09,4.18-4.19,6.28-6.28
				c0.11-0.11,0.23-0.23,0.35-0.32c0.37-0.26,0.82-0.22,1.14,0.09c0.29,0.29,0.35,0.75,0.12,1.1c-0.09,0.13-0.2,0.25-0.31,0.36
				c-3.46,3.46-6.92,6.92-10.38,10.38c-0.65,0.65-1.05,0.65-1.7,0c-1.69-1.68-3.37-3.37-5.06-5.05c-0.29-0.29-0.51-0.64-0.32-1.02
				c0.12-0.25,0.42-0.55,0.67-0.58c0.3-0.03,0.69,0.14,0.92,0.35c1.44,1.39,2.84,2.81,4.25,4.23
				C1418.54,532.68,1418.62,532.85,1418.75,533.03z"/>
		</g>
	</g>
	<path class="st4" d="M1602.8,627.8h-150.6c-8.28,0-15-6.72-15-15v-13.2c0-8.28,6.72-15,15-15h150.6c8.28,0,15,6.72,15,15v13.2
		C1617.8,621.08,1611.08,627.8,1602.8,627.8z"/>
	<g class="st0">
		<path class="st1" d="M953,650H680c-8.28,0-15-6.72-15-15V278c0-8.28,6.72-15,15-15h273c8.28,0,15,6.72,15,15v357
			C968,643.28,961.28,650,953,650z"/>
	</g>
	<rect x="701.6" y="306.2" class="st2" width="229.2" height="23.4"/>
	<g id="SNKbiF_1_" class="st0">
		<g>
			<path class="st3" d="M707.92,389.34c1.31-1.32,2.52-2.54,3.73-3.75c2.09-2.09,4.18-4.19,6.28-6.28c0.11-0.11,0.23-0.23,0.35-0.32
				c0.37-0.26,0.82-0.22,1.14,0.09c0.29,0.29,0.35,0.75,0.12,1.1c-0.09,0.13-0.2,0.25-0.31,0.36c-3.46,3.46-6.92,6.92-10.38,10.38
				c-0.65,0.65-1.05,0.65-1.7,0c-1.69-1.68-3.37-3.37-5.06-5.05c-0.29-0.29-0.51-0.64-0.32-1.02c0.12-0.25,0.42-0.55,0.67-0.58
				c0.3-0.03,0.69,0.14,0.92,0.35c1.44,1.39,2.84,2.81,4.25,4.23C707.72,388.99,707.8,389.15,707.92,389.34z"/>
		</g>
	</g>
	<g id="SNKbiF_2_" class="st0">
		<g>
			<path class="st3" d="M707.85,433.51c1.31-1.32,2.52-2.54,3.73-3.75c2.09-2.09,4.18-4.19,6.28-6.28c0.11-0.11,0.23-0.23,0.35-0.32
				c0.37-0.26,0.82-0.22,1.14,0.09c0.29,0.29,0.35,0.75,0.12,1.1c-0.09,0.13-0.2,0.25-0.31,0.36c-3.46,3.46-6.92,6.92-10.38,10.38
				c-0.65,0.65-1.05,0.65-1.7,0c-1.69-1.68-3.37-3.37-5.06-5.05c-0.29-0.29-0.51-0.64-0.32-1.02c0.12-0.25,0.42-0.55,0.67-0.58
				c0.3-0.03,0.69,0.14,0.92,0.35c1.44,1.39,2.84,2.81,4.25,4.23C707.65,433.16,707.73,433.32,707.85,433.51z"/>
		</g>
	</g>
	<g id="SNKbiF_3_" class="st0">
		<g>
			<path class="st3" d="M707.85,477.91c1.31-1.32,2.52-2.54,3.73-3.75c2.09-2.09,4.18-4.19,6.28-6.28c0.11-0.11,0.23-0.23,0.35-0.32
				c0.37-0.26,0.82-0.22,1.14,0.09c0.29,0.29,0.35,0.75,0.12,1.1c-0.09,0.13-0.2,0.25-0.31,0.36c-3.46,3.46-6.92,6.92-10.38,10.38
				c-0.65,0.65-1.05,0.65-1.7,0c-1.69-1.68-3.37-3.37-5.06-5.05c-0.29-0.29-0.51-0.64-0.32-1.02c0.12-0.25,0.42-0.55,0.67-0.58
				c0.3-0.03,0.69,0.14,0.92,0.35c1.44,1.39,2.84,2.81,4.25,4.23C707.65,477.56,707.73,477.72,707.85,477.91z"/>
		</g>
	</g>
	<g id="SNKbiF_4_" class="st0">
		<g>
			<path class="st3" d="M707.75,522.23c1.31-1.32,2.52-2.54,3.73-3.75c2.09-2.09,4.18-4.19,6.28-6.28c0.11-0.11,0.23-0.23,0.35-0.32
				c0.37-0.26,0.82-0.22,1.14,0.09c0.29,0.29,0.35,0.75,0.12,1.1c-0.09,0.13-0.2,0.25-0.31,0.36c-3.46,3.46-6.92,6.92-10.38,10.38
				c-0.65,0.65-1.05,0.65-1.7,0c-1.69-1.68-3.37-3.37-5.06-5.05c-0.29-0.29-0.51-0.64-0.32-1.02c0.12-0.25,0.42-0.55,0.67-0.58
				c0.3-0.03,0.69,0.14,0.92,0.35c1.44,1.39,2.84,2.81,4.25,4.23C707.54,521.88,707.62,522.05,707.75,522.23z"/>
		</g>
	</g>
	<path class="st4" d="M891.8,617H741.2c-8.28,0-15-6.72-15-15v-13.2c0-8.28,6.72-15,15-15h150.6c8.28,0,15,6.72,15,15V602
		C906.8,610.28,900.08,617,891.8,617z"/>
	<g class="st0">
		<path class="st1" d="M974.6,724.9c-6.89,0-12.5-5.61-12.5-12.5V200.6c0-6.89,5.61-12.5,12.5-12.5h394.2
			c6.89,0,12.5,5.61,12.5,12.5v511.8c0,6.89-5.61,12.5-12.5,12.5H974.6z"/>
		<path class="st5" d="M1368.8,190.6c5.51,0,10,4.49,10,10v511.8c0,5.51-4.49,10-10,10H974.6c-5.51,0-10-4.49-10-10V200.6
			c0-5.51,4.49-10,10-10H1368.8 M1368.8,185.6H974.6c-8.28,0-15,6.72-15,15v511.8c0,8.28,6.72,15,15,15h394.2c8.28,0,15-6.72,15-15
			V200.6C1383.8,192.32,1377.08,185.6,1368.8,185.6L1368.8,185.6z"/>
	</g>
	<rect x="1010.84" y="246.08" class="st2" width="320.88" height="32.76"/>
	<g id="SNKbiF_8_" class="st0">
		<g>
			<path class="st3" d="M1019.69,362.47c1.84-1.85,3.53-3.55,5.22-5.25c2.93-2.93,5.86-5.86,8.79-8.79c0.16-0.16,0.32-0.32,0.5-0.45
				c0.51-0.37,1.15-0.31,1.59,0.13c0.41,0.41,0.49,1.05,0.17,1.54c-0.12,0.19-0.28,0.35-0.44,0.5c-4.84,4.85-9.69,9.69-14.54,14.54
				c-0.91,0.91-1.47,0.91-2.38,0c-2.36-2.36-4.72-4.72-7.08-7.08c-0.41-0.41-0.71-0.9-0.45-1.43c0.17-0.35,0.59-0.78,0.94-0.81
				c0.41-0.04,0.97,0.19,1.28,0.49c2.01,1.95,3.98,3.94,5.95,5.93C1019.4,361.98,1019.51,362.21,1019.69,362.47z"/>
		</g>
	</g>
	<g id="SNKbiF_7_" class="st0">
		<g>
			<path class="st3" d="M1019.6,424.31c1.84-1.85,3.53-3.55,5.22-5.25c2.93-2.93,5.86-5.86,8.79-8.79c0.16-0.16,0.32-0.32,0.5-0.45
				c0.51-0.37,1.15-0.31,1.59,0.13c0.41,0.41,0.49,1.05,0.17,1.54c-0.12,0.19-0.28,0.35-0.44,0.5c-4.84,4.85-9.69,9.69-14.54,14.54
				c-0.91,0.91-1.47,0.91-2.38,0c-2.36-2.36-4.72-4.72-7.08-7.08c-0.41-0.41-0.71-0.9-0.45-1.43c0.17-0.35,0.59-0.78,0.94-0.81
				c0.41-0.04,0.97,0.19,1.28,0.49c2.01,1.95,3.98,3.94,5.95,5.93C1019.31,423.82,1019.42,424.05,1019.6,424.31z"/>
		</g>
	</g>
	<g id="SNKbiF_6_" class="st0">
		<g>
			<path class="st3" d="M1019.6,486.47c1.84-1.85,3.53-3.55,5.22-5.25c2.93-2.93,5.86-5.86,8.79-8.79c0.16-0.16,0.32-0.32,0.5-0.45
				c0.51-0.37,1.15-0.31,1.59,0.13c0.41,0.41,0.49,1.05,0.17,1.54c-0.12,0.19-0.28,0.35-0.44,0.5c-4.84,4.85-9.69,9.69-14.54,14.54
				c-0.91,0.91-1.47,0.91-2.38,0c-2.36-2.36-4.72-4.72-7.08-7.08c-0.41-0.41-0.71-0.9-0.45-1.43c0.17-0.35,0.59-0.78,0.94-0.81
				c0.41-0.04,0.97,0.19,1.28,0.49c2.01,1.95,3.98,3.94,5.95,5.93C1019.31,485.98,1019.42,486.21,1019.6,486.47z"/>
		</g>
	</g>
	<g id="SNKbiF_5_" class="st0">
		<g>
			<path class="st3" d="M1019.45,548.53c1.84-1.85,3.53-3.55,5.22-5.25c2.93-2.93,5.86-5.86,8.79-8.79c0.16-0.16,0.32-0.32,0.5-0.45
				c0.51-0.37,1.15-0.31,1.59,0.13c0.41,0.41,0.49,1.05,0.17,1.54c-0.12,0.19-0.28,0.35-0.44,0.5c-4.84,4.85-9.69,9.69-14.54,14.54
				c-0.91,0.91-1.47,0.91-2.38,0c-2.36-2.36-4.72-4.72-7.08-7.08c-0.41-0.41-0.71-0.9-0.45-1.43c0.17-0.35,0.59-0.78,0.94-0.81
				c0.41-0.04,0.97,0.19,1.28,0.49c2.01,1.95,3.98,3.94,5.95,5.93C1019.16,548.04,1019.27,548.27,1019.45,548.53z"/>
		</g>
	</g>
	<path class="st4" d="M1283.12,681.2h-222.84c-8.28,0-15-6.72-15-15v-30.48c0-8.28,6.72-15,15-15h222.84c8.28,0,15,6.72,15,15v30.48
		C1298.12,674.48,1291.4,681.2,1283.12,681.2z"/>
	<g id="Ebene_1_00000050659633582914675200000006363773492731896743_">
		<g id="bvTGEk.tif">
		</g>
		<g>
			<g>
				<g>
					<ellipse class="st6" cx="625.69" cy="198.1" rx="68.89" ry="91.2"/>
					<path class="st7" d="M578.48,130.38c0,0-17.87,25.87-21.81,67.72c0,0-23.94-38.3,2.89-88.11L578.48,130.38z"/>
					<path class="st7" d="M692.37,186.8c0,0-5.27-42.11-27-45.5c-21.72-3.39-61.86,1.67-82.29,0
						c-38.17-3.14-23.06-40.68-20.43-52.24c0,0,59.27-3.43,82.33,2.01c23.06,5.44,73.08,18.79,64.83,95.26
						C709.82,186.34,698.94,175.92,692.37,186.8z"/>
					<path class="st7" d="M706.1,209.74c0,0-15.95,41.81-28.5,48.26c0,0,12.64-29.8,14.27-35.62
						C691.86,222.42,701.78,217.44,706.1,209.74z"/>
					<path class="st6" d="M685.46,186.34c0,0,19.09-10.17,24.36,0c5.27,10.17-7.91,42.11-24.36,35.28
						C668.97,214.84,685.46,186.34,685.46,186.34z"/>
					<g>
						<path class="st8" d="M604.01,200.4c-0.29,4.39-3.64,7.79-7.49,7.53c-3.85-0.25-6.74-4.06-6.45-8.45s3.64-7.79,7.49-7.53
							C601.42,192.24,604.3,196.01,604.01,200.4z"/>
						<path class="st8" d="M648.63,201.91c-0.29,4.39-3.64,7.79-7.49,7.53c-3.85-0.25-6.74-4.06-6.45-8.45s3.64-7.79,7.49-7.53
							C646.03,193.71,648.92,197.51,648.63,201.91z"/>
						<path class="st9" d="M619.66,254.27c-0.54,0-1.09-0.04-1.63-0.08c-10.88-1.05-18.04-12.14-18.33-12.64
							c-0.59-0.92-0.29-2.09,0.59-2.68c0.88-0.59,2.09-0.29,2.68,0.59c0.08,0.08,6.49,10,15.44,10.84
							c4.86,0.46,9.79-1.88,14.57-6.95c0.75-0.8,1.97-0.84,2.76-0.08c0.8,0.75,0.84,1.97,0.08,2.76
							C630.71,251.55,625.27,254.27,619.66,254.27z"/>
						<path class="st7" d="M661.31,173.45c-2.34,0.08-4.06,0.08-5.65,0.04c-1.59-0.08-2.97-0.21-4.35-0.42
							c-1.38-0.17-2.72-0.54-4.27-0.92c-1.55-0.5-3.22-0.88-5.4-1.93c2.3-4.06,6.78-5.44,10.88-4.86c2.05,0.29,4.02,1.21,5.61,2.55
							C659.72,169.26,661.06,171.06,661.31,173.45z"/>
						<path class="st7" d="M591.54,174.49c0.25-2.39,1.59-4.19,3.14-5.57c1.59-1.34,3.56-2.22,5.61-2.55
							c4.1-0.59,8.58,0.8,10.88,4.86c-2.18,1.05-3.85,1.42-5.4,1.93c-1.55,0.38-2.89,0.75-4.27,0.92c-1.38,0.21-2.76,0.33-4.35,0.42
							C595.56,174.58,593.88,174.62,591.54,174.49z"/>
						<path class="st9" d="M621.38,230.12c-2.18,0-5.15-0.33-7.07-2.01c-1.17-1.05-1.8-2.43-1.8-4.06c0-8.2,8.12-12.01,8.5-12.18
							c1-0.42,2.13,0,2.6,0.96c0.46,0.96,0.04,2.13-0.96,2.6c-0.04,0.04-6.19,2.97-6.19,8.62c0,0.63,0.25,0.92,0.46,1.13
							c1.34,1.17,5.02,1.13,6.57,0.92c1.05-0.17,2.05,0.59,2.18,1.67c0.17,1.05-0.59,2.05-1.67,2.18
							C623.72,229.99,622.72,230.12,621.38,230.12z"/>
					</g>
				</g>
			</g>
		</g>
		<g>
			<g>
				<g>
					<path class="st10" d="M467.44,1007.58c20.8-0.5,53.2-3.18,78.9-5.65l0.46-0.42l0.17,0.38c11.64-1.09,21.85-2.13,28.92-2.89
						l0.38-24.28c-26.95,0.42-43.78-5.65-43.78-5.65s-39.3,24.9-54.12,29.76C471.54,1001.05,468.57,1004.53,467.44,1007.58z"/>
					<path class="st11" d="M547,1001.89l4.73,9c12.6,1.88,23.98,0.13,23.98,0.13l0.17-11.97C568.81,999.8,558.6,1000.8,547,1001.89z
						"/>
					<path class="st11" d="M467.14,1014.28c31.18,2.13,69.35-2.89,69.35-2.89l9.84-9.42c-25.7,2.43-58.1,5.15-78.9,5.65
						C466.1,1011.18,467.14,1014.28,467.14,1014.28z"/>
				</g>
				<g>
					<path class="st10" d="M656.62,996.53c34.53-4.69,41.35-19.42,50.1-33.48c2.76-4.44,3.98-9.88,8.5-13.52l0.13-0.59l0.33,0.17
						c8.54-6.86,16.03-12.98,21.18-17.24l-12.26-19.25c-20.93,14.31-42.36,22.1-42.36,22.1s3.18,19.3-4.86,34.57
						c-3.98,7.53-15.9,13.9-18.92,17.7C654.28,992.26,655.95,993.52,656.62,996.53z"/>
					<path class="st11" d="M715.68,949.11l8.37,4.6c10.84-5.02,18.88-12.35,18.88-12.35l-6.07-9.5
						C731.71,936.14,724.22,942.25,715.68,949.11z"/>
					<path class="st11" d="M659.68,1002.68c11.34-3.43,20.63-4.81,31.77-10.13c12.93-9.67,24.57-33.82,24.57-33.82l-0.84-9.25
						c-9.42,7.58-16.87,27.54-27.21,35.54c-12.18,6.49-22.6,8.87-31.39,11.51C657.46,1000.01,659.68,1002.68,659.68,1002.68z"/>
				</g>
				<path class="st12" d="M559.73,545.88c0,0-55.71,129.17,12.56,234.56c15.4,23.77,108.45,162.36,108.45,162.36l48.55-26.62
					c0,0-66.88-119.04-75.59-136.57c-9-18.12-20.51-185.29-25.16-196.51C623.89,571.87,604.72,528.63,559.73,545.88z"/>
				<path class="st12" d="M609.37,572.54c-29.38,30.43-59.31,164.7-63.54,184c-4.27,19.34-24.28,217.23-24.28,217.23l58.18,2.85
					c0,0,32.27-179.68,39.68-194.21s111.25-153.73,101.5-219.87C714.93,521.94,638.42,542.49,609.37,572.54z"/>
			</g>
			<path class="st6" d="M564.58,514.65c-74.75-33.36-131.43-36.5-131.43-36.5l-2.18,23.27c0,0,56.55,18.83,109.95,27.29
				C548.84,529.97,572.83,518.34,564.58,514.65z"/>
			<path class="st13" d="M562.28,543.53c-71.11-6.03-122.18-34.49-122.18-34.49s10.71-28.17,15.32-31.18
				c4.65-3.01,89.4,15.49,124.18,24.07C591.62,504.94,598.95,546.67,562.28,543.53z"/>
			<path class="st13" d="M578.69,311.82c-52.99,16.57-36.46,181.15-30.89,185.34c5.57,4.19,48.22-9.25,50.52-20.76
				C600.58,464.89,620,298.89,578.69,311.82z"/>
			<path class="st14" d="M661.44,299.22c0,0,33.02,4.14,63.87,31.22c0,0-28.75,13.94-6.91,65.75l1.17,150.18
				c0,0-63.08,19.92-161.1-5.65c0,0-17.87-179.81,1.3-209.19C580.99,298.97,617.11,294.2,661.44,299.22z"/>
			<path class="st6" d="M645.15,276.33l5.82,31.64c0,0-9.17,22.48-25.82,22.48s-16.66-22.48-16.66-22.48v-31.64H645.15z"/>
			<polygon class="st15" points="623.01,320.03 637.49,330.57 628.87,347.57 610.96,347.57 608.53,330.57 			"/>
			<path class="st13" d="M623.01,320.03L648,291.73l6.61,7.16l-3.64,44.62C650.97,343.51,629.75,325.51,623.01,320.03z"/>
			<path class="st13" d="M623.01,320.03l-14.48-27.54l-7.66,8.29l-6.86,36.96C593.96,337.73,602.75,335.89,623.01,320.03z"/>
			<path class="st15" d="M610.96,347.57c0,0-25.07,86.56-13.31,162.86l17.66,15.11l18.75-20.38c0,0-19-124.69-5.19-157.59H610.96z"
				/>
			<g>
				<path class="st16" d="M400.43,436.26h-15.44v-9.75c0-0.25,0.21-0.5,0.5-0.5h14.44c0.25,0,0.5,0.21,0.5,0.5V436.26L400.43,436.26
					z"/>
				<polygon class="st16" points="446.72,439.69 373.01,439.69 387.74,530.56 431.98,530.56 				"/>
				<path class="st17" d="M443.83,463.88H375.9c-0.59,0-1,0.54-0.92,1.13l6.7,40.56c0.08,0.46,0.46,0.8,0.92,0.8h54.54
					c0.46,0,0.84-0.33,0.92-0.8l6.7-40.56C444.83,464.43,444.37,463.88,443.83,463.88z"/>
				<path class="st18" d="M422.4,484.14c0-6.91-5.61-12.51-12.51-12.51c-6.91,0-12.51,5.61-12.51,12.51
					c0,6.91,5.61,12.51,12.51,12.51C416.79,496.65,422.4,491.05,422.4,484.14z"/>
				<path class="st16" d="M439.73,438.89H380c-2.13,0-3.85-1.72-3.85-3.85l0,0c0-2.13,1.72-3.85,3.85-3.85h59.73
					c2.13,0,3.85,1.72,3.85,3.85l0,0C443.58,437.18,441.86,438.89,439.73,438.89z"/>
				<path class="st19" d="M419.34,484.14c0-5.23-4.27-9.5-9.5-9.5s-9.5,4.27-9.5,9.5c0,5.23,4.27,9.5,9.5,9.5
					C415.12,493.64,419.34,489.37,419.34,484.14z"/>
				<path class="st17" d="M447.18,444.38h-74.42c-2.6,0-4.69-2.09-4.69-4.69l0,0c0-2.6,2.09-4.69,4.69-4.69h74.42
					c2.6,0,4.65,2.09,4.65,4.69l0,0C451.87,442.28,449.77,444.38,447.18,444.38z"/>
			</g>
			<g>
				<path class="st20" d="M630.88,624.94l189.27,36.87c1.46,0.29,2.8,0.8,4.06,1.51l0,0l0.29,0.17c0.25,0.17,0.54,0.33,0.8,0.5
					l10.92,6.86l-5.11,3.6c0.04,1.09,0,2.18-0.21,3.26l-24.65,126.53c-1.42,7.37-8.54,12.14-15.9,10.71l-182.7-35.62l0.42,4.23
					l-11.34-7.16l0,0c-4.77-2.85-7.49-8.45-6.36-14.23l24.65-126.53C616.4,628.33,623.51,623.52,630.88,624.94z"/>
				<path class="st21" d="M612.34,785.21l189.27,36.87c7.37,1.42,14.48-3.35,15.91-10.72l24.65-126.53
					c1.42-7.37-3.35-14.48-10.71-15.91l-189.27-36.87c-7.37-1.42-14.48,3.35-15.91,10.71L601.62,769.3
					C600.2,776.67,605.01,783.78,612.34,785.21z"/>
				<path class="st14" d="M615.23,699.61c0,0,35.28,28.08,103.88,41.9c68.56,13.81,112,0.17,112,0.17l11.05-56.8
					c1.42-7.37-3.35-14.48-10.71-15.9L642.18,632.1c-7.37-1.42-14.48,3.35-15.91,10.71L615.23,699.61z"/>
				<path class="st22" d="M698.18,746.91l38.26,7.45c5.06,1,9.96-2.3,10.92-7.37l0,0c1-5.06-2.3-9.96-7.37-10.92l-38.26-7.45
					c-5.06-0.96-9.96,2.3-10.92,7.37l0,0C689.86,741.05,693.16,745.94,698.18,746.91z"/>
				<path class="st19" d="M704.96,745.15l25.87,5.06c3.43,0.67,6.74-1.59,7.41-4.98l0,0c0.67-3.43-1.55-6.74-4.98-7.41l-25.87-5.02
					c-3.43-0.67-6.74,1.55-7.41,4.98l0,0C699.31,741.17,701.53,744.48,704.96,745.15z"/>
				<path class="st22" d="M785.91,657.17l21.85,4.27l0.84-4.35c0.42-2.22-1-4.39-3.26-4.86l-13.77-2.68
					c-2.22-0.42-4.39,1.05-4.81,3.26L785.91,657.17z"/>
				<path class="st20" d="M700.74,640.01l8.41,1.63l1.63-8.33c0.54-2.89,3.39-4.81,6.28-4.23l37.5,7.32
					c2.89,0.59,4.81,3.39,4.23,6.28l-1.63,8.33l8.41,1.63l1.63-8.33c1.46-7.53-3.47-14.86-11.01-16.32l-37.5-7.32
					c-7.53-1.46-14.86,3.47-16.32,11.01L700.74,640.01z"/>
				<path class="st22" d="M653.11,631.26l21.85,4.27l0.84-4.35c0.42-2.22-1.05-4.39-3.26-4.86l-13.77-2.68
					c-2.22-0.42-4.39,1-4.86,3.26L653.11,631.26z"/>
			</g>
			<path class="st6" d="M772.73,493.52c1.38,81.83-18,135.19-18,135.19l-22.27-7.16c0,0-1.26-75.59-6.15-111.8
				C725.22,501.84,772.56,484.47,772.73,493.52z"/>
			<path class="st13" d="M700.91,316.76c55.29,5.02,78.56,167.76,74,173.07c-4.56,5.27-45.33,11.43-49.98,0.67
				C720.28,479.7,657.79,312.83,700.91,316.76z"/>
			<path class="st6" d="M751.55,617.49c-3.31-1.46-6.95-1.42-10.46-0.46c0.29-2.13-0.5-3.93-3.43-3.06c-0.08,0-0.13,0.08-0.21,0.13
				c-3.73,0.46-7.12,0.59-10.55,2.55c-2.51,1.42-6.32,3.68-7.79,6.36c-1.26,2.3-0.17,11.72,3.68,8.29c0.5-0.46,0.8-1.17,1.05-1.8
				c0.29-0.71,0.38-1.46,0.54-2.22c0.71-2.68,2.97-3.89,5.61-4.06c0.13,0,0.25,0,0.38,0c-1.72,1.59-3.22,3.31-4.35,5.02
				c-0.25,0.38-5.32,11.89,0.21,13.35c1.76,0.46,3.22-0.29,4.44-1.63c-0.04,1.59,0.59,2.85,2.51,3.1c2.26,0.33,4.02-0.67,5.4-2.26
				c0.17,1.67,1.17,2.89,3.85,2.85c2.47-0.04,4.31-1.59,5.52-3.64c0.17,0.33,0.38,0.67,0.63,1c0.33,0.42,3.14-0.42,3.47-0.71
				C757.28,635.53,760.63,621.51,751.55,617.49z"/>
			<path class="st13" d="M775.2,484.52C782.77,555.5,764.4,611,764.4,611s-38.13-4.19-38.13-9.75c0-14.9-4.94-85.09-3.06-120.88
				C723.84,468.03,771.31,447.94,775.2,484.52z"/>
			<path class="st6" d="M376.02,489.46c0.08-0.29,0.33-0.54,0.67-0.67c-1.38-0.54-2.76-1.34-3.14-2.64
				c-0.5-1.67,0.88-3.14,1.88-4.23c0.04-0.04,0.13-0.08,0.17-0.13c-3.14-0.84-5.99-2.43-6.11-5.36c-0.13-2.76,2.09-4.06,4.86-4.69
				c-1.13-0.38-2.18-0.88-3.06-1.46c-3.6-2.26-1.34-6.45,1.38-8.41c0.46-0.33,0.92-0.33,1.3-0.17c0.13-0.04,0.21-0.08,0.33-0.08
				c3.06-0.17,6.11-0.04,9.17,0.5c2.09,0.38,5.19,0.71,6.86,2.22c3.01,2.64-0.75,5.4-3.43,6.86c3.1,0,6.03,0.84,5.52,4.65
				c-0.33,2.6-1.88,4.31-3.85,5.4c1.51,0.29,2.89,0.8,3.98,1.63c2.8,2.22-0.13,5.32-2.34,6.57c-1.05,0.59-2.18,0.96-3.35,1.13
				c0.21,0.17,0.38,0.33,0.5,0.59c1.05,1.93-1.38,4.14-2.93,4.9C379.75,498.33,374.52,494.56,376.02,489.46z"/>
		</g>
		<g>
			<path class="st10" d="M557.13,535.5c0,0-3.1,13.6-1.72,18.5c0,0,61.28,22.73,165.33,7.2c0,0,2.47-13.35-1.34-17.62
				C719.41,543.57,624.23,556.13,557.13,535.5z"/>
			<path class="st23" d="M588.4,572.04h45.41c0.38,0,0.71-0.33,0.71-0.71v-33.23c0-0.38-0.33-0.71-0.71-0.71H588.4
				c-0.38,0-0.71,0.33-0.71,0.71v33.23C587.69,571.74,588.02,572.04,588.4,572.04z"/>
			<path class="st10" d="M595.72,566.43h30.72c0.25,0,0.46-0.21,0.46-0.46v-22.48c0-0.25-0.21-0.46-0.46-0.46h-30.72
				c-0.25,0-0.46,0.21-0.46,0.46v22.48C595.26,566.22,595.47,566.43,595.72,566.43z"/>
		</g>
	</g>
</g>
</svg>
