<?xml version="1.0" encoding="UTF-8"?>
<svg id="Layer_2" data-name="Layer 2" xmlns="http://www.w3.org/2000/svg" viewBox="0 0 178.83 122.13">
  <defs>
    <style>
      .cls-1, .cls-2 {
        fill: #253d80;
      }

      .cls-3 {
        fill: #242e65;
      }

      .cls-4, .cls-5 {
        fill: #189bd7;
      }

      .cls-6 {
        fill: #fff;
        stroke: #d9d9d8;
      }

      .cls-5, .cls-2 {
        fill-rule: evenodd;
      }
    </style>
  </defs>
  <g id="Layer_1-2" data-name="Layer 1">
    <rect class="cls-6" x=".5" y=".5" width="177.83" height="121.13" rx="14.18" ry="14.18"/>
    <path class="cls-2" d="M50.24,77.77h-8.02c-.55,0-1.02,.4-1.1,.94l-3.24,20.56c-.06,.41,.25,.77,.66,.77h3.83c.55,0,1.02-.4,1.1-.94l.87-5.55c.08-.54,.55-.94,1.1-.94h2.54c5.28,0,8.33-2.56,9.13-7.62,.36-2.22,.01-3.96-1.02-5.18-1.14-1.34-3.16-2.05-5.84-2.05Zm.93,7.51c-.44,2.88-2.64,2.88-4.76,2.88h-1.21l.85-5.37c.05-.32,.33-.56,.66-.56h.55c1.45,0,2.81,0,3.52,.83,.42,.49,.55,1.22,.39,2.24Zm23.04-.09h-3.84c-.33,0-.61,.24-.66,.56l-.17,1.07-.27-.39c-.83-1.21-2.68-1.61-4.54-1.61-4.24,0-7.87,3.21-8.57,7.72-.37,2.25,.15,4.4,1.43,5.9,1.17,1.38,2.84,1.95,4.84,1.95,3.42,0,5.32-2.2,5.32-2.2l-.17,1.07c-.06,.41,.25,.77,.66,.77h3.46c.55,0,1.01-.4,1.1-.94l2.08-13.14c.07-.4-.25-.77-.66-.77Zm-5.35,7.47c-.37,2.19-2.11,3.67-4.33,3.67-1.12,0-2.01-.36-2.58-1.04-.57-.67-.78-1.63-.6-2.7,.35-2.18,2.12-3.7,4.3-3.7,1.09,0,1.98,.36,2.56,1.05,.58,.69,.82,1.65,.65,2.72Zm21.94-7.47h3.86c.54,0,.86,.61,.55,1.05l-12.83,18.53c-.21,.3-.55,.48-.92,.48h-3.85c-.54,0-.86-.61-.55-1.06l4-5.64-4.25-12.47c-.15-.43,.17-.88,.63-.88h3.79c.49,0,.93,.32,1.07,.79l2.26,7.53,5.32-7.84c.21-.31,.55-.49,.92-.49Z"/>
    <path class="cls-5" d="M132.64,99.27l3.29-20.94c.05-.33,.33-.56,.66-.57h3.7c.41,0,.72,.37,.66,.77l-3.25,20.56c-.08,.54-.55,.94-1.1,.94h-3.31c-.41,0-.72-.37-.66-.77Zm-25.2-21.5h-8.02c-.55,0-1.01,.4-1.1,.94l-3.24,20.56c-.06,.41,.25,.77,.66,.77h4.11c.38,0,.71-.28,.77-.66l.92-5.83c.08-.54,.55-.94,1.1-.94h2.54c5.28,0,8.33-2.56,9.13-7.62,.36-2.22,.01-3.96-1.02-5.18-1.14-1.34-3.16-2.05-5.84-2.05Zm.93,7.51c-.44,2.88-2.64,2.88-4.76,2.88h-1.21l.85-5.37c.05-.32,.33-.56,.66-.56h.55c1.45,0,2.81,0,3.52,.83,.42,.49,.55,1.22,.39,2.23Zm23.04-.09h-3.84c-.33,0-.61,.24-.66,.56l-.17,1.07-.27-.39c-.83-1.21-2.68-1.61-4.53-1.61-4.24,0-7.87,3.21-8.57,7.72-.37,2.25,.15,4.4,1.43,5.9,1.17,1.38,2.84,1.95,4.84,1.95,3.42,0,5.31-2.2,5.31-2.2l-.17,1.07c-.06,.41,.25,.77,.66,.77h3.46c.55,0,1.01-.4,1.1-.94l2.08-13.14c.06-.4-.25-.77-.66-.77Zm-5.35,7.47c-.37,2.19-2.11,3.67-4.33,3.67-1.11,0-2.01-.36-2.58-1.04-.57-.67-.78-1.63-.6-2.7,.35-2.18,2.12-3.7,4.3-3.7,1.09,0,1.98,.36,2.56,1.05,.59,.69,.82,1.65,.65,2.72Z"/>
    <path class="cls-1" d="M79.92,70.42l.99-6.26-2.2-.05h-10.49l7.29-46.2c.02-.14,.1-.27,.2-.36,.11-.09,.25-.14,.39-.14h17.68c5.87,0,9.92,1.22,12.04,3.63,.99,1.13,1.62,2.31,1.93,3.61,.32,1.36,.33,3,.01,4.98l-.02,.15v1.27l.99,.56c.84,.44,1.5,.95,2.01,1.53,.85,.97,1.4,2.2,1.63,3.65,.24,1.5,.16,3.28-.23,5.3-.45,2.32-1.18,4.34-2.17,6-.91,1.52-2.07,2.79-3.44,3.77-1.31,.93-2.87,1.64-4.63,2.09-1.71,.44-3.65,.67-5.79,.67h-1.38c-.98,0-1.94,.35-2.69,.99-.75,.65-1.25,1.53-1.4,2.5l-.1,.56-1.74,11.04-.08,.41c-.02,.13-.06,.19-.11,.24-.05,.04-.12,.07-.18,.07h-8.5Z"/>
    <path class="cls-4" d="M109.66,29.92c-.05,.34-.11,.68-.18,1.04-2.33,11.97-10.31,16.11-20.5,16.11h-5.19c-1.25,0-2.3,.9-2.49,2.13l-2.66,16.84-.75,4.77c-.13,.81,.5,1.53,1.31,1.53h9.2c1.09,0,2.01-.79,2.19-1.87l.09-.47,1.73-10.99,.11-.6c.17-1.08,1.1-1.87,2.19-1.87h1.38c8.91,0,15.89-3.62,17.93-14.09,.85-4.37,.41-8.03-1.84-10.6-.68-.77-1.53-1.42-2.52-1.94Z"/>
    <path class="cls-3" d="M107.22,28.94c-.36-.1-.72-.2-1.1-.28-.38-.08-.77-.16-1.17-.22-1.4-.23-2.93-.33-4.57-.33h-13.86c-.34,0-.67,.08-.96,.22-.64,.31-1.11,.91-1.23,1.65l-2.95,18.67-.08,.54c.19-1.23,1.24-2.13,2.49-2.13h5.19c10.19,0,18.17-4.14,20.5-16.11,.07-.35,.13-.7,.18-1.04-.59-.31-1.23-.58-1.92-.81-.17-.06-.34-.11-.52-.16Z"/>
    <path class="cls-1" d="M84.34,29.98c.12-.74,.59-1.35,1.23-1.65,.29-.14,.61-.22,.96-.22h13.86c1.64,0,3.17,.11,4.57,.33,.4,.06,.79,.14,1.17,.22,.38,.08,.74,.18,1.1,.28,.18,.05,.35,.11,.52,.16,.69,.23,1.33,.5,1.92,.81,.69-4.42,0-7.44-2.4-10.16-2.64-3-7.4-4.29-13.49-4.29h-17.68c-1.24,0-2.31,.9-2.5,2.14l-7.36,46.68c-.15,.92,.57,1.76,1.5,1.76h10.92l2.74-17.39,2.95-18.67Z"/>
  </g>
</svg>