<?xml version="1.0" encoding="utf-8"?>
<!-- Generator: Adobe Illustrator 25.4.0, SVG Export Plug-In . SVG Version: 6.00 Build 0)  -->
<svg version="1.1" id="Ebene_1" xmlns="http://www.w3.org/2000/svg" xmlns:xlink="http://www.w3.org/1999/xlink" x="0px" y="0px"
	 viewBox="0 0 226 132" style="enable-background:new 0 0 226 132;" xml:space="preserve">
<style type="text/css">
	.st0{fill:#F8F8F8;stroke:#17813D;stroke-width:4;stroke-miterlimit:10;}
	.st1{fill:#004B54;stroke:#17813D;}
	.st2{fill:none;stroke:#17813D;stroke-width:2;}
	.st3{fill:#004B54;stroke:#17813D;stroke-miterlimit:10;}
</style>
<path class="st0" d="M166,30H30v72h136V30z"/>
<path class="st1" d="M15.9,38.6l3.3-9.1l3.3,9.1H15.9z"/>
<path class="st1" d="M22.6,93.6l-3.3,9.1l-3.3-9.1H22.6z"/>
<path class="st2" d="M19.2,37.1v59"/>
<path class="st3" d="M10.7,72.6c2.4,0,4-1.5,4.3-3.4h-1.7c-0.3,1.2-1.3,1.9-2.6,1.9c-2,0-3.3-1.6-3.3-4.2c0-2.5,1.3-4.1,3.3-4.1
	c1.5,0,2.4,0.9,2.6,1.9H15c-0.3-2-2-3.4-4.3-3.4c-3,0-4.9,2.3-4.9,5.7C5.8,70.3,7.6,72.6,10.7,72.6z"/>
</svg>
