<?xml version="1.0" encoding="utf-8"?>
<!-- Generator: Adobe Illustrator 25.4.0, SVG Export Plug-In . SVG Version: 6.00 Build 0)  -->
<svg version="1.1" id="Ebene_1" xmlns="http://www.w3.org/2000/svg" xmlns:xlink="http://www.w3.org/1999/xlink" x="0px" y="0px"
	 viewBox="0 0 197 153" style="enable-background:new 0 0 197 153;" xml:space="preserve">
<style type="text/css">
	.st0{fill:#F8F8F8;stroke:#17813D;stroke-width:4;stroke-miterlimit:10;}
	.st1{fill:#004B54;stroke:#17813D;}
	.st2{fill:none;stroke:#17813D;stroke-width:2;}
	.st3{fill:#004B54;stroke:#17813D;stroke-miterlimit:10;}
</style>
<path class="st0" d="M162,26H30v70h132V26z"/>
<path class="st1" d="M38.6,110.4l-9.1-3.3l9.1-3.3V110.4z"/>
<path class="st1" d="M153.6,103.7l9.1,3.3l-9.1,3.3V103.7z"/>
<path class="st2" d="M37.1,107h119"/>
<path class="st3" d="M92.1,125.2h1.6v-1.7h0.2c0.4,0.6,1.1,1.9,3.2,1.9c2.7,0,4.6-2.2,4.6-5.7c0-3.4-1.9-5.6-4.7-5.6
	c-2.1,0-2.8,1.3-3.2,1.9h-0.1v-5.4h-1.7V125.2z M93.8,119.8c0-2.4,1.1-4.1,3.1-4.1c2.1,0,3.2,1.8,3.2,4.1c0,2.3-1.1,4.2-3.2,4.2
	C94.9,123.9,93.8,122.2,93.8,119.8z"/>
</svg>
