<svg width="110" height="168" viewBox="0 0 110 168" fill="none" xmlns="http://www.w3.org/2000/svg">
<rect x="20.5" y="20.5" width="69" height="47" rx="5.5" fill="white" stroke="#D9D9D9"/>
<path fill-rule="evenodd" clip-rule="evenodd" d="M59.8213 42.976H62.1131C62.8398 42.9498 63.2817 42.8938 63.4408 42.8062C63.6581 42.6865 63.8039 42.447 63.8765 42.0876C63.9229 41.8484 63.9461 41.4928 63.9461 41.0204C63.9461 40.4417 63.9 40.0128 63.8074 39.7326C63.6751 39.3402 63.3585 39.1011 62.8568 39.0143C62.7577 39.0012 62.5203 38.9942 62.1441 38.9942H59.8213V42.976ZM56.1449 49.6828V36H62.9941C63.9335 36 64.6504 36.0769 65.1429 36.2304C66.2694 36.584 67.0252 37.3079 67.4124 38.402C67.6122 38.9762 67.7121 39.8407 67.7121 40.995C67.7121 42.3829 67.6013 43.3804 67.382 43.9876C66.9427 45.1884 66.0384 45.8801 64.6729 46.0594C64.5123 46.0863 63.8291 46.1104 62.6232 46.1296L62.0129 46.1501H59.8211V49.6828H56.1449ZM37.6852 40.3647H41.1052C41.1273 40.0624 41.1384 39.8364 41.1384 39.6851C41.1384 37.8414 40.3943 36.7194 38.906 36.3189C38.2962 36.155 37.2732 36.0724 35.8378 36.0724C34.9261 36.0724 34.0971 36.1057 33.3499 36.171C32.4519 36.2433 31.7142 36.4855 31.1376 36.898C30.7441 37.1668 30.4589 37.5597 30.2819 38.0773C30.1051 38.5947 30.0166 39.2826 30.0166 40.1405C30.0166 41.2669 30.1803 42.109 30.5076 42.6656C30.8799 43.3206 31.6262 43.7521 32.7459 43.9619C33.1711 44.0348 33.9304 44.11 35.0235 44.1881C36.3847 44.2799 37.1473 44.3523 37.3112 44.4043C37.7495 44.5357 37.9691 44.9023 37.9691 45.5047C37.9691 45.7736 37.9431 45.9934 37.8907 46.1632C37.7921 46.4391 37.5858 46.6384 37.2714 46.7623C37.0948 46.8283 36.6853 46.8612 36.0436 46.8612H34.7864C34.4516 46.8539 34.1669 46.7923 33.9311 46.6749C33.5909 46.5048 33.4204 46.1227 33.4204 45.5286L33.4202 45.4304L33.42 45.244H30C30 46.3574 30.0814 47.1527 30.2458 47.6303C30.5409 48.4881 31.1507 49.0578 32.0757 49.339C32.8294 49.5686 34.1643 49.6828 36.0796 49.6828C37.227 49.6828 38.0801 49.6302 38.6377 49.5249C39.9688 49.2761 40.8242 48.6837 41.205 47.7456C41.4151 47.2343 41.52 46.4276 41.52 45.326C41.52 44.8481 41.4972 44.418 41.4511 44.0379C41.3724 43.4025 41.1256 42.8879 40.7118 42.4941C40.186 41.9895 39.3385 41.6781 38.1696 41.5601C37.8014 41.5207 36.8782 41.4515 35.4 41.3532L34.7103 41.3044C34.4075 41.2848 34.1648 41.2193 33.981 41.1077C33.7244 40.9505 33.5965 40.6225 33.5965 40.1244C33.5965 39.5741 33.741 39.2167 34.0297 39.0524C34.3185 38.8885 34.9105 38.8067 35.8033 38.8067C36.7227 38.8067 37.2845 38.9489 37.488 39.2331C37.6193 39.4252 37.6852 39.8025 37.6852 40.3647ZM30.013 52.3964L30.5257 52.3446C30.5565 52.5177 30.6192 52.6447 30.7134 52.726C30.8079 52.8072 30.9352 52.8477 31.0954 52.8477C31.2651 52.8477 31.3929 52.8117 31.4791 52.7396C31.5651 52.6674 31.608 52.5831 31.608 52.4865C31.608 52.4246 31.5899 52.372 31.554 52.3283C31.5178 52.2848 31.4549 52.2471 31.3649 52.2148C31.3032 52.1937 31.163 52.1558 30.9441 52.1014C30.6622 52.0317 30.4647 51.9457 30.351 51.8436C30.1913 51.7002 30.1114 51.5252 30.1114 51.3187C30.1114 51.1861 30.149 51.0617 30.2244 50.9462C30.2997 50.8305 30.4084 50.7424 30.5501 50.6819C30.6919 50.6215 30.8631 50.5911 31.0636 50.5911C31.3911 50.5911 31.6375 50.6633 31.803 50.8074C31.9686 50.9517 32.0554 51.1441 32.0637 51.3848L31.5356 51.4055C31.513 51.2711 31.4646 51.1745 31.3904 51.1154C31.3163 51.0564 31.2051 51.0269 31.0568 51.0269C30.9037 51.0269 30.784 51.0584 30.6974 51.1215C30.6415 51.1618 30.6137 51.216 30.6137 51.2837C30.6137 51.3456 30.6399 51.3984 30.6921 51.4425C30.7584 51.4983 30.9196 51.5566 31.1758 51.6168C31.4318 51.6773 31.6212 51.7398 31.744 51.8049C31.8667 51.8698 31.9628 51.9586 32.0322 52.0712C32.1015 52.184 32.1363 52.3232 32.1363 52.4888C32.1363 52.6392 32.0947 52.7798 32.0115 52.9109C31.9283 53.0421 31.8108 53.1395 31.6589 53.2033C31.5069 53.267 31.3175 53.2991 31.0906 53.2991C30.7605 53.2991 30.507 53.2222 30.33 53.0685C30.1532 52.9148 30.0474 52.6908 30.013 52.3964ZM32.6838 51.3589H33.1861V53.2523H32.6838V51.3589ZM32.6838 50.6378H33.1861V51.0996H32.6838V50.6378ZM35.0281 53.2522H35.5304V52.0732C35.5304 51.9268 35.5211 51.8142 35.5027 51.7357C35.4843 51.657 35.4517 51.5868 35.4048 51.5249C35.3579 51.463 35.2888 51.412 35.1975 51.3722C35.1062 51.3323 35.0053 51.3122 34.8949 51.3122C34.6447 51.3122 34.4369 51.4205 34.272 51.6371V51.3589H33.806V53.2522H34.3083V52.3929C34.3083 52.1807 34.3209 52.0355 34.3464 51.957C34.3717 51.8783 34.4186 51.8152 34.4872 51.7676C34.5558 51.7199 34.6332 51.696 34.7196 51.696C34.7869 51.696 34.8445 51.7128 34.8924 51.746C34.9403 51.7794 34.9748 51.8263 34.9962 51.8864C35.0174 51.9465 35.0281 52.079 35.0281 52.2838V53.2522ZM36.5462 52.2647C36.5462 52.4663 36.5847 52.6138 36.6619 52.7073C36.739 52.8011 36.8341 52.8477 36.9473 52.8477C37.0684 52.8477 37.1708 52.7998 37.2545 52.7038C37.338 52.6079 37.38 52.4656 37.38 52.2772C37.38 52.0807 37.3398 51.9346 37.2598 51.8391C37.1796 51.7438 37.0785 51.696 36.9561 51.696C36.8371 51.696 36.739 51.743 36.6619 51.8365C36.5847 51.9303 36.5462 52.0728 36.5462 52.2647ZM36.0958 53.3767L36.6653 53.439C36.6749 53.5095 36.697 53.558 36.7314 53.5846C36.7792 53.6224 36.8542 53.6413 36.9566 53.6413C37.0877 53.6413 37.186 53.6218 37.2516 53.5826C37.2955 53.5564 37.329 53.5142 37.3517 53.4559C37.3671 53.4141 37.3749 53.3376 37.3749 53.2257L37.3764 52.9493C37.2282 53.1513 37.0403 53.2522 36.8123 53.2522C36.5579 53.2522 36.3568 53.1447 36.2083 52.9291C36.0918 52.7587 36.0336 52.5466 36.0336 52.293C36.0336 51.9749 36.1098 51.732 36.2625 51.5641C36.4151 51.3962 36.605 51.3122 36.8319 51.3122C37.0658 51.3122 37.2589 51.4153 37.411 51.6212V51.3589H37.8772V53.0609C37.8772 53.2848 37.8588 53.4521 37.8218 53.5627C37.7851 53.6735 37.7333 53.7604 37.6667 53.8234C37.6001 53.8865 37.5113 53.936 37.4001 53.9717C37.2889 54.0074 37.1484 54.0253 36.9785 54.0253C36.6575 54.0253 36.4298 53.9699 36.2954 53.8591C36.161 53.7484 36.0939 53.608 36.0939 53.4378C36.0939 53.4211 36.0946 53.4008 36.0958 53.3767ZM38.9809 50.6378H38.4786V53.2523H38.9809V50.6378ZM40.7298 52.1474C40.7263 52 40.6887 51.8881 40.6169 51.8112C40.5453 51.7345 40.4582 51.696 40.3554 51.696C40.2456 51.696 40.1547 51.7367 40.0832 51.8175C40.0114 51.8984 39.9763 52.0084 39.9774 52.1474H40.7298ZM40.7039 52.6558L41.2011 52.7388C41.1368 52.9212 41.0352 53.0604 40.8965 53.1558C40.7578 53.2514 40.5841 53.2991 40.3758 53.2991C40.0459 53.2991 39.8018 53.191 39.6435 52.975C39.5184 52.8021 39.4559 52.5838 39.4559 52.3198C39.4559 52.0051 39.538 51.7583 39.7024 51.5798C39.8666 51.4014 40.0742 51.3122 40.3253 51.3122C40.6075 51.3122 40.83 51.4059 40.9931 51.5929C41.1562 51.7804 41.2341 52.067 41.2269 52.4535H39.9687C39.9721 52.6025 40.0129 52.7184 40.0908 52.8014C40.1687 52.8841 40.2658 52.9256 40.3821 52.9256C40.4612 52.9256 40.5278 52.9043 40.5816 52.8617C40.6355 52.8192 40.6764 52.7504 40.7039 52.6558ZM42.8704 50.6378V53.2523H44.8538V52.8114H43.3987V52.1007H44.7037V51.6598H43.3987V51.0789H44.8021V50.6378H42.8704ZM46.6492 53.2522V52.9687C46.5801 53.0698 46.4895 53.1501 46.377 53.2097C46.2645 53.2692 46.1458 53.299 46.0208 53.299C45.8934 53.299 45.7794 53.271 45.6782 53.215C45.5771 53.1591 45.5038 53.0804 45.4586 52.9793C45.4133 52.8781 45.3908 52.7381 45.3908 52.5595V51.3589H45.8931V52.2297C45.8931 52.4963 45.9022 52.6596 45.9208 52.7195C45.9392 52.78 45.9726 52.8274 46.0213 52.8626C46.0701 52.8976 46.1317 52.9151 46.2066 52.9151C46.2921 52.9151 46.3689 52.8918 46.4365 52.8447C46.5042 52.7977 46.5505 52.7395 46.5755 52.6697C46.6004 52.6002 46.6129 52.4297 46.6129 52.1585V51.3589H47.1152V53.2522H46.6492ZM47.7168 53.2522H48.2191V52.6668C48.2191 52.3444 48.2332 52.1324 48.2612 52.0313C48.2892 51.9302 48.3276 51.8604 48.3765 51.8215C48.4254 51.783 48.4849 51.7636 48.5553 51.7636C48.6279 51.7636 48.7068 51.791 48.7913 51.8456L48.9441 51.4072C48.8383 51.3439 48.7283 51.3122 48.6143 51.3122C48.5334 51.3122 48.4613 51.3332 48.3977 51.3748C48.3341 51.4167 48.2625 51.501 48.1828 51.6281V51.3589H47.7168V53.2522ZM49.6593 52.3056C49.6593 52.4943 49.7039 52.6386 49.7932 52.7388C49.8826 52.8391 49.9926 52.8892 50.1237 52.8892C50.2546 52.8892 50.3645 52.8391 50.4531 52.7388C50.5418 52.6386 50.5862 52.493 50.5862 52.3021C50.5862 52.116 50.5418 51.9726 50.4531 51.8725C50.3645 51.7722 50.2546 51.7221 50.1237 51.7221C49.9926 51.7221 49.8826 51.7722 49.7932 51.8725C49.7039 51.9726 49.6593 52.1172 49.6593 52.3056ZM49.1467 52.2787C49.1467 52.1117 49.1876 51.95 49.2696 51.7936C49.3515 51.6374 49.4675 51.5181 49.6178 51.4357C49.7679 51.3534 49.9358 51.3122 50.1211 51.3122C50.4072 51.3122 50.6417 51.4055 50.8247 51.5923C51.0075 51.779 51.0989 52.0151 51.0989 52.3003C51.0989 52.5878 51.0065 52.8263 50.8219 53.0154C50.6373 53.2044 50.4048 53.2991 50.1245 53.2991C49.9512 53.2991 49.7858 53.2596 49.6286 53.181C49.4711 53.1022 49.3515 52.9868 49.2696 52.8346C49.1876 52.6824 49.1467 52.4973 49.1467 52.2787ZM53.2626 51.8259V51.0789H53.5165C53.7061 51.0789 53.832 51.0848 53.8948 51.0968C53.98 51.1124 54.0505 51.1512 54.1061 51.2135C54.1618 51.2757 54.1897 51.3548 54.1897 51.4505C54.1897 51.5284 54.1698 51.5966 54.1302 51.6552C54.0906 51.714 54.0357 51.7571 53.9659 51.7847C53.896 51.8122 53.7575 51.8259 53.5503 51.8259H53.2626ZM52.7345 50.6378V53.2523H53.2627V52.2667H53.606C53.8442 52.2667 54.0261 52.2543 54.1519 52.2292C54.2444 52.209 54.3354 52.1678 54.4248 52.1052C54.5143 52.0428 54.5882 51.9568 54.6462 51.8476C54.7044 51.7379 54.7334 51.6031 54.7334 51.4426C54.7334 51.2344 54.683 51.0646 54.5821 50.9333C54.4812 50.8018 54.3561 50.7163 54.2066 50.6771C54.1093 50.6511 53.9004 50.6378 53.58 50.6378H52.7345ZM56.3115 52.3446C56.2473 52.3662 56.1461 52.3917 56.0076 52.4216C55.869 52.4513 55.7784 52.4807 55.7359 52.5093C55.6707 52.5559 55.6383 52.615 55.6383 52.6865C55.6383 52.7571 55.6642 52.8178 55.7162 52.8693C55.7684 52.9206 55.8347 52.9463 55.9154 52.9463C56.0054 52.9463 56.0911 52.9165 56.1729 52.8569C56.2333 52.8114 56.273 52.7559 56.2919 52.6902C56.3048 52.6472 56.3115 52.5654 56.3115 52.4447V52.3446ZM55.6384 51.9347L55.1878 51.8517C55.2389 51.6683 55.3267 51.5327 55.4513 51.4445C55.5761 51.3564 55.7614 51.3122 56.0071 51.3122C56.2303 51.3122 56.3967 51.3388 56.5059 51.3916C56.6151 51.4449 56.6922 51.5121 56.7366 51.5936C56.7812 51.6751 56.8035 51.825 56.8035 52.043L56.7984 52.6289C56.7984 52.7956 56.8064 52.9188 56.8223 52.9978C56.8383 53.077 56.8683 53.1618 56.9123 53.2522H56.4151C56.4018 53.2195 56.3859 53.1709 56.3669 53.1065C56.3586 53.0771 56.3526 53.0579 56.3493 53.0484C56.2638 53.1319 56.1725 53.1946 56.0752 53.2365C55.9779 53.2781 55.8744 53.2991 55.764 53.2991C55.5695 53.2991 55.416 53.2459 55.304 53.14C55.192 53.034 55.1359 52.8998 55.1359 52.7378C55.1359 52.6308 55.1615 52.5351 55.2123 52.4511C55.2635 52.3672 55.3351 52.3027 55.4271 52.2581C55.5192 52.2136 55.652 52.1743 55.8253 52.1409C56.0591 52.0969 56.2212 52.0559 56.3115 52.0177V51.9671C56.3115 51.8695 56.2877 51.7999 56.2399 51.7583C56.1921 51.7168 56.1021 51.696 55.9695 51.696C55.88 51.696 55.8102 51.7138 55.76 51.749C55.7098 51.7843 55.6692 51.8463 55.6384 51.9347ZM57.6974 51.3589H57.1642L57.8849 53.2575C57.855 53.3644 57.8121 53.4526 57.7559 53.522C57.6998 53.591 57.6134 53.6257 57.4963 53.6257C57.4331 53.6257 57.3619 53.6181 57.2832 53.6023L57.3299 53.9949C57.4225 54.0151 57.5173 54.0253 57.6136 54.0253C57.7087 54.0253 57.7941 54.0151 57.8696 53.9947C57.9452 53.9746 58.0085 53.9461 58.0604 53.9097C58.1121 53.8735 58.158 53.8261 58.1977 53.7678C58.2375 53.7094 58.2794 53.6249 58.3235 53.514L59.1113 51.3589H58.5935L58.1507 52.7031L57.6974 51.3589ZM59.5029 51.3589H59.9638V51.6175C60.1293 51.414 60.3264 51.3122 60.555 51.3122C60.6763 51.3122 60.7817 51.3371 60.8711 51.3871C60.9604 51.4372 61.0336 51.5129 61.0906 51.614C61.1738 51.5129 61.2638 51.4372 61.3599 51.3871C61.4564 51.3371 61.5589 51.3122 61.6683 51.3122C61.8075 51.3122 61.9252 51.3405 62.0215 51.3972C62.1177 51.4535 62.1898 51.5367 62.2374 51.6464C62.2717 51.7272 62.2889 51.8582 62.2889 52.0393V53.2522H61.7866V52.1678C61.7866 51.9795 61.7694 51.8582 61.7351 51.8034C61.6887 51.7317 61.6176 51.696 61.5217 51.696C61.4516 51.696 61.3856 51.7174 61.324 51.7604C61.2623 51.8034 61.2179 51.8662 61.1907 51.949C61.1634 52.0317 61.1496 52.1625 61.1496 52.3411V53.2522H60.6473V52.2126C60.6473 52.0277 60.6386 51.9088 60.6207 51.8551C60.6029 51.8014 60.5754 51.7616 60.538 51.7354C60.5005 51.7093 60.45 51.696 60.3858 51.696C60.3088 51.696 60.2394 51.7169 60.1777 51.7586C60.1161 51.8003 60.072 51.8605 60.0451 51.939C60.0185 52.0177 60.0052 52.148 60.0052 52.3303V53.2522H59.5029V51.3589ZM63.9062 51.8112C63.9781 51.8881 64.0156 52 64.0192 52.1474H63.2669C63.2657 52.0084 63.3008 51.8984 63.3726 51.8175C63.444 51.7367 63.535 51.696 63.6447 51.696C63.7474 51.696 63.8348 51.7345 63.9062 51.8112ZM64.4905 52.7388L63.9934 52.6558C63.9659 52.7504 63.9251 52.8192 63.8709 52.8617C63.817 52.9043 63.7506 52.9256 63.6715 52.9256C63.555 52.9256 63.4579 52.8841 63.3802 52.8014C63.3023 52.7184 63.2616 52.6025 63.2579 52.4535H64.5164C64.5235 52.067 64.4454 51.7804 64.2824 51.5929C64.1193 51.4059 63.8969 51.3122 63.6147 51.3122C63.3635 51.3122 63.156 51.4014 62.9916 51.5798C62.8276 51.7583 62.7452 52.0051 62.7452 52.3198C62.7452 52.5838 62.8077 52.8021 62.9328 52.975C63.0912 53.191 63.3353 53.2991 63.6651 53.2991C63.8735 53.2991 64.0471 53.2514 64.1859 53.1558C64.3246 53.0604 64.426 52.9212 64.4905 52.7388ZM66.7517 53.2522H66.2494V52.2838C66.2494 52.079 66.2386 51.9465 66.2176 51.8864C66.1962 51.8263 66.1616 51.7794 66.1137 51.746C66.0658 51.7128 66.0081 51.696 65.9408 51.696C65.8547 51.696 65.7771 51.7199 65.7087 51.7676C65.6401 51.8152 65.5932 51.8783 65.5676 51.957C65.5423 52.0355 65.5295 52.1807 65.5295 52.3929V53.2522H65.0273V51.3589H65.4932V51.6371C65.6583 51.4205 65.8659 51.3122 66.1162 51.3122C66.2265 51.3122 66.3276 51.3323 66.4188 51.3722C66.5101 51.412 66.5793 51.463 66.6262 51.5249C66.6731 51.5868 66.7056 51.657 66.724 51.7357C66.7426 51.8142 66.7517 51.9268 66.7517 52.0732V53.2522ZM68.2338 51.7583V51.3589H67.8919V50.6846L67.3896 50.9802V51.3589H67.1617V51.7583H67.3896V52.5859C67.3896 52.7634 67.3947 52.8814 67.4055 52.9398C67.4184 53.022 67.4416 53.0872 67.4753 53.1354C67.5091 53.1837 67.5619 53.2232 67.6339 53.2534C67.706 53.2838 67.7867 53.2991 67.8766 53.2991C68.023 53.2991 68.154 53.274 68.2699 53.224L68.226 52.8359C68.1395 52.868 68.0738 52.8841 68.0281 52.8841C67.9955 52.8841 67.9679 52.8756 67.9451 52.859C67.9224 52.8422 67.9078 52.8211 67.9015 52.7954C67.895 52.7699 67.8919 52.6794 67.8919 52.5243V51.7583H68.2338ZM68.5162 52.7181L69.0185 52.6402C69.0398 52.737 69.0831 52.8104 69.1482 52.8607C69.2135 52.911 69.3047 52.9359 69.422 52.9359C69.5514 52.9359 69.6487 52.912 69.7138 52.8641C69.7577 52.8305 69.7798 52.7858 69.7798 52.7294C69.7798 52.6912 69.7677 52.6593 69.7438 52.6344C69.7186 52.6103 69.6626 52.5883 69.5754 52.5678C69.1696 52.478 68.9122 52.3962 68.8039 52.3223C68.6534 52.2199 68.5783 52.0773 68.5783 51.8952C68.5783 51.7306 68.6431 51.5923 68.7732 51.4804C68.9035 51.3683 69.1051 51.3122 69.3784 51.3122C69.6386 51.3122 69.8318 51.3542 69.9584 51.4381C70.0848 51.5221 70.172 51.6461 70.2199 51.8102L69.7486 51.8984C69.7282 51.8248 69.6894 51.7682 69.6324 51.7291C69.5753 51.6897 69.4939 51.6701 69.3883 51.6701C69.2551 51.6701 69.1595 51.6886 69.102 51.7259C69.0634 51.7521 69.0443 51.7862 69.0443 51.828C69.0443 51.864 69.0609 51.8946 69.0944 51.9198C69.1396 51.9532 69.2962 52.0005 69.5638 52.0616C69.8315 52.1226 70.0184 52.1973 70.1246 52.2858C70.2293 52.3755 70.282 52.5004 70.282 52.6606C70.282 52.8351 70.2095 52.9852 70.0648 53.1107C69.9198 53.2363 69.7057 53.2991 69.422 53.2991C69.1646 53.2991 68.9608 53.2468 68.8107 53.1427C68.6605 53.0383 68.5624 52.897 68.5162 52.7181ZM72.9742 51.25L73.3391 52.2201H72.6216L72.9742 51.25ZM73.739 53.2523H74.3078L73.2538 50.6378H72.6983L71.6873 53.2523H72.2463L72.4613 52.661H73.5133L73.739 53.2523ZM75.1698 53.2522H74.6676V51.3589H75.1335V51.6281C75.2133 51.501 75.2847 51.4167 75.3485 51.3748C75.4119 51.3332 75.484 51.3122 75.5651 51.3122C75.6791 51.3122 75.7889 51.3439 75.8948 51.4072L75.742 51.8456C75.6574 51.791 75.5787 51.7636 75.5061 51.7636C75.4355 51.7636 75.376 51.783 75.3271 51.8215C75.2782 51.8604 75.2398 51.9302 75.2119 52.0313C75.1838 52.1324 75.1698 52.3444 75.1698 52.6668V53.2522ZM77.2326 51.8112C77.3042 51.8881 77.3418 52 77.3454 52.1474H76.5931C76.5918 52.0084 76.6271 51.8984 76.6988 51.8175C76.7704 51.7367 76.861 51.696 76.9711 51.696C77.0737 51.696 77.1608 51.7345 77.2326 51.8112ZM77.8167 52.7388L77.3195 52.6558C77.2919 52.7504 77.2511 52.8192 77.1972 52.8617C77.1432 52.9043 77.0768 52.9256 76.9975 52.9256C76.8814 52.9256 76.7843 52.8841 76.7062 52.8014C76.6285 52.7184 76.5877 52.6025 76.5841 52.4535H77.8425C77.8496 52.067 77.7716 51.7804 77.6087 51.5929C77.4455 51.4059 77.2229 51.3122 76.9409 51.3122C76.6898 51.3122 76.482 51.4014 76.3179 51.5798C76.1536 51.7583 76.0714 52.0051 76.0714 52.3198C76.0714 52.5838 76.1338 52.8021 76.259 52.975C76.4172 53.191 76.6615 53.2991 76.9914 53.2991C77.1997 53.2991 77.3734 53.2514 77.5121 53.1558C77.6508 53.0604 77.7524 52.9212 77.8167 52.7388ZM79.3995 52.3446C79.3356 52.3662 79.2342 52.3917 79.0956 52.4216C78.9571 52.4513 78.8666 52.4807 78.824 52.5093C78.7587 52.5559 78.7264 52.615 78.7264 52.6865C78.7264 52.7571 78.7523 52.8178 78.8045 52.8693C78.8565 52.9206 78.9228 52.9463 79.0035 52.9463C79.0935 52.9463 79.1791 52.9165 79.261 52.8569C79.3213 52.8114 79.3611 52.7559 79.38 52.6902C79.3929 52.6472 79.3995 52.5654 79.3995 52.4447V52.3446ZM78.7263 51.9347L78.2758 51.8517C78.3268 51.6683 78.4146 51.5327 78.5392 51.4445C78.664 51.3564 78.8493 51.3122 79.0951 51.3122C79.3183 51.3122 79.4846 51.3388 79.5939 51.3916C79.7031 51.4449 79.7801 51.5121 79.8245 51.5936C79.8691 51.6751 79.8915 51.825 79.8915 52.043L79.8863 52.6289C79.8863 52.7956 79.8943 52.9188 79.9102 52.9978C79.9263 53.077 79.9563 53.1618 80 53.2522H79.503C79.4898 53.2195 79.474 53.1709 79.4548 53.1065C79.4467 53.0771 79.4406 53.0579 79.4373 53.0484C79.3517 53.1319 79.2606 53.1946 79.1633 53.2365C79.0661 53.2781 78.9623 53.2991 78.8519 53.2991C78.6574 53.2991 78.5039 53.2459 78.3919 53.14C78.2801 53.034 78.2241 52.8998 78.2241 52.7378C78.2241 52.6308 78.2494 52.5351 78.3004 52.4511C78.3515 52.3672 78.4231 52.3027 78.515 52.2581C78.6072 52.2136 78.7399 52.1743 78.9133 52.1409C79.1471 52.0969 79.3092 52.0559 79.3995 52.0177V51.9671C79.3995 51.8695 79.3756 51.7999 79.3279 51.7583C79.2802 51.7168 79.19 51.696 79.0574 51.696C78.9679 51.696 78.8982 51.7138 78.848 51.749C78.7979 51.7843 78.7572 51.8463 78.7263 51.9347ZM73.1067 38.7212L74.8292 44.6524H71.4351L73.1067 38.7212ZM70.6442 47.318H75.5594L76.2607 49.6828H79.9844L75.8299 36H70.2844L66.1803 49.6828H69.9838L70.6442 47.318Z" fill="#10298E"/>
<path fill-rule="evenodd" clip-rule="evenodd" d="M51.0708 37.925C52.5871 37.925 53.9404 38.6247 54.8299 39.7206L55.6224 38.0187C54.383 36.8452 52.6962 36.1218 50.8357 36.1218C47.939 36.1218 45.461 37.8742 44.4441 40.3549H42.8988L41.9863 42.3143H43.9742C43.9593 42.4961 43.9497 42.678 43.9497 42.8636C43.9497 43.0882 43.9613 43.3101 43.9835 43.5294H42.9844L42.0722 45.4895H44.4914C45.5374 47.9074 47.9844 49.6049 50.8357 49.6049C52.2726 49.6049 53.6059 49.1737 54.7099 48.437V46.0348C53.8209 47.0487 52.5205 47.6895 51.0708 47.6895C49.3762 47.6895 47.8856 46.8142 47.0176 45.4895H52.0837L52.9959 43.5294H46.2722C46.2376 43.2935 46.219 43.0525 46.219 42.807C46.219 42.641 46.2276 42.4767 46.2436 42.3143H53.5614L54.4736 40.3549H46.8764C47.7166 38.9024 49.2801 37.925 51.0708 37.925Z" fill="#FFBE00"/>
<rect x="20.5" y="88.5" width="34" height="23" rx="3.5" fill="white" stroke="#D9D9D9"/>
<path fill-rule="evenodd" clip-rule="evenodd" d="M39.9106 99.488H41.0565C41.4199 99.4749 41.6409 99.447 41.7204 99.4031C41.829 99.3433 41.9019 99.2235 41.9382 99.0438C41.9614 98.9242 41.973 98.7464 41.973 98.5102C41.973 98.2209 41.95 98.0064 41.9037 97.8663C41.8376 97.6701 41.6792 97.5506 41.4284 97.5072C41.3789 97.5006 41.2601 97.4972 41.072 97.4972H39.9106V99.488ZM38.0724 102.841V96H41.497C41.9667 96 42.3252 96.0384 42.5714 96.1152C43.1347 96.292 43.5126 96.6539 43.7062 97.201C43.8061 97.4881 43.8561 97.9203 43.8561 98.4975C43.8561 99.1915 43.8006 99.6902 43.691 99.9938C43.4714 100.594 43.0192 100.94 42.3365 101.03C42.2562 101.043 41.9145 101.055 41.3116 101.065L41.0064 101.075H39.9105V102.841H38.0724ZM28.8426 98.1824H30.5526C30.5636 98.0313 30.5692 97.9182 30.5692 97.8426C30.5692 96.9208 30.1972 96.3598 29.453 96.1595C29.1481 96.0776 28.6366 96.0362 27.9189 96.0362C27.463 96.0362 27.0486 96.0529 26.675 96.0855C26.226 96.1217 25.8571 96.2428 25.5688 96.4491C25.372 96.5834 25.2294 96.7799 25.1409 97.0387C25.0525 97.2974 25.0083 97.6413 25.0083 98.0703C25.0083 98.6335 25.0901 99.0546 25.2538 99.3329C25.44 99.6604 25.8131 99.8761 26.373 99.981C26.5856 100.017 26.9652 100.055 27.5117 100.094C28.1923 100.14 28.5736 100.176 28.6556 100.202C28.8748 100.268 28.9845 100.451 28.9845 100.752C28.9845 100.887 28.9715 100.997 28.9453 101.082C28.896 101.22 28.7929 101.319 28.6357 101.381C28.5474 101.414 28.3426 101.431 28.0218 101.431H27.3932C27.2258 101.427 27.0835 101.396 26.9655 101.338C26.7954 101.252 26.7102 101.061 26.7102 100.764L26.71 100.622H25C25 101.179 25.0407 101.576 25.1229 101.815C25.2704 102.244 25.5754 102.529 26.0379 102.67C26.4147 102.784 27.0821 102.841 28.0398 102.841C28.6135 102.841 29.0401 102.815 29.3189 102.763C29.9844 102.638 30.4121 102.342 30.6025 101.873C30.7076 101.617 30.76 101.214 30.76 100.663C30.76 100.424 30.7486 100.209 30.7255 100.019C30.6862 99.7013 30.5628 99.444 30.3559 99.2471C30.093 98.9948 29.6693 98.8391 29.0848 98.7801C28.9007 98.7604 28.4391 98.7258 27.7 98.6767L27.3551 98.6523C27.2038 98.6425 27.0824 98.6097 26.9905 98.5539C26.8622 98.4753 26.7983 98.3113 26.7983 98.0622C26.7983 97.7871 26.8705 97.6084 27.0148 97.5262C27.1593 97.4443 27.4552 97.4034 27.9017 97.4034C28.3614 97.4034 28.6423 97.4745 28.744 97.6166C28.8096 97.7126 28.8426 97.9013 28.8426 98.1824ZM25.0065 104.198L25.2629 104.172C25.2783 104.259 25.3096 104.322 25.3567 104.363C25.404 104.404 25.4676 104.424 25.5477 104.424C25.6326 104.424 25.6965 104.406 25.7395 104.37C25.7825 104.334 25.804 104.291 25.804 104.243C25.804 104.212 25.795 104.186 25.777 104.164C25.7589 104.142 25.7274 104.123 25.6825 104.107C25.6516 104.097 25.5815 104.078 25.4721 104.051C25.3311 104.016 25.2324 103.973 25.1755 103.922C25.0957 103.85 25.0557 103.763 25.0557 103.659C25.0557 103.593 25.0745 103.531 25.1122 103.473C25.1498 103.415 25.2042 103.371 25.275 103.341C25.346 103.311 25.4316 103.295 25.5318 103.295C25.6955 103.295 25.8188 103.332 25.9015 103.404C25.9843 103.476 26.0277 103.572 26.0319 103.692L25.7678 103.703C25.7565 103.635 25.7323 103.587 25.6952 103.558C25.6582 103.528 25.6026 103.513 25.5284 103.513C25.4519 103.513 25.392 103.529 25.3487 103.561C25.3208 103.581 25.3069 103.608 25.3069 103.642C25.3069 103.673 25.32 103.699 25.3461 103.721C25.3792 103.749 25.4598 103.778 25.5879 103.808C25.7159 103.839 25.8106 103.87 25.872 103.902C25.9333 103.935 25.9814 103.979 26.0161 104.036C26.0508 104.092 26.0682 104.161 26.0682 104.244C26.0682 104.32 26.0474 104.39 26.0058 104.455C25.9642 104.521 25.9054 104.57 25.8294 104.602C25.7535 104.633 25.6588 104.649 25.5453 104.649C25.3803 104.649 25.2535 104.611 25.165 104.534C25.0766 104.457 25.0237 104.345 25.0065 104.198ZM26.3419 103.679H26.593V104.626H26.3419V103.679ZM26.3419 103.319H26.593V103.55H26.3419V103.319ZM27.5141 104.626H27.7652V104.037C27.7652 103.963 27.7606 103.907 27.7514 103.868C27.7422 103.829 27.7259 103.794 27.7024 103.763C27.679 103.732 27.6444 103.706 27.5988 103.686C27.5531 103.666 27.5026 103.656 27.4475 103.656C27.3223 103.656 27.2184 103.71 27.136 103.819V103.68H26.903V104.626H27.1541V104.197C27.1541 104.09 27.1604 104.018 27.1732 103.979C27.1859 103.939 27.2093 103.908 27.2436 103.884C27.2779 103.86 27.3166 103.848 27.3598 103.848C27.3934 103.848 27.4223 103.857 27.4462 103.873C27.4702 103.89 27.4874 103.913 27.4981 103.943C27.5087 103.973 27.5141 104.04 27.5141 104.142V104.626ZM28.2731 104.132C28.2731 104.233 28.2923 104.307 28.3309 104.354C28.3695 104.401 28.417 104.424 28.4736 104.424C28.5342 104.424 28.5854 104.4 28.6272 104.352C28.669 104.304 28.69 104.233 28.69 104.139C28.69 104.04 28.6699 103.967 28.6299 103.92C28.5898 103.872 28.5392 103.848 28.478 103.848C28.4185 103.848 28.3695 103.872 28.3309 103.918C28.2923 103.965 28.2731 104.037 28.2731 104.132ZM28.0479 104.688L28.3326 104.72C28.3375 104.755 28.3485 104.779 28.3657 104.792C28.3896 104.811 28.4271 104.821 28.4783 104.821C28.5438 104.821 28.593 104.811 28.6258 104.791C28.6478 104.778 28.6645 104.757 28.6758 104.728C28.6835 104.707 28.6874 104.669 28.6874 104.613L28.6882 104.475C28.6141 104.576 28.5202 104.626 28.4061 104.626C28.279 104.626 28.1784 104.572 28.1041 104.465C28.0459 104.379 28.0168 104.273 28.0168 104.147C28.0168 103.988 28.0549 103.866 28.1312 103.782C28.2075 103.698 28.3025 103.656 28.4159 103.656C28.5329 103.656 28.6294 103.708 28.7055 103.811V103.68H28.9386V104.531C28.9386 104.643 28.9294 104.726 28.9109 104.781C28.8925 104.837 28.8667 104.88 28.8334 104.912C28.8 104.943 28.7556 104.968 28.7 104.986C28.6444 105.004 28.5742 105.013 28.4892 105.013C28.3288 105.013 28.2149 104.985 28.1477 104.93C28.0805 104.874 28.047 104.804 28.047 104.719C28.047 104.711 28.0473 104.701 28.0479 104.688ZM29.4904 103.319H29.2393V104.626H29.4904V103.319ZM30.3649 104.074C30.3631 104 30.3443 103.944 30.3085 103.906C30.2727 103.867 30.2291 103.848 30.1777 103.848C30.1228 103.848 30.0774 103.868 30.0416 103.909C30.0057 103.949 29.9881 104.004 29.9887 104.074H30.3649ZM30.352 104.328L30.6005 104.37C30.5684 104.461 30.5176 104.53 30.4483 104.578C30.3789 104.626 30.2921 104.65 30.1879 104.65C30.0229 104.65 29.9009 104.596 29.8218 104.488C29.7592 104.401 29.728 104.292 29.728 104.16C29.728 104.003 29.769 103.879 29.8512 103.79C29.9333 103.701 30.0371 103.656 30.1626 103.656C30.3038 103.656 30.415 103.703 30.4966 103.797C30.5781 103.89 30.617 104.034 30.6135 104.227H29.9843C29.9861 104.301 30.0065 104.359 30.0454 104.401C30.0843 104.442 30.1329 104.463 30.1911 104.463C30.2306 104.463 30.2639 104.452 30.2908 104.431C30.3178 104.41 30.3382 104.375 30.352 104.328ZM31.4352 103.319V104.626H32.4269V104.406H31.6993V104.05H32.3518V103.83H31.6993V103.539H32.4011V103.319H31.4352ZM33.3246 104.626V104.484C33.2901 104.535 33.2447 104.575 33.1885 104.605C33.1322 104.635 33.0729 104.649 33.0104 104.649C32.9467 104.649 32.8897 104.635 32.8391 104.608C32.7885 104.58 32.7519 104.54 32.7293 104.49C32.7067 104.439 32.6954 104.369 32.6954 104.28V103.679H32.9465V104.115C32.9465 104.248 32.9511 104.33 32.9604 104.36C32.9696 104.39 32.9863 104.414 33.0107 104.431C33.035 104.449 33.0659 104.458 33.1033 104.458C33.1461 104.458 33.1844 104.446 33.2182 104.422C33.2521 104.399 33.2752 104.37 33.2877 104.335C33.3002 104.3 33.3065 104.215 33.3065 104.079V103.679H33.5576V104.626H33.3246ZM33.8584 104.626H34.1095V104.334C34.1095 104.172 34.1166 104.066 34.1306 104.016C34.1446 103.965 34.1638 103.93 34.1882 103.911C34.2127 103.892 34.2424 103.882 34.2776 103.882C34.3139 103.882 34.3534 103.896 34.3956 103.923L34.472 103.704C34.4192 103.672 34.3641 103.656 34.3071 103.656C34.2667 103.656 34.2307 103.667 34.1988 103.688C34.167 103.708 34.1312 103.751 34.0914 103.814V103.68H33.8584V104.626ZM34.8297 104.153C34.8297 104.247 34.852 104.32 34.8966 104.37C34.9413 104.42 34.9963 104.445 35.0618 104.445C35.1273 104.445 35.1822 104.42 35.2266 104.37C35.2709 104.32 35.2931 104.247 35.2931 104.151C35.2931 104.058 35.2709 103.987 35.2266 103.936C35.1822 103.886 35.1273 103.861 35.0618 103.861C34.9963 103.861 34.9413 103.886 34.8966 103.936C34.852 103.987 34.8297 104.059 34.8297 104.153ZM34.5733 104.139C34.5733 104.056 34.5938 103.975 34.6348 103.897C34.6757 103.819 34.7337 103.759 34.8089 103.718C34.884 103.677 34.9679 103.656 35.0605 103.656C35.2036 103.656 35.3209 103.703 35.4123 103.796C35.5037 103.89 35.5495 104.008 35.5495 104.15C35.5495 104.294 35.5032 104.413 35.4109 104.508C35.3186 104.602 35.2024 104.65 35.0623 104.65C34.9756 104.65 34.8929 104.63 34.8143 104.591C34.7356 104.551 34.6757 104.494 34.6348 104.417C34.5938 104.341 34.5733 104.249 34.5733 104.139ZM36.6313 103.913V103.54H36.7583C36.8531 103.54 36.916 103.543 36.9474 103.549C36.99 103.556 37.0252 103.576 37.0531 103.607C37.0809 103.638 37.0948 103.678 37.0948 103.725C37.0948 103.764 37.0849 103.798 37.0651 103.828C37.0453 103.857 37.0179 103.879 36.983 103.892C36.948 103.906 36.8787 103.913 36.7752 103.913H36.6313ZM36.3673 103.319V104.626H36.6313V104.133H36.803C36.9221 104.133 37.0131 104.127 37.0759 104.115C37.1222 104.105 37.1677 104.084 37.2124 104.053C37.2572 104.021 37.2941 103.978 37.3231 103.924C37.3522 103.869 37.3667 103.802 37.3667 103.721C37.3667 103.617 37.3415 103.532 37.291 103.467C37.2406 103.401 37.178 103.358 37.1033 103.339C37.0547 103.326 36.9502 103.319 36.79 103.319H36.3673ZM38.1558 104.172C38.1237 104.183 38.0731 104.196 38.0038 104.211C37.9345 104.226 37.8892 104.241 37.868 104.255C37.8353 104.278 37.8192 104.308 37.8192 104.343C37.8192 104.379 37.8321 104.409 37.8581 104.435C37.8842 104.46 37.9174 104.473 37.9577 104.473C38.0027 104.473 38.0456 104.458 38.0865 104.429C38.1166 104.406 38.1365 104.378 38.146 104.345C38.1524 104.324 38.1558 104.283 38.1558 104.223V104.172ZM37.8192 103.967L37.5939 103.926C37.6194 103.834 37.6634 103.766 37.7257 103.722C37.7881 103.678 37.8807 103.656 38.0036 103.656C38.1152 103.656 38.1984 103.67 38.253 103.696C38.3076 103.723 38.3461 103.756 38.3683 103.797C38.3906 103.838 38.4018 103.913 38.4018 104.022L38.3992 104.315C38.3992 104.398 38.4032 104.459 38.4111 104.499C38.4192 104.539 38.4342 104.581 38.4561 104.626H38.2076C38.2009 104.61 38.193 104.586 38.1835 104.553C38.1793 104.539 38.1763 104.529 38.1747 104.524C38.1319 104.566 38.0863 104.597 38.0376 104.618C37.989 104.639 37.9372 104.65 37.882 104.65C37.7847 104.65 37.708 104.623 37.652 104.57C37.596 104.517 37.568 104.45 37.568 104.369C37.568 104.315 37.5807 104.268 37.6062 104.226C37.6318 104.184 37.6676 104.151 37.7136 104.129C37.7596 104.107 37.826 104.087 37.9127 104.071C38.0296 104.049 38.1106 104.028 38.1558 104.009V103.984C38.1558 103.935 38.1438 103.9 38.12 103.879C38.096 103.859 38.051 103.848 37.9848 103.848C37.94 103.848 37.9051 103.857 37.88 103.875C37.8549 103.892 37.8346 103.923 37.8192 103.967ZM38.8487 103.679H38.5821L38.9424 104.629C38.9275 104.682 38.906 104.726 38.878 104.761C38.8499 104.795 38.8067 104.813 38.7481 104.813C38.7166 104.813 38.6809 104.809 38.6416 104.801L38.6649 104.997C38.7113 105.008 38.7586 105.013 38.8068 105.013C38.8543 105.013 38.897 105.008 38.9348 104.997C38.9726 104.987 39.0042 104.973 39.0302 104.955C39.056 104.937 39.079 104.913 39.0989 104.884C39.1187 104.855 39.1397 104.812 39.1617 104.757L39.5557 103.679H39.2967L39.0753 104.352L38.8487 103.679ZM39.7515 103.68H39.9819V103.809C40.0647 103.707 40.1632 103.656 40.2775 103.656C40.3382 103.656 40.3909 103.669 40.4355 103.694C40.4802 103.719 40.5168 103.757 40.5453 103.807C40.5869 103.757 40.6319 103.719 40.68 103.694C40.7282 103.669 40.7795 103.656 40.8342 103.656C40.9038 103.656 40.9626 103.67 41.0107 103.699C41.0589 103.727 41.0949 103.768 41.1187 103.823C41.1358 103.864 41.1445 103.929 41.1445 104.02V104.626H40.8933V104.084C40.8933 103.99 40.8847 103.929 40.8675 103.902C40.8443 103.866 40.8088 103.848 40.7608 103.848C40.7258 103.848 40.6928 103.859 40.662 103.88C40.6311 103.902 40.6089 103.933 40.5954 103.975C40.5817 104.016 40.5748 104.081 40.5748 104.171V104.626H40.3237V104.106C40.3237 104.014 40.3193 103.955 40.3103 103.928C40.3015 103.901 40.2877 103.881 40.269 103.868C40.2503 103.855 40.225 103.848 40.1929 103.848C40.1544 103.848 40.1197 103.859 40.0888 103.879C40.058 103.9 40.036 103.93 40.0226 103.97C40.0092 104.009 40.0026 104.074 40.0026 104.165V104.626H39.7515V103.68ZM41.9531 103.906C41.9891 103.944 42.0078 104 42.0096 104.074H41.6334C41.6329 104.004 41.6504 103.949 41.6863 103.909C41.722 103.868 41.7675 103.848 41.8223 103.848C41.8737 103.848 41.9174 103.867 41.9531 103.906ZM42.2453 104.37L41.9967 104.328C41.9829 104.375 41.9626 104.41 41.9355 104.431C41.9085 104.452 41.8753 104.463 41.8358 104.463C41.7775 104.463 41.729 104.442 41.6901 104.401C41.6512 104.359 41.6308 104.301 41.629 104.227H42.2582C42.2618 104.034 42.2227 103.89 42.1412 103.797C42.0597 103.703 41.9485 103.656 41.8074 103.656C41.6817 103.656 41.578 103.701 41.4958 103.79C41.4138 103.879 41.3726 104.003 41.3726 104.16C41.3726 104.292 41.4038 104.401 41.4664 104.488C41.5456 104.596 41.6677 104.65 41.8325 104.65C41.9368 104.65 42.0235 104.626 42.093 104.578C42.1623 104.53 42.213 104.461 42.2453 104.37ZM43.3759 104.626H43.1247V104.142C43.1247 104.04 43.1193 103.973 43.1088 103.943C43.0981 103.913 43.0808 103.89 43.0569 103.873C43.0329 103.857 43.0041 103.848 42.9704 103.848C42.9274 103.848 42.8886 103.86 42.8544 103.884C42.8201 103.908 42.7966 103.939 42.7838 103.979C42.7712 104.018 42.7648 104.09 42.7648 104.197V104.626H42.5136V103.68H42.7466V103.819C42.8292 103.71 42.933 103.656 43.0581 103.656C43.1133 103.656 43.1638 103.666 43.2094 103.686C43.2551 103.706 43.2897 103.732 43.3131 103.763C43.3366 103.794 43.3528 103.829 43.362 103.868C43.3713 103.907 43.3759 103.963 43.3759 104.037V104.626ZM44.1169 103.879V103.679H43.9459V103.342L43.6948 103.49V103.679H43.5809V103.879H43.6948V104.293C43.6948 104.382 43.6974 104.441 43.7028 104.47C43.7092 104.511 43.7208 104.544 43.7376 104.568C43.7545 104.592 43.781 104.612 43.8169 104.627C43.853 104.642 43.8933 104.65 43.9383 104.65C44.0115 104.65 44.077 104.637 44.1349 104.612L44.113 104.418C44.0697 104.434 44.0369 104.442 44.0141 104.442C43.9977 104.442 43.984 104.438 43.9725 104.43C43.9612 104.421 43.9539 104.411 43.9507 104.398C43.9475 104.385 43.9459 104.34 43.9459 104.262V103.879H44.1169ZM44.2581 104.359L44.5092 104.32C44.5199 104.369 44.5415 104.405 44.5741 104.43C44.6068 104.456 44.6523 104.468 44.711 104.468C44.7757 104.468 44.8243 104.456 44.8569 104.432C44.8789 104.415 44.8899 104.393 44.8899 104.365C44.8899 104.346 44.8838 104.33 44.8719 104.317C44.8593 104.305 44.8313 104.294 44.7877 104.284C44.5848 104.239 44.4561 104.198 44.4019 104.161C44.3267 104.11 44.2892 104.039 44.2892 103.948C44.2892 103.865 44.3216 103.796 44.3866 103.74C44.4517 103.684 44.5526 103.656 44.6892 103.656C44.8193 103.656 44.9159 103.677 44.9792 103.719C45.0424 103.761 45.086 103.823 45.11 103.905L44.8743 103.949C44.8641 103.913 44.8447 103.884 44.8162 103.865C44.7876 103.845 44.747 103.835 44.6942 103.835C44.6276 103.835 44.5797 103.844 44.551 103.863C44.5317 103.876 44.5222 103.893 44.5222 103.914C44.5222 103.932 44.5304 103.947 44.5472 103.96C44.5698 103.977 44.6481 104 44.7819 104.031C44.9157 104.061 45.0092 104.099 45.0623 104.143C45.1147 104.188 45.141 104.25 45.141 104.33C45.141 104.418 45.1047 104.493 45.0324 104.555C44.9599 104.618 44.8528 104.65 44.711 104.65C44.5823 104.65 44.4804 104.623 44.4053 104.571C44.3303 104.519 44.2812 104.449 44.2581 104.359ZM46.4871 103.625L46.6696 104.11H46.3108L46.4871 103.625ZM46.8695 104.626H47.1539L46.6269 103.319H46.3491L45.8436 104.626H46.1231L46.2307 104.331H46.7566L46.8695 104.626ZM47.5849 104.626H47.3338V103.68H47.5668V103.814C47.6066 103.751 47.6423 103.708 47.6742 103.688C47.706 103.667 47.742 103.656 47.7825 103.656C47.8395 103.656 47.8945 103.672 47.9474 103.704L47.871 103.923C47.8287 103.896 47.7893 103.882 47.753 103.882C47.7177 103.882 47.688 103.892 47.6636 103.911C47.6391 103.93 47.6199 103.965 47.606 104.016C47.5919 104.066 47.5849 104.172 47.5849 104.334V104.626ZM48.6163 103.906C48.6521 103.944 48.6709 104 48.6727 104.074H48.2966C48.2959 104.004 48.3135 103.949 48.3494 103.909C48.3852 103.868 48.4305 103.848 48.4856 103.848C48.5368 103.848 48.5804 103.867 48.6163 103.906ZM48.9083 104.37L48.6598 104.328C48.6459 104.375 48.6256 104.41 48.5986 104.431C48.5716 104.452 48.5384 104.463 48.4988 104.463C48.4407 104.463 48.3921 104.442 48.3531 104.401C48.3143 104.359 48.2939 104.301 48.2921 104.227H48.9213C48.9248 104.034 48.8858 103.89 48.8044 103.797C48.7227 103.703 48.6115 103.656 48.4704 103.656C48.3449 103.656 48.241 103.701 48.159 103.79C48.0768 103.879 48.0357 104.003 48.0357 104.16C48.0357 104.292 48.0669 104.401 48.1295 104.488C48.2086 104.596 48.3307 104.65 48.4957 104.65C48.5999 104.65 48.6867 104.626 48.7561 104.578C48.8254 104.53 48.8762 104.461 48.9083 104.37ZM49.6997 104.172C49.6678 104.183 49.6171 104.196 49.5478 104.211C49.4785 104.226 49.4333 104.241 49.412 104.255C49.3793 104.278 49.3632 104.308 49.3632 104.343C49.3632 104.379 49.3761 104.409 49.4022 104.435C49.4282 104.46 49.4614 104.473 49.5017 104.473C49.5467 104.473 49.5896 104.458 49.6305 104.429C49.6606 104.406 49.6805 104.378 49.69 104.345C49.6964 104.324 49.6997 104.283 49.6997 104.223V104.172ZM49.3632 103.967L49.1379 103.926C49.1634 103.834 49.2073 103.766 49.2696 103.722C49.332 103.678 49.4246 103.656 49.5475 103.656C49.6591 103.656 49.7423 103.67 49.7969 103.696C49.8515 103.723 49.8901 103.756 49.9123 103.797C49.9345 103.838 49.9457 103.913 49.9457 104.022L49.9432 104.315C49.9432 104.398 49.9471 104.459 49.9551 104.499C49.9631 104.539 49.9781 104.581 50 104.626H49.7515C49.7449 104.61 49.737 104.586 49.7274 104.553C49.7233 104.539 49.7203 104.529 49.7186 104.524C49.6759 104.566 49.6303 104.597 49.5817 104.618C49.533 104.639 49.4812 104.65 49.426 104.65C49.3287 104.65 49.252 104.623 49.196 104.57C49.14 104.517 49.112 104.45 49.112 104.369C49.112 104.315 49.1247 104.268 49.1502 104.226C49.1757 104.184 49.2115 104.151 49.2575 104.129C49.3036 104.107 49.37 104.087 49.4566 104.071C49.5735 104.049 49.6546 104.028 49.6997 104.009V103.984C49.6997 103.935 49.6878 103.9 49.6639 103.879C49.6401 103.859 49.595 103.848 49.5287 103.848C49.484 103.848 49.4491 103.857 49.424 103.875C49.399 103.892 49.3786 103.923 49.3632 103.967ZM46.5533 97.3606L47.4146 100.326H45.7176L46.5533 97.3606ZM45.3221 101.659H47.7797L48.1304 102.841H49.9922L47.9149 96H45.1422L43.0901 102.841H44.9919L45.3221 101.659Z" fill="#10298E"/>
<path fill-rule="evenodd" clip-rule="evenodd" d="M35.5354 96.9626C36.2936 96.9626 36.9702 97.3125 37.415 97.8604L37.8112 97.0094C37.1915 96.4227 36.3481 96.061 35.4178 96.061C33.9695 96.061 32.7305 96.9372 32.222 98.1776H31.4494L30.9932 99.1573H31.9871C31.9797 99.2482 31.9749 99.3391 31.9749 99.4319C31.9749 99.5442 31.9807 99.6552 31.9918 99.7648H31.4922L31.0361 100.745H32.2457C32.7687 101.954 33.9922 102.803 35.4178 102.803C36.1363 102.803 36.803 102.587 37.355 102.219V101.018C36.9104 101.524 36.2603 101.845 35.5354 101.845C34.6881 101.845 33.9428 101.407 33.5088 100.745H36.0418L36.498 99.7648H33.1361C33.1188 99.6469 33.1095 99.5264 33.1095 99.4036C33.1095 99.3206 33.1138 99.2385 33.1218 99.1573H36.7807L37.2368 98.1776H33.4382C33.8583 97.4513 34.6401 96.9626 35.5354 96.9626Z" fill="#FFBE00"/>
<rect x="20.5" y="132.5" width="22" height="15" rx="2" fill="white" stroke="#D9D9D9"/>
<path fill-rule="evenodd" clip-rule="evenodd" d="M33.084 139.659H33.8371C34.0758 139.65 34.2211 139.631 34.2733 139.602C34.3447 139.562 34.3926 139.482 34.4165 139.363C34.4317 139.283 34.4393 139.164 34.4393 139.007C34.4393 138.814 34.4242 138.671 34.3938 138.578C34.3503 138.447 34.2463 138.367 34.0814 138.338C34.0489 138.334 33.9709 138.331 33.8473 138.331H33.084V139.659ZM31.8761 141.894V137.333H34.1265C34.4352 137.333 34.6708 137.359 34.8326 137.41C35.2027 137.528 35.4511 137.769 35.5783 138.134C35.6439 138.325 35.6768 138.614 35.6768 138.998C35.6768 139.461 35.6403 139.793 35.5683 139.996C35.424 140.396 35.1268 140.627 34.6782 140.686C34.6254 140.695 34.4009 140.703 34.0047 140.71L33.8041 140.717H33.084V141.894H31.8761ZM25.8108 138.788H26.9345C26.9418 138.688 26.9454 138.612 26.9454 138.562C26.9454 137.947 26.7009 137.573 26.2119 137.44C26.0115 137.385 25.6754 137.358 25.2038 137.358C24.9042 137.358 24.6318 137.369 24.3863 137.39C24.0913 137.415 23.8489 137.495 23.6594 137.633C23.5301 137.722 23.4364 137.853 23.3783 138.026C23.3202 138.198 23.2911 138.428 23.2911 138.714C23.2911 139.089 23.3449 139.37 23.4524 139.555C23.5748 139.774 23.82 139.917 24.1879 139.987C24.3276 140.012 24.5771 140.037 24.9362 140.063C25.3835 140.093 25.634 140.118 25.6879 140.135C25.8319 140.179 25.9041 140.301 25.9041 140.502C25.9041 140.591 25.8955 140.665 25.8783 140.721C25.8459 140.813 25.7781 140.88 25.6748 140.921C25.6168 140.943 25.4822 140.954 25.2714 140.954H24.8583C24.7483 140.951 24.6548 140.931 24.5773 140.892C24.4655 140.835 24.4095 140.708 24.4095 140.51L24.4094 140.415H23.2856C23.2856 140.786 23.3124 141.051 23.3664 141.21C23.4634 141.496 23.6637 141.686 23.9677 141.78C24.2153 141.856 24.6539 141.894 25.2832 141.894C25.6602 141.894 25.9405 141.877 26.1238 141.842C26.5611 141.759 26.8422 141.561 26.9673 141.249C27.0363 141.078 27.0708 140.809 27.0708 140.442C27.0708 140.283 27.0633 140.139 27.0481 140.013C27.0223 139.801 26.9412 139.629 26.8052 139.498C26.6325 139.33 26.354 139.226 25.9699 139.187C25.849 139.174 25.5456 139.151 25.0599 139.118L24.8333 139.102C24.7338 139.095 24.6541 139.073 24.5937 139.036C24.5094 138.984 24.4674 138.874 24.4674 138.708C24.4674 138.525 24.5148 138.406 24.6097 138.351C24.7046 138.296 24.8991 138.269 25.1925 138.269C25.4945 138.269 25.6791 138.316 25.746 138.411C25.7891 138.475 25.8108 138.601 25.8108 138.788ZM23.29 142.799L23.4585 142.781C23.4686 142.839 23.4892 142.882 23.5201 142.909C23.5512 142.936 23.593 142.949 23.6457 142.949C23.7014 142.949 23.7434 142.937 23.7717 142.913C23.8 142.889 23.8141 142.861 23.8141 142.829C23.8141 142.808 23.8081 142.791 23.7963 142.776C23.7844 142.762 23.7638 142.749 23.7342 142.738C23.7139 142.731 23.6679 142.719 23.5959 142.7C23.5033 142.677 23.4384 142.649 23.4011 142.615C23.3486 142.567 23.3223 142.508 23.3223 142.44C23.3223 142.395 23.3347 142.354 23.3595 142.315C23.3842 142.277 23.4199 142.247 23.4665 142.227C23.5131 142.207 23.5693 142.197 23.6352 142.197C23.7428 142.197 23.8238 142.221 23.8781 142.269C23.9325 142.317 23.9611 142.381 23.9638 142.462L23.7903 142.468C23.7829 142.424 23.767 142.391 23.7426 142.372C23.7182 142.352 23.6817 142.342 23.633 142.342C23.5827 142.342 23.5433 142.353 23.5149 142.374C23.4965 142.387 23.4874 142.405 23.4874 142.428C23.4874 142.449 23.496 142.466 23.5131 142.481C23.5349 142.499 23.5879 142.519 23.6721 142.539C23.7562 142.559 23.8184 142.58 23.8588 142.602C23.8991 142.623 23.9306 142.653 23.9535 142.69C23.9762 142.728 23.9876 142.774 23.9876 142.83C23.9876 142.88 23.974 142.927 23.9466 142.97C23.9193 143.014 23.8807 143.046 23.8308 143.068C23.7808 143.089 23.7186 143.1 23.6441 143.1C23.5356 143.1 23.4523 143.074 23.3941 143.023C23.3361 142.972 23.3013 142.897 23.29 142.799ZM24.1674 142.453H24.3325V143.084H24.1674V142.453ZM24.1674 142.213H24.3325V142.367H24.1674V142.213ZM24.9377 143.084H25.1028V142.691C25.1028 142.642 25.0997 142.605 25.0937 142.579C25.0876 142.552 25.0769 142.529 25.0615 142.508C25.0461 142.488 25.0234 142.471 24.9934 142.457C24.9634 142.444 24.9302 142.437 24.894 142.437C24.8118 142.437 24.7435 142.474 24.6893 142.546V142.453H24.5362V143.084H24.7012V142.798C24.7012 142.727 24.7054 142.679 24.7137 142.652C24.7221 142.626 24.7375 142.605 24.76 142.589C24.7826 142.573 24.808 142.565 24.8364 142.565C24.8585 142.565 24.8774 142.571 24.8932 142.582C24.9089 142.593 24.9202 142.609 24.9272 142.629C24.9342 142.649 24.9377 142.693 24.9377 142.761V143.084ZM25.4366 142.755C25.4366 142.822 25.4492 142.871 25.4746 142.903C25.4999 142.934 25.5311 142.949 25.5683 142.949C25.6081 142.949 25.6418 142.933 25.6693 142.901C25.6967 142.869 25.7105 142.822 25.7105 142.759C25.7105 142.694 25.6973 142.645 25.671 142.613C25.6447 142.581 25.6114 142.565 25.5712 142.565C25.5321 142.565 25.4999 142.581 25.4746 142.612C25.4492 142.643 25.4366 142.691 25.4366 142.755ZM25.2885 143.126L25.4757 143.146C25.4788 143.17 25.4861 143.186 25.4974 143.195C25.5131 143.208 25.5377 143.214 25.5714 143.214C25.6145 143.214 25.6468 143.207 25.6683 143.194C25.6827 143.186 25.6937 143.171 25.7012 143.152C25.7063 143.138 25.7088 143.113 25.7088 143.075L25.7093 142.983C25.6606 143.051 25.5989 143.084 25.524 143.084C25.4404 143.084 25.3743 143.048 25.3255 142.976C25.2872 142.92 25.2681 142.849 25.2681 142.764C25.2681 142.658 25.2932 142.577 25.3433 142.521C25.3935 142.465 25.4559 142.437 25.5304 142.437C25.6073 142.437 25.6707 142.472 25.7207 142.54V142.453H25.8739V143.02C25.8739 143.095 25.8678 143.151 25.8557 143.188C25.8436 143.225 25.8266 143.254 25.8047 143.275C25.7828 143.296 25.7536 143.312 25.7171 143.324C25.6806 143.336 25.6344 143.342 25.5786 143.342C25.4731 143.342 25.3983 143.323 25.3541 143.286C25.31 143.25 25.2879 143.203 25.2879 143.146C25.2879 143.14 25.2881 143.134 25.2885 143.126ZM26.2365 142.213H26.0715V143.084H26.2365V142.213ZM26.8111 142.716C26.81 142.667 26.7976 142.629 26.7741 142.604C26.7505 142.578 26.7219 142.565 26.6881 142.565C26.652 142.565 26.6222 142.579 26.5987 142.606C26.5751 142.633 26.5636 142.67 26.5639 142.716H26.8111ZM26.8027 142.885L26.966 142.913C26.9449 142.974 26.9115 143.02 26.8659 143.052C26.8204 143.084 26.7633 143.1 26.6948 143.1C26.5864 143.1 26.5062 143.064 26.4542 142.992C26.4131 142.934 26.3926 142.861 26.3926 142.773C26.3926 142.668 26.4196 142.586 26.4736 142.527C26.5275 142.467 26.5958 142.437 26.6782 142.437C26.771 142.437 26.8441 142.469 26.8977 142.531C26.9513 142.594 26.9768 142.689 26.9745 142.818H26.5611C26.5622 142.868 26.5756 142.906 26.6012 142.934C26.6268 142.961 26.6587 142.975 26.6969 142.975C26.7229 142.975 26.7448 142.968 26.7625 142.954C26.7802 142.94 26.7936 142.917 26.8027 142.885ZM27.5145 142.213V143.084H28.1662V142.937H27.6881V142.7H28.1169V142.553H27.6881V142.36H28.1492V142.213H27.5145ZM28.7561 143.084V142.99C28.7334 143.023 28.7036 143.05 28.6667 143.07C28.6297 143.09 28.5907 143.1 28.5496 143.1C28.5078 143.1 28.4703 143.09 28.437 143.072C28.4038 143.053 28.3798 143.027 28.3649 142.993C28.35 142.959 28.3426 142.913 28.3426 142.853V142.453H28.5077V142.743C28.5077 142.832 28.5107 142.887 28.5168 142.907C28.5228 142.927 28.5338 142.943 28.5498 142.954C28.5658 142.966 28.5861 142.972 28.6107 142.972C28.6388 142.972 28.664 142.964 28.6862 142.948C28.7085 142.933 28.7237 142.913 28.7319 142.89C28.7401 142.867 28.7442 142.81 28.7442 142.72V142.453H28.9092V143.084H28.7561ZM29.1069 143.084H29.2719V142.889C29.2719 142.782 29.2765 142.711 29.2857 142.677C29.2949 142.643 29.3076 142.62 29.3236 142.607C29.3397 142.594 29.3592 142.588 29.3824 142.588C29.4062 142.588 29.4321 142.597 29.4599 142.615L29.5101 142.469C29.4754 142.448 29.4392 142.437 29.4018 142.437C29.3752 142.437 29.3515 142.444 29.3306 142.458C29.3097 142.472 29.2862 142.5 29.26 142.543V142.453H29.1069V143.084ZM29.7451 142.769C29.7451 142.832 29.7598 142.88 29.7891 142.913C29.8185 142.947 29.8546 142.963 29.8977 142.963C29.9407 142.963 29.9768 142.947 30.006 142.913C30.0351 142.88 30.0497 142.831 30.0497 142.768C30.0497 142.705 30.0351 142.658 30.006 142.624C29.9768 142.591 29.9407 142.574 29.8977 142.574C29.8546 142.574 29.8185 142.591 29.7891 142.624C29.7598 142.658 29.7451 142.706 29.7451 142.769ZM29.5767 142.76C29.5767 142.704 29.5901 142.65 29.6171 142.598C29.644 142.546 29.6821 142.506 29.7315 142.479C29.7808 142.451 29.836 142.437 29.8968 142.437C29.9909 142.437 30.0679 142.469 30.128 142.531C30.1881 142.593 30.2182 142.672 30.2182 142.767C30.2182 142.863 30.1878 142.942 30.1271 143.005C30.0665 143.068 29.9901 143.1 29.898 143.1C29.841 143.1 29.7867 143.087 29.735 143.06C29.6833 143.034 29.644 142.996 29.6171 142.945C29.5901 142.894 29.5767 142.833 29.5767 142.76ZM30.9291 142.609V142.36H31.0125C31.0748 142.36 31.1162 142.362 31.1368 142.366C31.1648 142.371 31.188 142.384 31.2063 142.405C31.2245 142.425 31.2337 142.452 31.2337 142.484C31.2337 142.51 31.2272 142.532 31.2141 142.552C31.2011 142.571 31.1831 142.586 31.1602 142.595C31.1372 142.604 31.0917 142.609 31.0236 142.609H30.9291ZM30.7556 142.213V143.084H30.9291V142.756H31.0419C31.1202 142.756 31.1799 142.752 31.2213 142.743C31.2517 142.736 31.2815 142.723 31.311 142.702C31.3404 142.681 31.3646 142.652 31.3837 142.616C31.4028 142.579 31.4123 142.534 31.4123 142.481C31.4123 142.412 31.3958 142.355 31.3626 142.311C31.3295 142.267 31.2884 142.239 31.2392 142.226C31.2073 142.217 31.1386 142.213 31.0334 142.213H30.7556ZM31.9308 142.782C31.9098 142.789 31.8765 142.797 31.831 142.807C31.7855 142.817 31.7557 142.827 31.7417 142.837C31.7203 142.852 31.7097 142.872 31.7097 142.896C31.7097 142.919 31.7182 142.939 31.7353 142.957C31.7524 142.974 31.7742 142.982 31.8007 142.982C31.8303 142.982 31.8584 142.972 31.8853 142.952C31.9051 142.937 31.9182 142.919 31.9244 142.897C31.9287 142.883 31.9308 142.855 31.9308 142.815V142.782ZM31.7097 142.645L31.5616 142.617C31.5784 142.556 31.6073 142.511 31.6482 142.482C31.6892 142.452 31.7501 142.437 31.8308 142.437C31.9042 142.437 31.9589 142.446 31.9947 142.464C32.0306 142.482 32.0559 142.504 32.0705 142.531C32.0852 142.558 32.0925 142.608 32.0925 142.681L32.0908 142.876C32.0908 142.932 32.0935 142.973 32.0987 142.999C32.104 143.026 32.1138 143.054 32.1282 143.084H31.9649C31.9605 143.073 31.9553 143.057 31.9491 143.036C31.9463 143.026 31.9444 143.019 31.9433 143.016C31.9152 143.044 31.8852 143.065 31.8532 143.079C31.8213 143.093 31.7872 143.1 31.751 143.1C31.687 143.1 31.6366 143.082 31.5998 143.047C31.563 143.011 31.5446 142.967 31.5446 142.913C31.5446 142.877 31.553 142.845 31.5697 142.817C31.5865 142.789 31.6101 142.768 31.6403 142.753C31.6705 142.738 31.7142 142.725 31.7711 142.714C31.8479 142.699 31.9012 142.685 31.9309 142.673V142.656C31.9309 142.623 31.923 142.6 31.9073 142.586C31.8916 142.572 31.862 142.565 31.8185 142.565C31.7891 142.565 31.7662 142.571 31.7497 142.583C31.7332 142.595 31.7198 142.615 31.7097 142.645ZM32.3862 142.453H32.211L32.4478 143.086C32.438 143.122 32.4239 143.151 32.4054 143.174C32.387 143.197 32.3586 143.209 32.3201 143.209C32.2994 143.209 32.276 143.206 32.2501 143.201L32.2655 143.332C32.2959 143.338 32.327 143.342 32.3587 143.342C32.3899 143.342 32.418 143.338 32.4428 143.332C32.4676 143.325 32.4884 143.315 32.5055 143.303C32.5225 143.291 32.5375 143.275 32.5506 143.256C32.5637 143.237 32.5774 143.208 32.5919 143.171L32.8508 142.453H32.6806L32.5351 142.901L32.3862 142.453ZM32.9795 142.453H33.1309V142.539C33.1853 142.471 33.25 142.437 33.3251 142.437C33.365 142.437 33.3996 142.446 33.429 142.462C33.4583 142.479 33.4824 142.504 33.5011 142.538C33.5285 142.504 33.558 142.479 33.5896 142.462C33.6213 142.446 33.655 142.437 33.6909 142.437C33.7367 142.437 33.7753 142.447 33.807 142.466C33.8386 142.485 33.8623 142.512 33.8779 142.549C33.8892 142.576 33.8948 142.619 33.8948 142.68V143.084H33.7298V142.723C33.7298 142.66 33.7242 142.619 33.7129 142.601C33.6976 142.577 33.6743 142.565 33.6428 142.565C33.6197 142.565 33.598 142.573 33.5778 142.587C33.5575 142.601 33.5429 142.622 33.534 142.65C33.525 142.677 33.5205 142.721 33.5205 142.78V143.084H33.3555V142.738C33.3555 142.676 33.3526 142.636 33.3467 142.618C33.3409 142.601 33.3318 142.587 33.3195 142.579C33.3072 142.57 33.2906 142.565 33.2696 142.565C33.2442 142.565 33.2214 142.572 33.2012 142.586C33.1809 142.6 33.1664 142.62 33.1576 142.646C33.1488 142.673 33.1445 142.716 33.1445 142.777V143.084H32.9795V142.453ZM34.4262 142.604C34.4499 142.629 34.4622 142.667 34.4634 142.716H34.2162C34.2158 142.67 34.2273 142.633 34.2509 142.606C34.2744 142.579 34.3043 142.565 34.3403 142.565C34.3741 142.565 34.4028 142.578 34.4262 142.604ZM34.6182 142.913L34.4549 142.885C34.4459 142.917 34.4325 142.94 34.4147 142.954C34.397 142.968 34.3751 142.975 34.3492 142.975C34.3109 142.975 34.279 142.961 34.2534 142.934C34.2278 142.906 34.2144 142.868 34.2132 142.818H34.6267C34.6291 142.689 34.6034 142.594 34.5499 142.531C34.4963 142.469 34.4232 142.437 34.3305 142.437C34.2479 142.437 34.1798 142.467 34.1257 142.527C34.0718 142.586 34.0448 142.668 34.0448 142.773C34.0448 142.861 34.0653 142.934 34.1064 142.992C34.1585 143.064 34.2387 143.1 34.347 143.1C34.4155 143.1 34.4725 143.084 34.5182 143.052C34.5637 143.02 34.5971 142.974 34.6182 142.913ZM35.3612 143.084H35.1962V142.761C35.1962 142.693 35.1926 142.649 35.1857 142.629C35.1787 142.609 35.1673 142.593 35.1516 142.582C35.1358 142.571 35.1169 142.565 35.0948 142.565C35.0665 142.565 35.041 142.573 35.0185 142.589C34.996 142.605 34.9805 142.626 34.9722 142.652C34.9638 142.679 34.9596 142.727 34.9596 142.798V143.084H34.7946V142.453H34.9477V142.546C35.0019 142.474 35.0702 142.437 35.1524 142.437C35.1886 142.437 35.2219 142.444 35.2518 142.457C35.2818 142.471 35.3046 142.488 35.32 142.508C35.3354 142.529 35.3461 142.552 35.3521 142.579C35.3582 142.605 35.3612 142.642 35.3612 142.691V143.084ZM35.8482 142.586V142.453H35.7358V142.228L35.5708 142.327V142.453H35.4959V142.586H35.5708V142.862C35.5708 142.921 35.5725 142.96 35.576 142.98C35.5803 143.007 35.5879 143.029 35.599 143.045C35.6101 143.061 35.6274 143.074 35.6511 143.084C35.6747 143.095 35.7013 143.1 35.7308 143.1C35.7789 143.1 35.822 143.091 35.86 143.075L35.8456 142.945C35.8172 142.956 35.7956 142.961 35.7806 142.961C35.7699 142.961 35.7608 142.959 35.7533 142.953C35.7459 142.947 35.7411 142.94 35.739 142.932C35.7369 142.923 35.7358 142.893 35.7358 142.841V142.586H35.8482ZM35.941 142.906L36.106 142.88C36.113 142.912 36.1272 142.937 36.1486 142.954C36.1701 142.97 36.2 142.979 36.2386 142.979C36.2811 142.979 36.3131 142.971 36.3345 142.955C36.3489 142.944 36.3561 142.929 36.3561 142.91C36.3561 142.897 36.3522 142.887 36.3443 142.878C36.336 142.87 36.3176 142.863 36.289 142.856C36.1556 142.826 36.0711 142.799 36.0355 142.774C35.986 142.74 35.9614 142.693 35.9614 142.632C35.9614 142.577 35.9827 142.531 36.0254 142.494C36.0682 142.456 36.1345 142.437 36.2243 142.437C36.3097 142.437 36.3732 142.451 36.4148 142.479C36.4564 142.507 36.485 142.549 36.5007 142.603L36.3459 142.633C36.3392 142.608 36.3265 142.589 36.3077 142.576C36.2889 142.563 36.2622 142.557 36.2275 142.557C36.1837 142.557 36.1523 142.563 36.1334 142.575C36.1207 142.584 36.1145 142.595 36.1145 142.609C36.1145 142.621 36.1199 142.632 36.1309 142.64C36.1458 142.651 36.1972 142.667 36.2852 142.687C36.3731 142.708 36.4345 142.733 36.4694 142.762C36.5039 142.792 36.5212 142.834 36.5212 142.887C36.5212 142.945 36.4973 142.995 36.4498 143.037C36.4021 143.079 36.3318 143.1 36.2386 143.1C36.154 143.1 36.087 143.082 36.0377 143.048C35.9884 143.013 35.9561 142.966 35.941 142.906ZM37.4057 142.417L37.5256 142.74H37.2899L37.4057 142.417ZM37.657 143.084H37.8439L37.4976 142.213H37.3151L36.9829 143.084H37.1666L37.2372 142.887H37.5829L37.657 143.084ZM38.1272 143.084H37.9621V142.453H38.1152V142.543C38.1414 142.5 38.1649 142.472 38.1859 142.458C38.2067 142.444 38.2304 142.437 38.257 142.437C38.2945 142.437 38.3306 142.448 38.3654 142.469L38.3152 142.615C38.2874 142.597 38.2615 142.588 38.2376 142.588C38.2144 142.588 38.1949 142.594 38.1788 142.607C38.1628 142.62 38.1501 142.643 38.141 142.677C38.1317 142.711 38.1272 142.782 38.1272 142.889V143.084ZM38.8049 142.604C38.8284 142.629 38.8408 142.667 38.842 142.716H38.5948C38.5944 142.67 38.606 142.633 38.6295 142.606C38.6531 142.579 38.6828 142.565 38.719 142.565C38.7527 142.565 38.7813 142.578 38.8049 142.604ZM38.9968 142.913L38.8335 142.885C38.8244 142.917 38.811 142.94 38.7933 142.954C38.7756 142.968 38.7537 142.975 38.7277 142.975C38.6895 142.975 38.6576 142.961 38.632 142.934C38.6064 142.906 38.593 142.868 38.5918 142.818H39.0053C39.0077 142.689 38.982 142.594 38.9285 142.531C38.8749 142.469 38.8017 142.437 38.7091 142.437C38.6266 142.437 38.5583 142.467 38.5044 142.527C38.4504 142.586 38.4234 142.668 38.4234 142.773C38.4234 142.861 38.4439 142.934 38.485 142.992C38.537 143.064 38.6173 143.1 38.7257 143.1C38.7941 143.1 38.8512 143.084 38.8968 143.052C38.9423 143.02 38.9757 142.974 38.9968 142.913ZM39.5169 142.782C39.4959 142.789 39.4626 142.797 39.4171 142.807C39.3715 142.817 39.3418 142.827 39.3278 142.837C39.3064 142.852 39.2957 142.872 39.2957 142.896C39.2957 142.919 39.3042 142.939 39.3214 142.957C39.3385 142.974 39.3603 142.982 39.3868 142.982C39.4163 142.982 39.4445 142.972 39.4714 142.952C39.4912 142.937 39.5043 142.919 39.5105 142.897C39.5147 142.883 39.5169 142.855 39.5169 142.815V142.782ZM39.2957 142.645L39.1477 142.617C39.1645 142.556 39.1933 142.511 39.2343 142.482C39.2753 142.452 39.3361 142.437 39.4169 142.437C39.4902 142.437 39.5449 142.446 39.5808 142.464C39.6167 142.482 39.642 142.504 39.6566 142.531C39.6712 142.558 39.6786 142.608 39.6786 142.681L39.6769 142.876C39.6769 142.932 39.6795 142.973 39.6847 142.999C39.69 143.026 39.6999 143.054 39.7142 143.084H39.5509C39.5466 143.073 39.5414 143.057 39.5351 143.036C39.5324 143.026 39.5304 143.019 39.5293 143.016C39.5012 143.044 39.4713 143.065 39.4393 143.079C39.4074 143.093 39.3733 143.1 39.337 143.1C39.2731 143.1 39.2227 143.082 39.1859 143.047C39.1491 143.011 39.1307 142.967 39.1307 142.913C39.1307 142.877 39.139 142.845 39.1558 142.817C39.1726 142.789 39.1961 142.768 39.2263 142.753C39.2566 142.738 39.3002 142.725 39.3571 142.714C39.434 142.699 39.4872 142.685 39.5169 142.673V142.656C39.5169 142.623 39.5091 142.6 39.4934 142.586C39.4777 142.572 39.4481 142.565 39.4045 142.565C39.3751 142.565 39.3522 142.571 39.3357 142.583C39.3193 142.595 39.3059 142.615 39.2957 142.645ZM37.4493 138.24L38.0152 140.218H36.9L37.4493 138.24ZM36.6401 141.106H38.2552L38.4856 141.894H39.7091L38.344 137.333H36.5219L35.1734 141.894H36.4232L36.6401 141.106Z" fill="#10298E"/>
<path fill-rule="evenodd" clip-rule="evenodd" d="M30.209 137.975C30.7072 137.975 31.1519 138.208 31.4442 138.574L31.7045 138.006C31.2973 137.615 30.7431 137.374 30.1318 137.374C29.18 137.374 28.3658 137.958 28.0317 138.785H27.5239L27.2241 139.438H27.8773C27.8724 139.499 27.8692 139.559 27.8692 139.621C27.8692 139.696 27.873 139.77 27.8803 139.843H27.5521L27.2523 140.497H28.0472C28.3909 141.303 29.1949 141.868 30.1318 141.868C30.6039 141.868 31.042 141.725 31.4047 141.479V140.678C31.1126 141.016 30.6854 141.23 30.209 141.23C29.6522 141.23 29.1625 140.938 28.8773 140.497H30.5418L30.8416 139.843H28.6323C28.621 139.765 28.6149 139.684 28.6149 139.602C28.6149 139.547 28.6177 139.492 28.6229 139.438H31.0273L31.3271 138.785H28.8309C29.1069 138.301 29.6207 137.975 30.209 137.975Z" fill="#FFBE00"/>
<rect x="0.5" y="0.5" width="109" height="167" rx="4.5" stroke="#7B61FF" stroke-dasharray="10 5"/>
</svg>
