<?xml version="1.0" encoding="utf-8"?>
<!-- Generator: Adobe Illustrator 25.4.0, SVG Export Plug-In . SVG Version: 6.00 Build 0)  -->
<svg version="1.1" id="Ebene_1" xmlns="http://www.w3.org/2000/svg" xmlns:xlink="http://www.w3.org/1999/xlink" x="0px" y="0px"
	 viewBox="0 0 230 147" style="enable-background:new 0 0 230 147;" xml:space="preserve">
<style type="text/css">
	.st0{fill:#F8F8F8;stroke:#17813D;stroke-width:4;stroke-miterlimit:10;}
	.st1{fill:#17813D;stroke:#17813D;}
	.st2{fill:#17813D;stroke:#17813D;stroke-width:2;}
	.st3{fill:#17813D;stroke:#17813D;stroke-miterlimit:10;}
</style>
<path class="st0" d="M185.4,120.2h-141V71.6H89L88.9,26h52.8v45.6l43.9-0.1L185.4,120.2z"/>
<path class="st1" d="M148.2,35.6l3.3-9.1l3.3,9.1H148.2z"/>
<path class="st1" d="M154.9,59.6l-3.3,9.1l-3.3-9.1H154.9z"/>
<path class="st2" d="M151.6,34.1v28"/>
<path class="st3" d="M157,54.4h1.6v-1.7h0.2c0.4,0.6,1.1,1.9,3.2,1.9c2.7,0,4.6-2.2,4.6-5.7c0-3.4-1.9-5.6-4.7-5.6
	c-2.1,0-2.8,1.3-3.2,1.9h-0.1v-5.4H157V54.4z M158.6,49c0-2.4,1.1-4.1,3.1-4.1c2.1,0,3.2,1.8,3.2,4.1c0,2.3-1.1,4.2-3.2,4.2
	C159.7,53.1,158.6,51.4,158.6,49z"/>
</svg>
