<?xml version="1.0" encoding="utf-8"?>
<!-- Generator: Adobe Illustrator 25.4.0, SVG Export Plug-In . SVG Version: 6.00 Build 0)  -->
<svg version="1.1" id="Ebene_1" xmlns="http://www.w3.org/2000/svg" xmlns:xlink="http://www.w3.org/1999/xlink" x="0px" y="0px"
	 viewBox="0 0 230 147" style="enable-background:new 0 0 230 147;" xml:space="preserve">
<style type="text/css">
	.st0{fill:#F8F8F8;stroke:#17813D;stroke-width:4;stroke-miterlimit:10;}
	.st1{fill:#17813D;stroke:#17813D;}
	.st2{fill:#17813D;stroke:#17813D;stroke-width:2;}
	.st3{fill:#17813D;stroke:#17813D;stroke-miterlimit:10;}
</style>
<path class="st0" d="M185.4,121.2h-141V72.6H89L88.9,27h52.8v45.6l43.9-0.1L185.4,121.2z"/>
<path class="st1" d="M192.2,82.6l3.3-9.1l3.3,9.1H192.2z"/>
<path class="st1" d="M198.9,110.6l-3.3,9.1l-3.3-9.1H198.9z"/>
<path class="st2" d="M195.6,81.1v32"/>
<path class="st3" d="M204.9,103.6c2.1,0,2.8-1.3,3.2-1.9h0.2v1.7h1.6V88.9h-1.7v5.4H208c-0.4-0.6-1-1.9-3.2-1.9
	c-2.8,0-4.7,2.2-4.7,5.6C200.2,101.5,202.1,103.6,204.9,103.6z M205.1,102.1c-2.1,0-3.2-1.8-3.2-4.2c0-2.3,1.1-4.1,3.2-4.1
	c2,0,3.1,1.6,3.1,4.1C208.2,100.4,207.1,102.1,205.1,102.1z"/>
</svg>
