<?xml version="1.0" encoding="utf-8"?>
<!-- Generator: Adobe Illustrator 25.4.0, SVG Export Plug-In . SVG Version: 6.00 Build 0)  -->
<svg version="1.1" id="Ebene_1" xmlns="http://www.w3.org/2000/svg" xmlns:xlink="http://www.w3.org/1999/xlink" x="0px" y="0px"
	 viewBox="0 0 230 147" style="enable-background:new 0 0 230 147;" xml:space="preserve">
<style type="text/css">
	.st0{fill:#F8F8F8;stroke:#17813D;stroke-width:4;stroke-miterlimit:10;}
	.st1{fill:#17813D;stroke:#17813D;}
	.st2{fill:#17813D;stroke:#17813D;stroke-width:2;}
	.st3{fill:#17813D;stroke:#17813D;stroke-miterlimit:10;}
</style>
<path class="st0" d="M185.4,106.2h-141V57.6H89L88.9,12h52.8v45.6l43.9-0.1L185.4,106.2z"/>
<path class="st1" d="M54.6,120.4l-9.1-3.3l9.1-3.3V120.4z"/>
<path class="st1" d="M175.6,113.7l9.1,3.3l-9.1,3.3V113.7z"/>
<path class="st2" d="M53.1,117h125"/>
<path class="st3" d="M115.3,135.4c2.2,0,3.8-1.1,4.3-2.8l-1.6-0.5c-0.4,1.1-1.4,1.7-2.7,1.7c-2,0-3.3-1.3-3.4-3.6h7.9v-0.7
	c0-4.1-2.4-5.5-4.7-5.5c-3,0-4.9,2.3-4.9,5.7C110.3,133.2,112.2,135.4,115.3,135.4z M111.9,128.9c0.1-1.7,1.3-3.2,3.2-3.2
	c1.8,0,3,1.4,3,3.2H111.9z"/>
</svg>
