<?xml version="1.0" encoding="utf-8"?>
<!-- Generator: Adobe Illustrator 25.4.0, SVG Export Plug-In . SVG Version: 6.00 Build 0)  -->
<svg version="1.1" id="Ebene_1" xmlns="http://www.w3.org/2000/svg" xmlns:xlink="http://www.w3.org/1999/xlink" x="0px" y="0px"
	 viewBox="0 0 230 147" style="enable-background:new 0 0 230 147;" xml:space="preserve">
<style type="text/css">
	.st0{fill:#F8F8F8;stroke:#17813D;stroke-width:4;stroke-miterlimit:10;}
	.st1{fill:#17813D;stroke:#17813D;}
	.st2{fill:#17813D;stroke:#17813D;stroke-width:2;}
	.st3{fill:#17813D;stroke:#17813D;stroke-miterlimit:10;}
</style>
<path class="st0" d="M186.4,121.2h-141V72.6H90L89.9,27h52.8v45.6l43.9-0.1L186.4,121.2z"/>
<path class="st1" d="M53.6,65.8l-9.1-3.3l9.1-3.3V65.8z"/>
<path class="st1" d="M77.6,59.1l9.1,3.3l-9.1,3.3V59.1z"/>
<path class="st2" d="M52.1,62.5h28"/>
<path class="st3" d="M66.4,59.5c2.6,0,4.7-1.2,4.7-4V44.3h-1.6V46h-0.2c-0.4-0.6-1.1-1.9-3.2-1.9c-2.8,0-4.7,2.2-4.7,5.5
	c0,3.4,2,5.3,4.6,5.3c2.1,0,2.8-1.2,3.2-1.8h0.1v2.2c0,1.8-1.3,2.6-3,2.6c-2,0-2.7-1-3.1-1.6l-1.3,0.9C62.6,58.5,64,59.5,66.4,59.5z
	 M66.3,53.5c-2.1,0-3.2-1.6-3.2-3.9c0-2.2,1.1-4,3.2-4c2,0,3.1,1.6,3.1,4C69.5,52.1,68.4,53.5,66.3,53.5z"/>
</svg>
