<?xml version="1.0" encoding="utf-8"?>
<!-- Generator: Adobe Illustrator 25.4.0, SVG Export Plug-In . SVG Version: 6.00 Build 0)  -->
<svg version="1.1" id="Ebene_1" xmlns="http://www.w3.org/2000/svg" xmlns:xlink="http://www.w3.org/1999/xlink" x="0px" y="0px"
	 viewBox="0 0 230 147" style="enable-background:new 0 0 230 147;" xml:space="preserve">
<style type="text/css">
	.st0{fill:#F8F8F8;stroke:#17813D;stroke-width:4;stroke-miterlimit:10;}
	.st1{fill:#17813D;stroke:#17813D;}
	.st2{fill:#17813D;stroke:#17813D;stroke-width:2;}
	.st3{fill:#17813D;stroke:#17813D;stroke-miterlimit:10;}
</style>
<path class="st0" d="M185,122.2H44V73.6h44.7L88.5,28h52.8v45.6l43.9-0.1L185,122.2z"/>
<path class="st1" d="M75.5,36.6l3.3-9.1l3.3,9.1H75.5z"/>
<path class="st1" d="M82.2,61.6l-3.3,9.1l-3.3-9.1H82.2z"/>
<path class="st2" d="M78.9,35.1v29"/>
<path class="st3" d="M66.9,48.9c0-1.9,1.2-3,2.9-3c1.6,0,2.5,1,2.5,2.7v6.8H74v-6.9c0-2.8-1.5-4.1-3.7-4.1c-1.7,0-2.7,0.7-3.2,1.8
	h-0.1v-5.3h-1.7v14.5h1.7V48.9z"/>
</svg>
