<?xml version="1.0" encoding="utf-8"?>
<!-- Generator: Adobe Illustrator 26.4.1, SVG Export Plug-In . SVG Version: 6.00 Build 0)  -->
<svg version="1.1" id="Ebene_1" xmlns="http://www.w3.org/2000/svg" xmlns:xlink="http://www.w3.org/1999/xlink" x="0px" y="0px"
	 viewBox="0 0 1280 324" style="enable-background:new 0 0 1280 324;" xml:space="preserve">
<style type="text/css">
	.st0{fill:#2EAE7A;}
	.st1{fill:#015229;}
	.st2{fill:#01B37B;}
	.st3{fill:#DADAE4;}
	.st4{fill:#FDFDFD;}
</style>
<path d="M232,107.3h67.4v12.6h-26.6v70.9h-14.6v-70.9h-26.3L232,107.3L232,107.3z M296.5,130.2h12.6V142h0.3
	c0.5-1.7,1.2-3.2,2.4-4.7c1.2-1.5,2.4-2.9,4.1-4.1c1.5-1.5,3.2-2.4,5.2-3.2c1.7-0.9,3.7-1.2,5.9-1.2c1.5,0,2.7,0,3.2,0
	s1.2,0.3,1.7,0.3v12.8c-0.9-0.3-1.7-0.3-2.9-0.5c-0.9,0-1.7-0.3-2.9-0.3c-2.4,0-4.4,0.5-6.4,1.5c-2,0.9-3.7,2.4-5.2,3.7
	c-1.5,1.7-2.7,3.7-3.5,6.4c-0.9,2.7-1.5,5.6-1.5,8.8v28.7h-12.8L296.5,130.2L296.5,130.2L296.5,130.2z M393,190.9h-13.1v-8.4h-0.3
	c-1.7,3.2-4.1,5.6-7.4,7.4s-6.4,2.7-9.9,2.7c-7.9,0-13.8-1.7-17.2-5.9c-3.5-3.7-5.2-9.9-5.2-17.9v-38.4h13.2v37.2
	c0,5.2,0.9,9.1,3.2,11.1c2,2.4,4.9,3.2,8.4,3.2c2.9,0,4.9-0.5,7.1-1.5c1.7-0.9,3.5-2,4.7-3.5s2-3.2,2.7-5.2c0.5-2,0.9-4.1,0.9-6.4
	v-35.2h13.5L393,190.9L393,190.9z M415.9,171.5c0.5,3.7,1.7,6.4,4.4,8.2c2.7,1.5,5.6,2.4,9.4,2.4c1.2,0,2.7,0,4.1-0.3
	s3.2-0.5,4.4-1.2c1.5-0.5,2.7-1.5,3.5-2.4c0.9-1.2,1.5-2.4,1.2-4.1c0-1.7-0.5-3.2-1.7-4.1c-1.2-1.2-2.7-1.7-4.4-2.7
	c-1.7-0.5-3.7-1.2-6.2-1.7c-2.4-0.5-4.7-0.9-7.1-1.5c-2.4-0.5-4.9-1.2-7.4-2c-2.4-0.9-4.4-1.7-6.2-3.2c-1.7-1.5-3.2-2.9-4.4-4.9
	c-1.2-2-1.7-4.7-1.7-7.6c0-3.2,0.9-6.2,2.4-8.2c1.5-2.4,3.7-4.1,6.2-5.2c2.4-1.5,5.2-2.4,8.2-2.9c2.9-0.5,5.9-0.9,8.4-0.9
	c3.2,0,6.2,0.3,8.8,0.9c2.7,0.5,5.6,1.7,7.6,3.2c2.4,1.5,4.1,3.5,5.6,5.9s2.4,5.2,2.9,8.4h-14c-0.5-3.2-2-5.2-4.4-6.4
	s-4.9-1.7-7.9-1.7c-0.9,0-2,0-3.2,0.3c-1.5,0.3-2.4,0.5-3.7,0.9c-1.2,0.5-2,1.2-2.9,1.7c-0.9,0.9-1.2,1.7-1.2,3.2
	c0,1.7,0.5,2.9,1.7,3.7c1.2,0.9,2.7,1.7,4.4,2.7c1.7,0.5,3.7,1.2,6.2,1.7c2.4,0.5,4.7,0.9,7.4,1.5c2.4,0.5,4.7,1.2,7.1,2
	c2.4,0.9,4.4,1.7,6.2,3.2c1.7,1.5,3.2,2.9,4.4,4.9c1.2,2,1.7,4.7,1.7,7.4c0,3.5-0.9,6.4-2.4,9.1c-1.7,2.4-3.7,4.7-6.4,6.2
	c-2.7,1.5-5.6,2.7-8.8,3.5c-3.2,0.5-6.4,1.2-9.4,1.2c-3.7,0-7.4-0.5-10.6-1.5c-3.2-0.9-6.2-2.4-8.4-3.7c-2.4-1.7-4.1-3.7-5.6-6.4
	s-2-5.6-2.4-9.4L415.9,171.5L415.9,171.5L415.9,171.5z M459.8,130.2H470v-18.1h13.5v18.2h12v9.9h-12v32.2c0,1.5,0,2.7,0.3,3.7
	c0,0.9,0.5,1.7,0.9,2.7c0.5,0.5,1.2,1.2,1.7,1.5c0.9,0.3,2,0.5,3.5,0.5c0.9,0,1.7,0,2.7,0s1.7-0.3,2.7-0.5v10.3
	c-1.5,0.3-2.9,0.3-4.4,0.5c-1.5,0.3-2.7,0.3-4.4,0.3c-3.5,0-6.4-0.3-8.4-0.9c-2-0.5-3.7-1.7-4.9-2.9c-1.2-1.5-2-2.9-2.4-4.7
	c-0.5-1.7-0.5-4.1-0.9-6.7v-36h-10.3L459.8,130.2L459.8,130.2L459.8,130.2z M504.5,130.2h12.6v8.2h0.3c1.7-3.5,4.4-6.2,7.9-7.6
	c3.2-1.5,7.1-2.4,10.8-2.4c4.7,0,8.8,0.9,12.6,2.7c3.5,1.7,6.4,3.7,8.8,7.1c2.4,2.9,4.1,6.4,5.2,10.3c1.2,3.7,1.7,8.2,1.7,12.6
	c0,4.1-0.5,7.9-1.5,11.8c-1.2,3.7-2.7,7.4-4.7,10.3s-4.7,5.2-8.2,7.1c-3.2,1.7-7.1,2.7-11.8,2.7c-1.7,0-3.7-0.3-5.9-0.5
	c-1.7-0.3-3.7-0.9-5.6-1.7s-3.5-1.7-4.9-2.9s-2.7-2.7-3.7-4.1h-0.3v29.8h-13.5v-83h0.2L504.5,130.2L504.5,130.2z M551.2,160.7
	c0-2.7-0.3-5.2-1.2-7.9c-0.5-2.7-1.7-4.7-3.2-6.7s-3.2-3.5-5.2-4.7s-4.7-1.7-7.4-1.7c-5.6,0-9.6,1.7-12.6,5.9
	c-2.9,3.7-4.1,9.1-4.1,15.5c0,3.2,0.3,5.9,1.2,8.4c0.9,2.7,1.7,4.7,3.2,6.7c1.5,1.7,3.2,3.2,5.2,4.4s4.4,1.7,7.4,1.7
	c3.2,0,5.6-0.5,7.6-1.7s3.7-2.9,5.2-4.7c1.5-2,2.4-4.1,2.9-6.7C550.8,165.9,551.2,163.4,551.2,160.7L551.2,160.7z M574.6,107.3h13.5
	v12.6h-13.5V107.3z M574.6,130.2h13.5v60.3h-13.5V130.2L574.6,130.2z M600,107.3h13.5v83.4H600V107.3L600,107.3z M653.9,192.3
	c-4.7,0-9.1-0.9-12.8-2.4c-3.7-1.7-7.1-3.7-9.6-6.4c-2.7-2.9-4.7-6.2-5.9-10.3c-1.5-3.7-2-8.2-2-12.8c0-4.7,0.5-8.8,2-12.6
	c1.5-3.7,3.2-7.4,5.9-10.3c2.7-2.9,5.9-4.9,9.6-6.4c3.7-1.5,8.2-2.4,12.8-2.4c4.7,0,9.1,0.9,12.8,2.4s7.1,3.7,9.6,6.4
	c2.7,2.9,4.7,6.2,5.9,10.3c1.5,3.7,2,8.2,2,12.6c0,4.7-0.5,8.8-2,12.8c-1.5,3.7-3.2,7.4-5.9,10.3c-2.7,2.7-5.9,4.9-9.6,6.4
	C663,191.4,658.9,192.3,653.9,192.3L653.9,192.3z M653.9,181.8c2.9,0,5.6-0.5,7.6-1.7c2.4-1.2,3.7-2.9,5.2-4.9s2.4-4.4,3.2-6.7
	c0.5-2.7,0.9-4.9,0.9-7.9c0-2.7-0.3-4.9-0.9-7.6c-0.7-2.7-1.7-4.7-3.2-6.7s-3.2-3.5-5.2-4.7c-2.4-1.2-4.7-1.7-7.6-1.7
	c-2.9,0-5.6,0.5-7.6,1.7c-2.4,1.2-3.7,2.9-5.2,4.7c-1.5,2-2.4,4.1-3.2,6.7c-0.5,2.7-0.9,4.9-0.9,7.6c0,2.7,0.3,5.2,0.9,7.9
	c0.5,2.7,1.7,4.7,3.2,6.7s3.2,3.7,5.2,4.9C648.7,181.2,651,181.8,653.9,181.8L653.9,181.8z M688.5,130.2h10.3v-18.1h13.5v18.2h12
	v9.9h-12v32.2c0,1.5,0,2.7,0.3,3.7c0,0.9,0.5,1.7,0.9,2.7c0.5,0.5,1.2,1.2,1.7,1.5c0.9,0.3,2,0.5,3.5,0.5c0.9,0,1.7,0,2.7,0
	s1.7-0.3,2.7-0.5v10.3c-1.5,0.3-2.9,0.3-4.4,0.5c-1.5,0.3-2.7,0.3-4.4,0.3c-3.5,0-6.4-0.3-8.4-0.9c-2-0.5-3.7-1.7-4.9-2.9
	c-1.2-1.5-2-2.9-2.4-4.7c-0.5-1.7-0.5-4.1-0.9-6.7v-36h-10.3v-9.9h0.3v-0.1L688.5,130.2L688.5,130.2z"/>
<path class="st0" d="M206.3,121.7h-48.1l-14.8-46.1l-15,45.9H80l39.1,28.4l-15,45.9l39.1-28.4l39.1,28.4l-14.8-45.9L206.3,121.7z"/>
<path class="st1" d="M170.7,160.4l-3.3-10.5l-24.1,17.5L170.7,160.4z"/>
<path class="st2" d="M928.2,155.8c0,12.8,0,25.6,0,38.4c0,1.9-0.6,2.2-2.3,2.2c-25.6-0.1-51.2-0.1-76.8,0c-1.7,0-2.2-0.4-2.2-2.1
	c0.1-25.6,0.1-51.3,0-76.9c0-1.8,0.5-2.1,2.2-2.1c25.7,0.1,51.3,0.1,77,0c1.6,0,2.1,0.4,2.1,2C928.2,130.1,928.2,143,928.2,155.8z"
	/>
<path class="st2" d="M759.1,155.6c0-12.7,0-25.4,0-38.2c0-1.6,0.2-2.2,2.1-2.2c25.7,0.1,51.3,0.1,77,0c1.7,0,2.2,0.4,2.2,2.1
	c-0.1,25.6-0.1,51.3,0,76.9c0,1.8-0.5,2.1-2.2,2.1c-25.7-0.1-51.3-0.1-77,0c-1.6,0-2.1-0.4-2.1-2
	C759.1,181.5,759.1,168.5,759.1,155.6z"/>
<path class="st2" d="M934.9,155.6c0-12.8,0-25.6,0-38.4c0-1.7,0.5-2,2.1-2c25.7,0.1,51.5,0,77.2,0c1.5,0,2,0.3,2,1.9
	c-0.1,25.8-0.1,51.6,0,77.3c0,1.6-0.5,1.9-2,1.9c-25.7,0-51.5,0-77.2,0c-1.6,0-2.1-0.4-2.1-2C935,181.5,934.9,168.6,934.9,155.6z"/>
<path class="st2" d="M1103.9,155.8c0,12.9,0,25.7,0,38.6c0,1.6-0.5,2-2.1,2c-25.7-0.1-51.4,0-77.2,0c-1.5,0-2-0.3-2-1.9
	c0.1-25.8,0.1-51.5,0-77.3c0-1.6,0.4-1.9,2-1.9c25.7,0,51.4,0.1,77.2,0c1.8,0,2.1,0.6,2.1,2.2C1103.9,130.2,1103.9,143,1103.9,155.8
	z"/>
<path class="st3" d="M1151.2,115.3c13,0,26,0,39-0.1c1.5,0,1.8,0.5,1.8,1.9c0,25.8,0,51.5,0,77.3c0,1.6-0.6,1.9-2,1.9
	c-12.9-0.1-25.8,0-38.8,0c-0.4-0.5-0.6-1-0.6-1.6c0-8-0.2-16.1,0.1-24.1c0.1-0.3,0.2-0.6,0.5-0.9c1.1,0.1,1.9,0.8,2.7,1.4
	c4.5,3.3,9,6.6,13.8,10c-1.3-4.4-2.6-8.5-4-12.5c-0.4-1.1-1.1-1.1-2-0.9c-2.6,0.7-5.2,1.3-7.8,1.9c-0.7,0.2-1.5,0.5-2.3,0
	c-0.3-0.9,0.7-1.1,1.1-1.6c8.4-5.9,16.7-12,25.4-18.3c-5.9,0-11.4,0-16.9,0c-3.6,0-3.7,0-4.7-3.3c-1.8-5.9-3.9-11.8-5.7-17.7
	c-0.3-3.9-0.1-7.8-0.1-11.7C1150.6,116.5,1150.7,115.8,1151.2,115.3z"/>
<path class="st2" d="M1151.2,170.1c0,8.7,0,17.5,0,26.2c-12.9,0-25.9,0-38.8,0c-1.2,0-1.7-0.3-1.7-1.6c0-26,0-51.9,0-77.9
	c0-1.3,0.4-1.6,1.7-1.6c12.9,0,25.9,0,38.8,0c0,4.7,0.1,9.4,0.1,14.1c-0.2,3.4-1.9,6.4-2.7,9.6c-0.7,2.9-1.9,5.7-2.8,8.6
	c-0.5,1.7-1.5,2.4-3.3,2.4c-6-0.1-12,0-18,0c4.8,3.5,9.6,6.9,14.4,10.4c2,1.5,2.1,2,1.3,4.3c-1.8,5.4-3.5,10.8-5.3,16.5
	c4.8-3.4,9.4-6.8,13.9-10c0.6-0.4,1.1-0.9,1.8-1.1C1150.9,169.9,1151.1,170,1151.2,170.1z"/>
<path class="st4" d="M887.1,170.1c-5.5,4.1-11,8.1-17,12.5c1-3.1,1.8-5.7,2.6-8.2c1.1-3.5,2.2-7.1,3.5-10.6c0.5-1.3,0.2-2-0.9-2.7
	c-5.3-3.7-10.5-7.5-15.8-11.4c0.6-0.4,1.2-0.3,1.7-0.3c5.8,0,11.6-0.1,17.4,0c1.6,0,2.4-0.4,2.9-2c1.6-5.3,3.4-10.5,5.1-15.8
	c0.2-0.7,0.3-1.4,1-2.1c1.6,5,3.2,9.8,4.8,14.6c0.6,1.7,0.7,4.1,1.9,5s3.5,0.3,5.3,0.3c5.2,0,10.4,0,16.1,0
	c-4.6,3.4-8.7,6.4-12.9,9.4c-5,3.6-10,7.1-15,10.6C887.8,169.6,887.5,169.9,887.1,170.1z"/>
<path class="st4" d="M887.1,170.1c0.2-0.4,0.5-0.7,1-0.7c0.6,0.7,1.2,0.1,1.8-0.1c2.9-0.7,5.8-1.5,8.7-2.2c0.6-0.1,1.3-0.5,1.6,0.4
	c1.6,4.8,3.1,9.6,4.4,14.6c-1.8-1.3-3.6-2.6-5.5-3.9c-3.5-2.5-6.9-5.1-10.4-7.6C888.2,170.4,887.8,169.9,887.1,170.1z"/>
<path class="st4" d="M799.4,170c-5.6,4.1-11.2,8.2-17.2,12.6c2.2-6.6,4.1-12.8,6.2-18.8c0.4-1.2,0.3-1.9-0.9-2.7
	c-5.3-3.7-10.5-7.5-15.7-11.4c0.4-0.6,1-0.3,1.4-0.3c6,0,12-0.1,18,0c1.4,0,2-0.5,2.4-1.8c1.9-6,3.9-12,5.9-18
	c0.8,0.4,0.8,1.2,1,1.9c1.8,5.4,3.6,10.7,5.3,16.2c0.4,1.3,1,1.8,2.4,1.8c6.4-0.1,12.9,0,20,0c-9.5,6.9-18.5,13.4-27.6,19.9
	C800.6,170.3,799.6,169.6,799.4,170z"/>
<path class="st4" d="M799.4,170c0.1-0.7,0.9-0.3,1.2-0.7c2.9,0.1,5.5-1.1,8.2-1.7c3.3-0.8,3.3-0.8,4.3,2.3c1.3,4,2.6,8,3.9,12.2
	c-0.7,0.1-1-0.4-1.4-0.6c-4.8-3.5-9.6-7-14.4-10.5C800.6,170.6,800.2,170,799.4,170z"/>
<path class="st4" d="M975.3,170c-5.6,4.1-11.2,8.1-16.8,12.2c-0.1-0.1-0.2-0.3-0.3-0.4c2-6.1,4-12.2,6-18.3c0.4-1.1,0.1-1.6-0.8-2.2
	c-5.3-3.8-10.6-7.6-15.9-11.5c0.4-0.7,1-0.4,1.4-0.4c6,0,12-0.1,18,0c1.3,0,1.9-0.4,2.3-1.7c1.9-6.1,3.9-12.1,6.1-18.7
	c1.6,4.8,3,9.2,4.5,13.5c0.7,2.2,0.9,5.1,2.4,6.4c1.6,1.3,4.5,0.4,6.8,0.4c4.7,0,9.3,0,14.7,0c-3.7,2.7-7,5.1-10.2,7.4
	c-5.7,4.2-11.5,8.4-17.2,12.5C976.2,169.8,975.8,169.8,975.3,170z"/>
<path class="st4" d="M975.3,170c0.3-0.4,0.6-0.6,1.2-0.6c3.3-0.1,6.3-1.3,9.5-2.1c1.5-0.4,2.1-0.1,2.5,1.3c1.2,3.9,2.5,7.8,3.7,11.7
	c0.2,0.5,0.5,0.9,0,1.7C986.6,178,981,174,975.3,170z"/>
<path class="st4" d="M1063.1,170c-5.6,4.1-11.2,8.2-17.2,12.6c2.2-6.7,4.2-12.9,6.2-19c0.4-1.1,0.2-1.7-0.8-2.4
	c-5.3-3.8-10.6-7.6-15.9-11.5c0.5-0.6,1.1-0.3,1.7-0.3c5.9,0,11.8-0.1,17.6,0c1.5,0,2.1-0.3,2.6-1.8c1.9-6,3.9-12,5.9-18
	c0.8,0.5,0.8,1.3,1,1.9c1.7,5.3,3.5,10.5,5.1,15.8c0.5,1.7,1.3,2.2,3,2.1c5.7-0.1,11.4,0,17,0c0.6,0,1.2,0,2.4,0
	c-4.5,3.3-8.5,6.2-12.6,9.1c-5.1,3.7-10.1,7.4-15.3,10.9C1063.7,169.6,1063.5,169.9,1063.1,170z"/>
<path class="st4" d="M1063.1,170c0.2-0.3,0.5-0.6,0.9-0.7c0.3,0.6,0.8,0.2,1.2,0.1c3.1-0.8,6.2-1.6,9.3-2.4c0.8-0.2,1.4-0.2,1.8,0.8
	c1.5,4.7,3,9.4,4.6,14.2c-0.7,0.1-1-0.4-1.4-0.6c-4.8-3.5-9.7-7-14.5-10.6C1064.3,170.6,1063.8,170,1063.1,170z"/>
<path class="st4" d="M1150.8,170.1c-5.5,4-11,8.1-17,12.5c1.4-4.4,2.6-8.2,3.9-12c0.7-2.3,1.4-4.6,2.3-6.9c0.5-1.3,0.2-2-0.9-2.7
	c-5.3-3.7-10.5-7.5-16.2-11.7c1.2,0,1.9,0,2.7,0c5.7,0,11.4-0.1,17,0c1.6,0,2.2-0.6,2.7-2c1.9-6,4-12,6-18
	c2.2,5.7,4.1,11.5,5.8,17.3c0.6,2.1,1.5,2.7,3.7,2.7c6.1-0.2,12.2-0.1,18.9-0.1c-2.4,1.8-4.4,3.4-6.5,4.9
	c-6.5,4.7-13.1,9.4-19.6,14.1c-0.2,0.1-0.5,0.2-0.7,0.2C1152.1,169,1151.3,169.3,1150.8,170.1z"/>
<path class="st4" d="M1151.6,169.7c3.5-0.8,7.1-1.7,10.6-2.6c1.1-0.3,1.6,0,1.9,1c1.5,4.6,2.9,9.1,4.5,14c-2.1-0.8-3.4-2.2-5-3.3
	c-3.7-2.6-7.3-5.2-10.9-7.8C1152.3,170.7,1152,170.2,1151.6,169.7L1151.6,169.7z"/>
<path class="st4" d="M1150.8,170.1c0.1-1.2,1.1-1.4,2-1.5c-0.4,0.4-0.8,0.8-1.2,1.2l0,0c-0.1,0.1-0.3,0.3-0.4,0.4
	C1151.1,170.1,1151,170.1,1150.8,170.1z"/>
<g>
	<path d="M769.2,211.1c0.5,0,1,0,1.5,0c0.5,0,1.1,0,1.6,0.1c0.5,0.1,1,0.1,1.5,0.2c0.5,0.1,0.8,0.2,1.2,0.5c0.7,0.4,1.3,1,1.8,1.7
		c0.5,0.7,0.7,1.7,0.7,2.7c0,1.1-0.3,2.1-0.8,3s-1.3,1.4-2.4,1.8v0.1c1.3,0.3,2.3,0.9,3,1.8c0.7,0.9,1,2,1,3.4
		c0,0.8-0.1,1.5-0.4,2.3c-0.3,0.7-0.7,1.4-1.2,2c-0.6,0.6-1.2,1-2,1.4c-0.8,0.4-1.7,0.5-2.8,0.5h-10.4v-21.4H769.2z M770,220.3
		c1.6,0,2.8-0.3,3.5-0.9c0.7-0.6,1.1-1.4,1.1-2.6c0-0.8-0.1-1.4-0.4-1.8c-0.2-0.4-0.6-0.8-1-1s-0.9-0.4-1.5-0.5
		c-0.5-0.1-1.1-0.1-1.8-0.1h-5.7v6.8H770z M771.4,230.1c1.3,0,2.2-0.3,3-1s1.1-1.6,1.1-2.8c0-0.7-0.1-1.3-0.4-1.7
		c-0.3-0.5-0.6-0.8-1-1.1c-0.4-0.3-0.9-0.5-1.5-0.6c-0.6-0.1-1.1-0.2-1.7-0.2h-6.5v7.4H771.4z"/>
	<path d="M792.5,231.5c-1.2,0.9-2.6,1.3-4.4,1.3c-1.2,0-2.3-0.2-3.2-0.6c-0.9-0.4-1.7-1-2.3-1.7s-1.1-1.6-1.4-2.6
		c-0.3-1-0.5-2.1-0.5-3.3c0-1.2,0.2-2.3,0.5-3.2c0.4-1,0.9-1.8,1.5-2.5s1.4-1.3,2.3-1.7c0.9-0.4,1.9-0.6,2.9-0.6
		c1.4,0,2.5,0.3,3.4,0.9c0.9,0.6,1.6,1.3,2.2,2.2c0.5,0.9,0.9,1.8,1.1,2.9s0.3,2,0.3,3h-11.6c0,0.7,0.1,1.3,0.2,1.9
		c0.2,0.6,0.5,1.2,0.9,1.6s0.9,0.8,1.5,1.1s1.3,0.4,2.2,0.4c1.1,0,2-0.2,2.7-0.8c0.7-0.5,1.1-1.3,1.4-2.3h2.5
		C794.5,229.3,793.7,230.6,792.5,231.5z M791.9,221.6c-0.2-0.5-0.5-1-0.9-1.4c-0.4-0.4-0.9-0.7-1.4-0.9c-0.5-0.2-1.1-0.3-1.8-0.3
		c-0.7,0-1.3,0.1-1.8,0.3c-0.5,0.2-1,0.5-1.4,0.9c-0.4,0.4-0.7,0.9-0.9,1.4c-0.2,0.5-0.3,1.1-0.4,1.7h8.9
		C792.3,222.7,792.2,222.1,791.9,221.6z"/>
	<path d="M810.3,232.5l-3.2-12.3h-0.1l-3.1,12.3h-2.8l-5-15.5h2.8l3.5,12.7h0.1l3.1-12.7h2.8l3.2,12.7h0.1l3.5-12.7h2.6l-5,15.5
		H810.3z"/>
	<path d="M831.4,231.5c-1.2,0.9-2.6,1.3-4.4,1.3c-1.2,0-2.3-0.2-3.2-0.6c-0.9-0.4-1.7-1-2.3-1.7s-1.1-1.6-1.4-2.6
		c-0.3-1-0.5-2.1-0.5-3.3c0-1.2,0.2-2.3,0.5-3.2c0.4-1,0.9-1.8,1.5-2.5s1.4-1.3,2.3-1.7c0.9-0.4,1.9-0.6,2.9-0.6
		c1.4,0,2.5,0.3,3.4,0.9c0.9,0.6,1.6,1.3,2.2,2.2c0.5,0.9,0.9,1.8,1.1,2.9s0.3,2,0.3,3h-11.6c0,0.7,0.1,1.3,0.2,1.9
		c0.2,0.6,0.5,1.2,0.9,1.6s0.9,0.8,1.5,1.1s1.3,0.4,2.2,0.4c1.1,0,2-0.2,2.7-0.8c0.7-0.5,1.1-1.3,1.4-2.3h2.5
		C833.3,229.3,832.6,230.6,831.4,231.5z M830.8,221.6c-0.2-0.5-0.5-1-0.9-1.4c-0.4-0.4-0.9-0.7-1.4-0.9c-0.5-0.2-1.1-0.3-1.8-0.3
		c-0.7,0-1.3,0.1-1.8,0.3c-0.5,0.2-1,0.5-1.4,0.9c-0.4,0.4-0.7,0.9-0.9,1.4c-0.2,0.5-0.3,1.1-0.4,1.7h8.9
		C831.1,222.7,831,222.1,830.8,221.6z"/>
	<path d="M838.8,217v3.3h0.1c0.6-1.3,1.4-2.2,2.3-2.8c0.9-0.6,2-0.9,3.4-0.8v2.7c-1,0-1.9,0.1-2.6,0.4s-1.3,0.7-1.7,1.2
		c-0.4,0.5-0.8,1.2-1,2s-0.3,1.7-0.3,2.7v6.9h-2.5V217H838.8z"/>
	<path d="M853.1,217v2.2h-3.1v9.6c0,0.3,0,0.5,0.1,0.7c0,0.2,0.1,0.3,0.3,0.4c0.1,0.1,0.3,0.2,0.6,0.2c0.2,0,0.6,0,1,0h1.2v2.2h-2
		c-0.7,0-1.2,0-1.7-0.1c-0.5-0.1-0.9-0.3-1.1-0.5s-0.5-0.6-0.6-1c-0.1-0.4-0.2-1-0.2-1.7v-9.9h-2.6V217h2.6v-4.7h2.5v4.7H853.1z"/>
	<path d="M866.4,232.5V230h-0.1c-0.5,1-1.2,1.7-2.1,2.1c-0.8,0.5-1.8,0.7-3,0.7c-1,0-1.9-0.1-2.5-0.4c-0.7-0.3-1.2-0.7-1.7-1.2
		c-0.4-0.5-0.7-1.1-0.9-1.8c-0.2-0.7-0.3-1.5-0.3-2.3V217h2.5v10.5c0,1,0.3,1.7,0.8,2.3c0.6,0.6,1.3,0.8,2.3,0.8
		c0.8,0,1.5-0.1,2-0.4c0.6-0.2,1-0.6,1.4-1c0.4-0.4,0.7-1,0.9-1.5c0.2-0.6,0.3-1.2,0.3-1.9V217h2.5v15.5H866.4z"/>
	<path d="M875,217v2.5h0.1c1.1-1.9,2.7-2.8,5-2.8c1,0,1.9,0.1,2.5,0.4c0.7,0.3,1.2,0.7,1.7,1.2c0.4,0.5,0.7,1.1,0.9,1.8
		c0.2,0.7,0.3,1.5,0.3,2.3v10.2h-2.5V222c0-1-0.3-1.7-0.8-2.3c-0.6-0.6-1.3-0.8-2.3-0.8c-0.8,0-1.5,0.1-2,0.4s-1,0.6-1.4,1
		c-0.4,0.4-0.7,1-0.9,1.5c-0.2,0.6-0.3,1.2-0.3,1.9v8.8h-2.5V217H875z"/>
	<path d="M901,236.9c-1.2,1.3-3,1.9-5.5,1.9c-0.7,0-1.5-0.1-2.2-0.2c-0.8-0.2-1.4-0.4-2-0.8c-0.6-0.4-1.1-0.8-1.5-1.4
		s-0.6-1.3-0.7-2.1h2.6c0,0.5,0.2,0.8,0.4,1.2c0.3,0.3,0.6,0.6,1,0.8c0.4,0.2,0.8,0.3,1.3,0.4s0.9,0.1,1.3,0.1
		c0.8,0,1.5-0.1,2.1-0.4s1.1-0.7,1.4-1.2c0.4-0.5,0.7-1.1,0.8-1.8s0.3-1.5,0.3-2.4v-1h-0.1c-0.4,1-1.1,1.7-2,2.1
		c-0.9,0.5-1.8,0.7-2.8,0.7c-1.2,0-2.2-0.2-3-0.6c-0.9-0.4-1.6-1-2.2-1.7c-0.6-0.7-1-1.5-1.3-2.5c-0.3-0.9-0.4-2-0.4-3
		c0-0.9,0.1-1.9,0.4-2.8c0.2-1,0.6-1.8,1.2-2.6c0.6-0.8,1.3-1.4,2.2-2c0.9-0.5,2-0.8,3.4-0.8c1,0,1.9,0.2,2.7,0.6
		c0.8,0.4,1.5,1.1,1.9,1.9h0V217h2.4v14.2C902.7,233.7,902.1,235.6,901,236.9z M897.7,229.9c0.6-0.3,1.1-0.8,1.4-1.4
		c0.4-0.6,0.6-1.2,0.8-1.9c0.2-0.7,0.3-1.4,0.3-2.2c0-0.7-0.1-1.3-0.2-2s-0.4-1.3-0.8-1.8c-0.4-0.5-0.8-1-1.4-1.3
		c-0.6-0.3-1.2-0.5-2-0.5c-0.8,0-1.5,0.2-2.1,0.5c-0.6,0.3-1.1,0.7-1.4,1.2c-0.4,0.5-0.6,1.1-0.8,1.8c-0.2,0.7-0.3,1.4-0.3,2.1
		c0,0.7,0.1,1.4,0.2,2.1c0.1,0.7,0.4,1.3,0.7,1.9c0.3,0.6,0.8,1,1.3,1.4c0.6,0.3,1.3,0.5,2.1,0.5S897.1,230.3,897.7,229.9z"/>
	<path d="M917.5,231.5c-1.2,0.9-2.6,1.3-4.4,1.3c-1.2,0-2.3-0.2-3.2-0.6c-0.9-0.4-1.7-1-2.3-1.7s-1.1-1.6-1.4-2.6
		c-0.3-1-0.5-2.1-0.5-3.3c0-1.2,0.2-2.3,0.5-3.2c0.4-1,0.9-1.8,1.5-2.5s1.4-1.3,2.3-1.7c0.9-0.4,1.9-0.6,2.9-0.6
		c1.4,0,2.5,0.3,3.4,0.9c0.9,0.6,1.6,1.3,2.2,2.2c0.5,0.9,0.9,1.8,1.1,2.9s0.3,2,0.3,3h-11.6c0,0.7,0.1,1.3,0.2,1.9
		c0.2,0.6,0.5,1.2,0.9,1.6s0.9,0.8,1.5,1.1s1.3,0.4,2.2,0.4c1.1,0,2-0.2,2.7-0.8c0.7-0.5,1.1-1.3,1.4-2.3h2.5
		C919.4,229.3,918.7,230.6,917.5,231.5z M916.9,221.6c-0.2-0.5-0.5-1-0.9-1.4c-0.4-0.4-0.9-0.7-1.4-0.9c-0.5-0.2-1.1-0.3-1.8-0.3
		c-0.7,0-1.3,0.1-1.8,0.3c-0.5,0.2-1,0.5-1.4,0.9c-0.4,0.4-0.7,0.9-0.9,1.4c-0.2,0.5-0.3,1.1-0.4,1.7h8.9
		C917.3,222.7,917.1,222.1,916.9,221.6z"/>
	<path d="M925.1,217v2.5h0.1c1.1-1.9,2.7-2.8,5-2.8c1,0,1.9,0.1,2.5,0.4c0.7,0.3,1.2,0.7,1.7,1.2c0.4,0.5,0.7,1.1,0.9,1.8
		c0.2,0.7,0.3,1.5,0.3,2.3v10.2h-2.5V222c0-1-0.3-1.7-0.8-2.3c-0.6-0.6-1.3-0.8-2.3-0.8c-0.8,0-1.5,0.1-2,0.4s-1,0.6-1.4,1
		c-0.4,0.4-0.7,1-0.9,1.5c-0.2,0.6-0.3,1.2-0.3,1.9v8.8h-2.5V217H925.1z"/>
	<path d="M952.6,220.4c0.1,0,0.2,0,0.3,0h0.5c0.5,0,1.1-0.1,1.5-0.2c0.5-0.2,0.9-0.4,1.3-0.7c0.4-0.3,0.7-0.7,0.9-1.1
		c0.2-0.4,0.3-0.9,0.3-1.5c0-1.1-0.4-2-1.1-2.6s-1.6-0.9-2.7-0.9c-0.7,0-1.3,0.1-1.8,0.4s-0.9,0.6-1.3,1s-0.6,0.9-0.7,1.5
		c-0.2,0.6-0.2,1.2-0.2,1.8h-2.6c0-1,0.2-1.9,0.5-2.8c0.3-0.8,0.7-1.6,1.2-2.2c0.5-0.6,1.2-1.1,2-1.4c0.8-0.3,1.7-0.5,2.8-0.5
		c0.9,0,1.8,0.1,2.6,0.3c0.8,0.2,1.5,0.6,2.1,1s1,1,1.4,1.8s0.5,1.6,0.5,2.5c0,1-0.3,1.8-0.8,2.6c-0.6,0.7-1.3,1.3-2.1,1.7v0.1
		c1.3,0.3,2.3,0.9,2.9,1.8c0.6,0.9,0.9,2.1,0.9,3.3c0,1.1-0.2,2-0.6,2.8c-0.4,0.8-0.9,1.5-1.6,2c-0.7,0.5-1.4,0.9-2.3,1.2
		c-0.9,0.3-1.8,0.4-2.8,0.4c-1.1,0-2.1-0.2-2.9-0.5s-1.6-0.7-2.2-1.3s-1.1-1.3-1.4-2.2c-0.3-0.9-0.5-1.8-0.5-2.9h2.5
		c0,1.4,0.4,2.5,1.2,3.4c0.8,0.9,1.9,1.3,3.3,1.3c0.6,0,1.2-0.1,1.8-0.3c0.6-0.2,1-0.5,1.5-0.8c0.4-0.3,0.8-0.8,1-1.3
		c0.2-0.5,0.4-1.1,0.4-1.7c0-0.7-0.1-1.2-0.4-1.8s-0.6-0.9-1-1.3c-0.4-0.3-0.9-0.6-1.4-0.8c-0.6-0.2-1.1-0.3-1.8-0.3
		c-0.5,0-1.1,0-1.5,0.1v-2.2C952.4,220.4,952.5,220.4,952.6,220.4z"/>
	<path d="M968,213.8l-1.1,6.1l0.1,0.1c0.5-0.5,1.1-0.9,1.8-1.2c0.7-0.2,1.5-0.4,2.2-0.4c0.9,0,1.8,0.1,2.7,0.5
		c0.8,0.3,1.6,0.8,2.2,1.4c0.6,0.6,1.1,1.4,1.5,2.3c0.4,0.9,0.5,2,0.5,3.2c0,0.9-0.2,1.8-0.5,2.6c-0.3,0.8-0.8,1.6-1.4,2.3
		c-0.6,0.7-1.4,1.2-2.3,1.6s-2,0.6-3.3,0.6c-0.9,0-1.8-0.1-2.6-0.4c-0.8-0.3-1.5-0.7-2.1-1.2s-1.1-1.1-1.5-1.9
		c-0.4-0.8-0.6-1.6-0.6-2.6h2.5c0,0.5,0.2,1,0.4,1.5c0.2,0.5,0.5,0.9,0.9,1.2c0.4,0.4,0.9,0.6,1.4,0.8c0.5,0.2,1.1,0.3,1.8,0.3
		c0.6,0,1.2-0.1,1.7-0.3s1-0.5,1.4-0.9c0.4-0.4,0.7-0.9,1-1.6c0.2-0.6,0.4-1.4,0.4-2.2c0-0.7-0.1-1.3-0.3-1.9
		c-0.2-0.6-0.6-1.1-1-1.5c-0.4-0.4-0.9-0.8-1.5-1c-0.6-0.2-1.2-0.4-2-0.4c-0.8,0-1.6,0.2-2.2,0.6c-0.7,0.4-1.2,0.9-1.7,1.5l-2.2-0.1
		l2-11h10.5v2.2H968z"/>
	<path d="M1004.5,221.8c0,0.9-0.3,1.7-0.9,2.3s-1.4,0.9-2.3,0.9s-1.7-0.3-2.3-0.9c-0.6-0.6-0.9-1.4-0.9-2.3c0-0.9,0.3-1.7,0.9-2.3
		c0.6-0.6,1.4-0.9,2.3-0.9s1.7,0.3,2.3,0.9C1004.2,220.1,1004.5,220.8,1004.5,221.8z"/>
	<path d="M1028.2,211.1v9.2h11.3v-9.2h2.9v21.4h-2.9v-9.8h-11.3v9.8h-2.9v-21.4H1028.2z"/>
	<path d="M1057.5,231.5c-1.2,0.9-2.6,1.3-4.4,1.3c-1.2,0-2.3-0.2-3.2-0.6c-0.9-0.4-1.7-1-2.3-1.7s-1.1-1.6-1.4-2.6
		c-0.3-1-0.5-2.1-0.5-3.3c0-1.2,0.2-2.3,0.5-3.2c0.4-1,0.9-1.8,1.5-2.5s1.4-1.3,2.3-1.7c0.9-0.4,1.9-0.6,2.9-0.6
		c1.4,0,2.5,0.3,3.4,0.9c0.9,0.6,1.6,1.3,2.2,2.2c0.5,0.9,0.9,1.8,1.1,2.9s0.3,2,0.3,3h-11.6c0,0.7,0.1,1.3,0.2,1.9
		c0.2,0.6,0.5,1.2,0.9,1.6s0.9,0.8,1.5,1.1s1.3,0.4,2.2,0.4c1.1,0,2-0.2,2.7-0.8c0.7-0.5,1.1-1.3,1.4-2.3h2.5
		C1059.4,229.3,1058.7,230.6,1057.5,231.5z M1056.9,221.6c-0.2-0.5-0.5-1-0.9-1.4c-0.4-0.4-0.9-0.7-1.4-0.9
		c-0.5-0.2-1.1-0.3-1.8-0.3c-0.7,0-1.3,0.1-1.8,0.3c-0.5,0.2-1,0.5-1.4,0.9c-0.4,0.4-0.7,0.9-0.9,1.4c-0.2,0.5-0.3,1.1-0.4,1.7h8.9
		C1057.3,222.7,1057.2,222.1,1056.9,221.6z"/>
	<path d="M1065,217v3.3h0.1c0.6-1.3,1.4-2.2,2.3-2.8c0.9-0.6,2-0.9,3.4-0.8v2.7c-1,0-1.9,0.1-2.6,0.4s-1.3,0.7-1.7,1.2
		c-0.4,0.5-0.8,1.2-1,2s-0.3,1.7-0.3,2.7v6.9h-2.5V217H1065z"/>
	<path d="M1076.9,232.5l-5.8-15.5h2.8l4.4,12.9h0.1l4.2-12.9h2.7l-5.7,15.5H1076.9z"/>
	<path d="M1087.3,221.6c0.3-1,0.8-1.9,1.4-2.6c0.6-0.7,1.4-1.3,2.4-1.7c0.9-0.4,2-0.6,3.2-0.6c1.2,0,2.3,0.2,3.3,0.6
		c0.9,0.4,1.7,1,2.4,1.7c0.6,0.7,1.1,1.6,1.4,2.6c0.3,1,0.5,2.1,0.5,3.2c0,1.1-0.2,2.2-0.5,3.2c-0.3,1-0.8,1.8-1.4,2.6
		c-0.6,0.7-1.4,1.3-2.4,1.7c-0.9,0.4-2,0.6-3.3,0.6c-1.2,0-2.3-0.2-3.2-0.6c-0.9-0.4-1.7-1-2.4-1.7c-0.6-0.7-1.1-1.6-1.4-2.6
		c-0.3-1-0.5-2-0.5-3.2C1086.8,223.6,1087,222.6,1087.3,221.6z M1089.9,227.3c0.2,0.7,0.6,1.3,1,1.8c0.4,0.5,1,0.9,1.5,1.1
		c0.6,0.3,1.2,0.4,1.9,0.4c0.7,0,1.3-0.1,1.9-0.4c0.6-0.3,1.1-0.6,1.5-1.1c0.4-0.5,0.8-1.1,1-1.8c0.2-0.7,0.4-1.6,0.4-2.5
		c0-0.9-0.1-1.8-0.4-2.5c-0.3-0.7-0.6-1.3-1-1.8c-0.4-0.5-1-0.9-1.5-1.1c-0.6-0.3-1.2-0.4-1.9-0.4c-0.7,0-1.3,0.1-1.9,0.4
		c-0.6,0.3-1.1,0.6-1.5,1.1c-0.4,0.5-0.8,1.1-1,1.8c-0.3,0.7-0.4,1.6-0.4,2.5C1089.5,225.7,1089.6,226.5,1089.9,227.3z"/>
	<path d="M1107.2,217v3.3h0.1c0.6-1.3,1.4-2.2,2.3-2.8c0.9-0.6,2-0.9,3.4-0.8v2.7c-1,0-1.9,0.1-2.6,0.4s-1.3,0.7-1.7,1.2
		c-0.4,0.5-0.8,1.2-1,2s-0.3,1.7-0.3,2.7v6.9h-2.5V217H1107.2z"/>
	<path d="M1117.2,217v3.3h0.1c0.6-1.3,1.4-2.2,2.3-2.8c0.9-0.6,2-0.9,3.4-0.8v2.7c-1,0-1.9,0.1-2.6,0.4s-1.3,0.7-1.7,1.2
		c-0.4,0.5-0.8,1.2-1,2s-0.3,1.7-0.3,2.7v6.9h-2.5V217H1117.2z"/>
	<path d="M1138.6,232.5c-0.4,0.3-1,0.4-1.8,0.4c-0.7,0-1.2-0.2-1.6-0.6c-0.4-0.4-0.6-1-0.6-1.8c-0.7,0.8-1.5,1.4-2.4,1.8
		c-0.9,0.4-1.9,0.6-3,0.6c-0.7,0-1.4-0.1-2-0.2s-1.2-0.4-1.6-0.8c-0.5-0.3-0.8-0.8-1.1-1.3c-0.3-0.5-0.4-1.2-0.4-2
		c0-0.9,0.2-1.6,0.5-2.2c0.3-0.6,0.7-1,1.2-1.4s1-0.6,1.7-0.8c0.6-0.2,1.3-0.3,1.9-0.5c0.7-0.1,1.4-0.2,2-0.3
		c0.6-0.1,1.2-0.2,1.7-0.3c0.5-0.1,0.9-0.3,1.1-0.6c0.3-0.2,0.4-0.6,0.4-1.1c0-0.6-0.1-1-0.3-1.3s-0.5-0.6-0.8-0.8s-0.7-0.3-1.1-0.4
		c-0.4-0.1-0.8-0.1-1.2-0.1c-1.1,0-2,0.2-2.7,0.6c-0.7,0.4-1.1,1.2-1.2,2.3h-2.6c0-1,0.2-1.8,0.6-2.4c0.4-0.7,0.8-1.2,1.4-1.6
		c0.6-0.4,1.3-0.7,2.1-0.9c0.8-0.2,1.6-0.3,2.5-0.3c0.7,0,1.4,0,2.1,0.2c0.7,0.1,1.3,0.3,1.9,0.6c0.6,0.3,1,0.7,1.3,1.3
		c0.3,0.6,0.5,1.3,0.5,2.2v8c0,0.6,0,1,0.1,1.3s0.3,0.4,0.7,0.4c0.2,0,0.5,0,0.8-0.1V232.5z M1134.5,224.5c-0.3,0.2-0.7,0.4-1.3,0.5
		s-1.1,0.2-1.6,0.3c-0.6,0.1-1.1,0.1-1.7,0.2c-0.6,0.1-1.1,0.2-1.6,0.4c-0.5,0.2-0.8,0.5-1.1,0.9s-0.4,0.9-0.4,1.5
		c0,0.4,0.1,0.8,0.3,1.1s0.4,0.5,0.7,0.7c0.3,0.2,0.6,0.3,0.9,0.4c0.4,0.1,0.7,0.1,1.1,0.1c0.8,0,1.6-0.1,2.2-0.3
		c0.6-0.2,1.1-0.5,1.5-0.9s0.7-0.7,0.8-1.1c0.2-0.4,0.3-0.8,0.3-1.1V224.5z"/>
	<path d="M1152.6,236.9c-1.2,1.3-3,1.9-5.5,1.9c-0.7,0-1.5-0.1-2.2-0.2c-0.8-0.2-1.4-0.4-2-0.8c-0.6-0.4-1.1-0.8-1.5-1.4
		s-0.6-1.3-0.7-2.1h2.6c0,0.5,0.2,0.8,0.4,1.2c0.3,0.3,0.6,0.6,1,0.8c0.4,0.2,0.8,0.3,1.3,0.4s0.9,0.1,1.3,0.1
		c0.8,0,1.5-0.1,2.1-0.4s1.1-0.7,1.4-1.2c0.4-0.5,0.7-1.1,0.8-1.8s0.3-1.5,0.3-2.4v-1h-0.1c-0.4,1-1.1,1.7-2,2.1
		c-0.9,0.5-1.8,0.7-2.8,0.7c-1.2,0-2.2-0.2-3-0.6c-0.9-0.4-1.6-1-2.2-1.7c-0.6-0.7-1-1.5-1.3-2.5c-0.3-0.9-0.4-2-0.4-3
		c0-0.9,0.1-1.9,0.4-2.8c0.2-1,0.6-1.8,1.2-2.6c0.6-0.8,1.3-1.4,2.2-2c0.9-0.5,2-0.8,3.4-0.8c1,0,1.9,0.2,2.7,0.6
		c0.8,0.4,1.5,1.1,1.9,1.9h0V217h2.4v14.2C1154.3,233.7,1153.8,235.6,1152.6,236.9z M1149.3,229.9c0.6-0.3,1.1-0.8,1.4-1.4
		c0.4-0.6,0.6-1.2,0.8-1.9c0.2-0.7,0.3-1.4,0.3-2.2c0-0.7-0.1-1.3-0.2-2s-0.4-1.3-0.8-1.8c-0.4-0.5-0.8-1-1.4-1.3
		c-0.6-0.3-1.2-0.5-2-0.5c-0.8,0-1.5,0.2-2.1,0.5c-0.6,0.3-1.1,0.7-1.4,1.2c-0.4,0.5-0.6,1.1-0.8,1.8c-0.2,0.7-0.3,1.4-0.3,2.1
		c0,0.7,0.1,1.4,0.2,2.1c0.1,0.7,0.4,1.3,0.7,1.9c0.3,0.6,0.8,1,1.3,1.4c0.6,0.3,1.3,0.5,2.1,0.5S1148.8,230.3,1149.3,229.9z"/>
	<path d="M1169.2,231.5c-1.2,0.9-2.6,1.3-4.4,1.3c-1.2,0-2.3-0.2-3.2-0.6c-0.9-0.4-1.7-1-2.3-1.7s-1.1-1.6-1.4-2.6
		c-0.3-1-0.5-2.1-0.5-3.3c0-1.2,0.2-2.3,0.5-3.2c0.4-1,0.9-1.8,1.5-2.5s1.4-1.3,2.3-1.7c0.9-0.4,1.9-0.6,2.9-0.6
		c1.4,0,2.5,0.3,3.4,0.9c0.9,0.6,1.6,1.3,2.2,2.2c0.5,0.9,0.9,1.8,1.1,2.9s0.3,2,0.3,3H1160c0,0.7,0.1,1.3,0.2,1.9
		c0.2,0.6,0.5,1.2,0.9,1.6s0.9,0.8,1.5,1.1s1.3,0.4,2.2,0.4c1.1,0,2-0.2,2.7-0.8c0.7-0.5,1.1-1.3,1.4-2.3h2.5
		C1171.1,229.3,1170.3,230.6,1169.2,231.5z M1168.5,221.6c-0.2-0.5-0.5-1-0.9-1.4c-0.4-0.4-0.9-0.7-1.4-0.9
		c-0.5-0.2-1.1-0.3-1.8-0.3c-0.7,0-1.3,0.1-1.8,0.3c-0.5,0.2-1,0.5-1.4,0.9c-0.4,0.4-0.7,0.9-0.9,1.4c-0.2,0.5-0.3,1.1-0.4,1.7h8.9
		C1168.9,222.7,1168.8,222.1,1168.5,221.6z"/>
	<path d="M1176.7,217v2.5h0.1c1.1-1.9,2.7-2.8,5-2.8c1,0,1.9,0.1,2.5,0.4c0.7,0.3,1.2,0.7,1.7,1.2c0.4,0.5,0.7,1.1,0.9,1.8
		c0.2,0.7,0.3,1.5,0.3,2.3v10.2h-2.5V222c0-1-0.3-1.7-0.8-2.3c-0.6-0.6-1.3-0.8-2.3-0.8c-0.8,0-1.5,0.1-2,0.4s-1,0.6-1.4,1
		c-0.4,0.4-0.7,1-0.9,1.5c-0.2,0.6-0.3,1.2-0.3,1.9v8.8h-2.5V217H1176.7z"/>
	<path d="M1202.3,232.5v-2.1h-0.1c-0.4,0.9-1.1,1.5-2,1.9c-0.9,0.4-1.9,0.6-3,0.6c-1.2,0-2.2-0.2-3.1-0.7s-1.6-1-2.2-1.8
		c-0.6-0.7-1-1.6-1.3-2.6c-0.3-1-0.5-2-0.5-3.1s0.1-2.1,0.4-3.1c0.3-1,0.7-1.8,1.3-2.6c0.6-0.7,1.3-1.3,2.2-1.7
		c0.9-0.4,1.9-0.6,3.1-0.6c0.4,0,0.8,0,1.3,0.1c0.5,0.1,0.9,0.2,1.4,0.4s0.9,0.4,1.3,0.8c0.4,0.3,0.8,0.7,1,1.2h0.1v-8h2.5v21.4
		H1202.3z M1193.1,227c0.2,0.7,0.5,1.3,0.9,1.8c0.4,0.5,0.9,1,1.5,1.3c0.6,0.3,1.3,0.5,2.1,0.5c0.9,0,1.6-0.2,2.2-0.5
		c0.6-0.3,1.1-0.8,1.5-1.3c0.4-0.5,0.7-1.2,0.8-1.9c0.2-0.7,0.3-1.4,0.3-2.1c0-0.8-0.1-1.5-0.3-2.2c-0.2-0.7-0.5-1.3-0.9-1.9
		c-0.4-0.5-0.9-1-1.5-1.3s-1.4-0.5-2.2-0.5c-0.9,0-1.6,0.2-2.2,0.5c-0.6,0.3-1.1,0.8-1.4,1.4c-0.4,0.6-0.6,1.2-0.8,1.9
		s-0.2,1.5-0.2,2.2C1192.8,225.6,1192.9,226.3,1193.1,227z"/>
	<path d="M1219.4,235.1c-0.6-1.1-1.1-2.2-1.5-3.4c-0.4-1.1-0.7-2.3-0.9-3.5c-0.2-1.2-0.3-2.5-0.3-3.8c0-2.4,0.4-4.7,1.2-7.1
		c0.8-2.4,2-4.6,3.5-6.7h2c-1.4,2.3-2.5,4.5-3.1,6.8c-0.6,2.2-0.9,4.6-0.9,7.1c0,2.5,0.3,4.9,0.9,7.2c0.6,2.3,1.6,4.5,3,6.8h-2
		C1220.6,237.3,1219.9,236.2,1219.4,235.1z"/>
	<path d="M1238.4,225.3v2.2h-2.9v5h-2.4v-5h-9.3v-2.5l9.7-13.8h2v14H1238.4z M1233.1,214.9L1233.1,214.9l-7.1,10.4h7.1V214.9z"/>
	<path d="M1245.5,229.2v3c0,1.1-0.3,2.1-0.8,2.9c-0.5,0.8-1.4,1.4-2.5,1.7v-1.5c0.3-0.1,0.6-0.3,0.9-0.5c0.2-0.2,0.4-0.5,0.6-0.8
		c0.1-0.3,0.2-0.5,0.3-0.8c0-0.3,0.1-0.5,0-0.8h-1.8v-3.3H1245.5z"/>
	<path d="M1253.5,213.8l-1.1,6.1l0.1,0.1c0.5-0.5,1.1-0.9,1.8-1.2c0.7-0.2,1.5-0.4,2.2-0.4c0.9,0,1.8,0.1,2.7,0.5
		c0.8,0.3,1.6,0.8,2.2,1.4c0.6,0.6,1.1,1.4,1.5,2.3c0.4,0.9,0.5,2,0.5,3.2c0,0.9-0.2,1.8-0.5,2.6c-0.3,0.8-0.8,1.6-1.4,2.3
		c-0.6,0.7-1.4,1.2-2.3,1.6s-2,0.6-3.3,0.6c-0.9,0-1.8-0.1-2.6-0.4c-0.8-0.3-1.5-0.7-2.1-1.2s-1.1-1.1-1.5-1.9
		c-0.4-0.8-0.6-1.6-0.6-2.6h2.5c0,0.5,0.2,1,0.4,1.5c0.2,0.5,0.5,0.9,0.9,1.2c0.4,0.4,0.9,0.6,1.4,0.8c0.5,0.2,1.1,0.3,1.8,0.3
		c0.6,0,1.2-0.1,1.7-0.3s1-0.5,1.4-0.9c0.4-0.4,0.7-0.9,1-1.6c0.2-0.6,0.4-1.4,0.4-2.2c0-0.7-0.1-1.3-0.3-1.9
		c-0.2-0.6-0.6-1.1-1-1.5c-0.4-0.4-0.9-0.8-1.5-1c-0.6-0.2-1.2-0.4-2-0.4c-0.8,0-1.6,0.2-2.2,0.6c-0.7,0.4-1.2,0.9-1.7,1.5l-2.2-0.1
		l2-11h10.5v2.2H1253.5z"/>
	<path d="M1267.4,231.7c0.6-2.2,0.9-4.6,0.9-7c0-2.5-0.3-4.9-0.9-7.2c-0.6-2.3-1.6-4.6-3-6.9h1.9c0.7,1.1,1.4,2.2,1.9,3.3
		s1.1,2.2,1.5,3.4c0.4,1.2,0.7,2.3,0.9,3.5c0.2,1.2,0.3,2.5,0.3,3.8c0,2.4-0.4,4.7-1.2,7.1s-2,4.6-3.5,6.7h-1.9
		C1265.8,236.2,1266.8,233.9,1267.4,231.7z"/>
</g>
</svg>
