<?xml version="1.0" encoding="utf-8"?>
<!-- Generator: Adobe Illustrator 25.4.0, SVG Export Plug-In . SVG Version: 6.00 Build 0)  -->
<svg version="1.1" id="Ebene_1" xmlns="http://www.w3.org/2000/svg" xmlns:xlink="http://www.w3.org/1999/xlink" x="0px" y="0px"
	 viewBox="0 0 236 138" style="enable-background:new 0 0 236 138;" xml:space="preserve">
<style type="text/css">
	.st0{fill:#F8F8F8;stroke:#17813D;stroke-width:4;stroke-miterlimit:10;}
	.st1{fill:#17813D;stroke:#17813D;}
	.st2{fill:#17813D;stroke:#17813D;stroke-width:2;}
	.st3{fill:#17813D;stroke:#17813D;stroke-miterlimit:10;}
</style>
<path class="st0" d="M26,12v84h185V12h-48.9l-0.3,45.4l-87.3-0.3L74.2,12H26z"/>
<path class="st1" d="M36.6,109.4l-9.1-3.3l9.1-3.3V109.4z"/>
<path class="st1" d="M200.6,102.7l9.1,3.3l-9.1,3.3V102.7z"/>
<path class="st2" d="M35.1,106h168"/>
<path class="st3" d="M119,124.4c2.1,0,2.8-1.3,3.2-1.9h0.2v1.7h1.6v-14.5h-1.7v5.4h-0.1c-0.4-0.6-1-1.9-3.2-1.9
	c-2.8,0-4.7,2.2-4.7,5.6C114.4,122.3,116.3,124.4,119,124.4z M119.2,122.9c-2.1,0-3.2-1.8-3.2-4.2c0-2.3,1.1-4.1,3.2-4.1
	c2,0,3.1,1.6,3.1,4.1C122.4,121.2,121.2,122.9,119.2,122.9z"/>
</svg>
