<?xml version="1.0" encoding="utf-8"?>
<!-- Generator: Adobe Illustrator 25.4.0, SVG Export Plug-In . SVG Version: 6.00 Build 0)  -->
<svg version="1.1" id="Ebene_1" xmlns="http://www.w3.org/2000/svg" xmlns:xlink="http://www.w3.org/1999/xlink" x="0px" y="0px"
	 viewBox="0 0 236 138" style="enable-background:new 0 0 236 138;" xml:space="preserve">
<style type="text/css">
	.st0{clip-path:url(#SVGID_00000035496350647333705780000011359262200099523730_);}
	.st1{fill:#F8F8F8;stroke:#17813D;stroke-width:4;stroke-miterlimit:10;}
	.st2{fill:#17813D;stroke:#17813D;}
	.st3{fill:#17813D;stroke:#17813D;stroke-width:2;}
	.st4{fill:#17813D;stroke:#17813D;stroke-miterlimit:10;}
</style>
<g>
	<defs>
		<rect id="SVGID_1_" width="236" height="138"/>
	</defs>
	<clipPath id="SVGID_00000183226624893562635620000012920593714982100864_">
		<use xlink:href="#SVGID_1_"  style="overflow:visible;"/>
	</clipPath>
	<g style="clip-path:url(#SVGID_00000183226624893562635620000012920593714982100864_);">
		<path class="st1" d="M26,26v84h185V26h-48.9l-0.3,45.4l-87.3-0.3L74.2,26H26z"/>
		<path class="st2" d="M11.9,34.6l3.3-9.1l3.3,9.1H11.9z"/>
		<path class="st2" d="M18.6,102.6l-3.3,9.1l-3.3-9.1H18.6z"/>
		<path class="st3" d="M15.2,33.1v72"/>
		<path class="st4" d="M6.4,75.6c2.2,0,3.8-1.1,4.3-2.8l-1.6-0.5c-0.4,1.1-1.4,1.7-2.7,1.7c-2,0-3.3-1.3-3.4-3.6h7.9v-0.7
			c0-4.1-2.4-5.5-4.7-5.5c-3,0-4.9,2.3-4.9,5.7C1.3,73.4,3.2,75.6,6.4,75.6z M3,69.1c0.1-1.7,1.3-3.2,3.2-3.2c1.8,0,3,1.4,3,3.2H3z"
			/>
	</g>
</g>
</svg>
