<?xml version="1.0" encoding="utf-8"?>
<!-- Generator: Adobe Illustrator 25.4.0, SVG Export Plug-In . SVG Version: 6.00 Build 0)  -->
<svg version="1.1" id="Ebene_1" xmlns="http://www.w3.org/2000/svg" xmlns:xlink="http://www.w3.org/1999/xlink" x="0px" y="0px"
	 viewBox="0 0 236 138" style="enable-background:new 0 0 236 138;" xml:space="preserve">
<style type="text/css">
	.st0{fill:#F8F8F8;stroke:#17813D;stroke-width:4;stroke-miterlimit:10;}
	.st1{fill:#17813D;stroke:#17813D;}
	.st2{fill:#17813D;stroke:#17813D;stroke-width:2;}
	.st3{fill:#17813D;stroke:#17813D;stroke-miterlimit:10;}
</style>
<path class="st0" d="M26,42v84h185V42h-48.9l-0.3,45.4l-87.3-0.3L74.2,42H26z"/>
<path class="st1" d="M34.6,34.8l-9.1-3.3l9.1-3.3V34.8z"/>
<path class="st1" d="M66.6,28.1l9.1,3.3l-9.1,3.3V28.1z"/>
<path class="st2" d="M33.1,31.5h36"/>
<path class="st3" d="M53.8,13.3h-2.4v-1.1c0-1.1,0.5-1.6,1.6-1.6c0.5,0,0.8,0.1,0.9,0.2l0.5-1.4C54.1,9.2,53.6,9,52.8,9
	c-1.6,0-3.1,0.9-3.1,2.8v1.5H48v1.4h1.8v9.5h1.7v-9.5h2.4V13.3z"/>
</svg>
