<?xml version="1.0" encoding="utf-8"?>
<!-- Generator: Adobe Illustrator 25.4.0, SVG Export Plug-In . SVG Version: 6.00 Build 0)  -->
<svg version="1.1" id="Ebene_1" xmlns="http://www.w3.org/2000/svg" xmlns:xlink="http://www.w3.org/1999/xlink" x="0px" y="0px"
	 viewBox="0 0 236 138" style="enable-background:new 0 0 236 138;" xml:space="preserve">
<style type="text/css">
	.st0{fill:#F8F8F8;stroke:#17813D;stroke-width:4;stroke-miterlimit:10;}
	.st1{fill:#17813D;stroke:#17813D;}
	.st2{fill:#17813D;stroke:#17813D;stroke-width:2;}
	.st3{fill:#17813D;stroke:#17813D;stroke-miterlimit:10;}
</style>
<path class="st0" d="M26,28v84h185V28h-48.9l-0.3,45.4l-87.3-0.3L74.2,28H26z"/>
<path class="st1" d="M81.2,36.6l3.3-9.1l3.3,9.1H81.2z"/>
<path class="st1" d="M87.9,60.6l-3.3,9.1l-3.3-9.1H87.9z"/>
<path class="st2" d="M84.5,35.1v28"/>
<path class="st3" d="M94.3,59.7c2.6,0,4.7-1.2,4.7-4V44.5h-1.6v1.7h-0.2c-0.4-0.6-1.1-1.9-3.2-1.9c-2.8,0-4.7,2.2-4.7,5.5
	c0,3.4,2,5.3,4.6,5.3c2.1,0,2.8-1.2,3.2-1.8h0.1v2.2c0,1.8-1.3,2.6-3,2.6c-2,0-2.7-1-3.1-1.6l-1.3,0.9
	C90.5,58.7,91.8,59.7,94.3,59.7z M94.2,53.7c-2.1,0-3.2-1.6-3.2-3.9c0-2.2,1.1-4,3.2-4c2,0,3.1,1.6,3.1,4
	C97.3,52.3,96.2,53.7,94.2,53.7z"/>
</svg>
