<?xml version="1.0" encoding="utf-8"?>
<!-- Generator: Adobe Illustrator 25.4.0, SVG Export Plug-In . SVG Version: 6.00 Build 0)  -->
<svg version="1.1" id="Ebene_1" xmlns="http://www.w3.org/2000/svg" xmlns:xlink="http://www.w3.org/1999/xlink" x="0px" y="0px"
	 viewBox="0 0 236 138" style="enable-background:new 0 0 236 138;" xml:space="preserve">
<style type="text/css">
	.st0{fill:#F8F8F8;stroke:#17813D;stroke-width:4;stroke-miterlimit:10;}
	.st1{fill:#17813D;stroke:#17813D;}
	.st2{fill:#17813D;stroke:#17813D;stroke-width:2;}
	.st3{fill:#17813D;stroke:#17813D;stroke-miterlimit:10;}
</style>
<path class="st0" d="M26,27v84h185V27h-48.9l-0.3,45.4l-87.3-0.3L74.2,27H26z"/>
<path class="st1" d="M87.6,65.8l-9.1-3.3l9.1-3.3V65.8z"/>
<path class="st1" d="M149.6,59.1l9.1,3.3l-9.1,3.3V59.1z"/>
<path class="st2" d="M86.1,62.5h66"/>
<path class="st3" d="M116.4,48.7c0-1.9,1.2-3,2.9-3c1.6,0,2.5,1,2.5,2.7v6.8h1.7v-6.9c0-2.8-1.5-4.1-3.7-4.1c-1.7,0-2.7,0.7-3.2,1.8
	h-0.1v-5.3h-1.7v14.5h1.7V48.7z"/>
</svg>
