<svg width="110" height="168" viewBox="0 0 110 168" fill="none" xmlns="http://www.w3.org/2000/svg">
<rect x="20.5" y="20.5" width="69" height="47" rx="5.5" fill="white" stroke="#D9D9D9"/>
<path fill-rule="evenodd" clip-rule="evenodd" d="M41.2505 52.5165H37.0099L33.8299 40.3847C33.679 39.8267 33.3585 39.3333 32.8871 39.1008C31.7106 38.5165 30.4142 38.0514 29 37.8169V37.3498H35.8313C36.7742 37.3498 37.4813 38.0514 37.5991 38.8663L39.2491 47.6173L43.4877 37.3498H47.6104L41.2505 52.5165ZM49.9675 52.5165H45.9626L49.2604 37.3498H53.2653L49.9675 52.5165ZM58.4467 41.5514C58.5646 40.7346 59.2717 40.2675 60.0967 40.2675C61.3931 40.1502 62.8052 40.3848 63.9838 40.9671L64.6909 37.7016C63.5123 37.2345 62.216 37 61.0395 37C57.1524 37 54.3239 39.1008 54.3239 42.0165C54.3239 44.2346 56.3274 45.3992 57.7417 46.1008C59.2717 46.8004 59.861 47.2675 59.7431 47.9671C59.7431 49.0165 58.5646 49.4836 57.3881 49.4836C55.9739 49.4836 54.5596 49.1338 53.2653 48.5494L52.5582 51.8169C53.9724 52.3992 55.5025 52.6338 56.9167 52.6338C61.2752 52.749 63.9838 50.6502 63.9838 47.5C63.9838 43.5329 58.4467 43.3004 58.4467 41.5514ZM78 52.5165L74.82 37.3498H71.4044C70.6972 37.3498 69.9901 37.8169 69.7544 38.5165L63.8659 52.5165H67.9887L68.8116 50.3004H73.8772L74.3486 52.5165H78ZM71.9936 41.4342L73.1701 47.1502H69.8723L71.9936 41.4342Z" fill="#172B85"/>
<rect x="20.5" y="88.5" width="34" height="23" rx="3.5" fill="white" stroke="#D9D9D9"/>
<path fill-rule="evenodd" clip-rule="evenodd" d="M30.6253 104.258H28.5049L26.915 98.1924C26.8395 97.9133 26.6792 97.6667 26.4435 97.5504C25.8553 97.2582 25.2071 97.0257 24.5 96.9084V96.6749H27.9157C28.3871 96.6749 28.7406 97.0257 28.7996 97.4331L29.6245 101.809L31.7438 96.6749H33.8052L30.6253 104.258ZM34.9838 104.258H32.9813L34.6302 96.6749H36.6327L34.9838 104.258ZM39.2234 98.7757C39.2823 98.3673 39.6359 98.1337 40.0483 98.1337C40.6965 98.0751 41.4026 98.1924 41.9919 98.4835L42.3454 96.8508C41.7562 96.6173 41.108 96.5 40.5198 96.5C38.5762 96.5 37.162 97.5504 37.162 99.0082C37.162 100.117 38.1637 100.7 38.8708 101.05C39.6359 101.4 39.9305 101.634 39.8716 101.984C39.8716 102.508 39.2823 102.742 38.6941 102.742C37.9869 102.742 37.2798 102.567 36.6327 102.275L36.2791 103.908C36.9862 104.2 37.7512 104.317 38.4584 104.317C40.6376 104.375 41.9919 103.325 41.9919 101.75C41.9919 99.7665 39.2234 99.6502 39.2234 98.7757ZM49 104.258L47.41 96.6749H45.7022C45.3486 96.6749 44.9951 96.9084 44.8772 97.2582L41.9329 104.258H43.9943L44.4058 103.15H46.9386L47.1743 104.258H49ZM45.9968 98.7171L46.585 101.575H44.9361L45.9968 98.7171Z" fill="#172B85"/>
<rect x="20.5" y="132.5" width="22" height="15" rx="2" fill="white" stroke="#D9D9D9"/>
<path fill-rule="evenodd" clip-rule="evenodd" d="M27.0252 142.839H25.6318L24.587 138.795C24.5374 138.609 24.4321 138.444 24.2772 138.367C23.8906 138.172 23.4647 138.017 23 137.939V137.783H25.2446C25.5544 137.783 25.7867 138.017 25.8254 138.289L26.3676 141.206L27.7602 137.783H29.1149L27.0252 142.839ZM29.8893 142.839H28.5734L29.657 137.783H30.9729L29.8893 142.839ZM32.6754 139.184C32.7141 138.912 32.9464 138.756 33.2175 138.756C33.6434 138.717 34.1074 138.795 34.4947 138.989L34.727 137.901C34.3398 137.745 33.9138 137.667 33.5273 137.667C32.2501 137.667 31.3207 138.367 31.3207 139.339C31.3207 140.078 31.979 140.466 32.4437 140.7C32.9464 140.933 33.14 141.089 33.1013 141.322C33.1013 141.672 32.7141 141.828 32.3275 141.828C31.8629 141.828 31.3982 141.711 30.9729 141.516L30.7406 142.606C31.2052 142.8 31.708 142.878 32.1726 142.878C33.6047 142.916 34.4947 142.217 34.4947 141.167C34.4947 139.844 32.6754 139.767 32.6754 139.184ZM39.1 142.839L38.0552 137.783H36.9329C36.7005 137.783 36.4682 137.939 36.3907 138.172L34.4559 142.839H35.8106L36.081 142.1H37.7454L37.9003 142.839H39.1ZM37.1265 139.145L37.513 141.05H36.4294L37.1265 139.145Z" fill="#172B85"/>
<rect x="0.5" y="0.5" width="109" height="167" rx="4.5" stroke="#7B61FF" stroke-dasharray="10 5"/>
</svg>
