<?xml version="1.0" standalone="no"?>
<svg xmlns:xlink="http://www.w3.org/1999/xlink" id="wave" style="transform:rotate(0deg); transition: 0.3s" viewBox="0 0 1440 370" version="1.1" xmlns="http://www.w3.org/2000/svg"><defs><linearGradient id="sw-gradient-0" x1="0" x2="0" y1="1" y2="0"><stop stop-color="rgba(13.546, 91.131, 207.508, 1)" offset="0%"/><stop stop-color="rgba(146.34, 179.914, 230.276, 1)" offset="100%"/></linearGradient></defs><path style="transform:translate(0, 0px); opacity:1" fill="url(#sw-gradient-0)" d="M0,185L60,191.2C120,197,240,210,360,197.3C480,185,600,148,720,123.3C840,99,960,86,1080,80.2C1200,74,1320,74,1440,98.7C1560,123,1680,173,1800,215.8C1920,259,2040,296,2160,296C2280,296,2400,259,2520,203.5C2640,148,2760,74,2880,37C3000,0,3120,0,3240,6.2C3360,12,3480,25,3600,49.3C3720,74,3840,111,3960,117.2C4080,123,4200,99,4320,129.5C4440,160,4560,247,4680,283.7C4800,321,4920,308,5040,252.8C5160,197,5280,99,5400,86.3C5520,74,5640,148,5760,148C5880,148,6000,74,6120,55.5C6240,37,6360,74,6480,129.5C6600,185,6720,259,6840,289.8C6960,321,7080,308,7200,283.7C7320,259,7440,222,7560,215.8C7680,210,7800,234,7920,222C8040,210,8160,160,8280,141.8C8400,123,8520,136,8580,141.8L8640,148L8640,370L8580,370C8520,370,8400,370,8280,370C8160,370,8040,370,7920,370C7800,370,7680,370,7560,370C7440,370,7320,370,7200,370C7080,370,6960,370,6840,370C6720,370,6600,370,6480,370C6360,370,6240,370,6120,370C6000,370,5880,370,5760,370C5640,370,5520,370,5400,370C5280,370,5160,370,5040,370C4920,370,4800,370,4680,370C4560,370,4440,370,4320,370C4200,370,4080,370,3960,370C3840,370,3720,370,3600,370C3480,370,3360,370,3240,370C3120,370,3000,370,2880,370C2760,370,2640,370,2520,370C2400,370,2280,370,2160,370C2040,370,1920,370,1800,370C1680,370,1560,370,1440,370C1320,370,1200,370,1080,370C960,370,840,370,720,370C600,370,480,370,360,370C240,370,120,370,60,370L0,370Z"/><defs><linearGradient id="sw-gradient-1" x1="0" x2="0" y1="1" y2="0"><stop stop-color="rgba(28, 100, 242, 1)" offset="0%"/><stop stop-color="rgba(28, 100, 242, 1)" offset="100%"/></linearGradient></defs><path style="transform:translate(0, 50px); opacity:0.9" fill="url(#sw-gradient-1)" d="M0,74L60,104.8C120,136,240,197,360,197.3C480,197,600,136,720,141.8C840,148,960,222,1080,234.3C1200,247,1320,197,1440,166.5C1560,136,1680,123,1800,104.8C1920,86,2040,62,2160,61.7C2280,62,2400,86,2520,135.7C2640,185,2760,259,2880,259C3000,259,3120,185,3240,178.8C3360,173,3480,234,3600,259C3720,284,3840,271,3960,222C4080,173,4200,86,4320,67.8C4440,49,4560,99,4680,104.8C4800,111,4920,74,5040,104.8C5160,136,5280,234,5400,265.2C5520,296,5640,259,5760,228.2C5880,197,6000,173,6120,166.5C6240,160,6360,173,6480,148C6600,123,6720,62,6840,86.3C6960,111,7080,222,7200,246.7C7320,271,7440,210,7560,160.3C7680,111,7800,74,7920,86.3C8040,99,8160,160,8280,154.2C8400,148,8520,74,8580,37L8640,0L8640,370L8580,370C8520,370,8400,370,8280,370C8160,370,8040,370,7920,370C7800,370,7680,370,7560,370C7440,370,7320,370,7200,370C7080,370,6960,370,6840,370C6720,370,6600,370,6480,370C6360,370,6240,370,6120,370C6000,370,5880,370,5760,370C5640,370,5520,370,5400,370C5280,370,5160,370,5040,370C4920,370,4800,370,4680,370C4560,370,4440,370,4320,370C4200,370,4080,370,3960,370C3840,370,3720,370,3600,370C3480,370,3360,370,3240,370C3120,370,3000,370,2880,370C2760,370,2640,370,2520,370C2400,370,2280,370,2160,370C2040,370,1920,370,1800,370C1680,370,1560,370,1440,370C1320,370,1200,370,1080,370C960,370,840,370,720,370C600,370,480,370,360,370C240,370,120,370,60,370L0,370Z"/></svg>