<?xml version="1.0" encoding="utf-8"?>
<!-- Generator: Adobe Illustrator 25.4.0, SVG Export Plug-In . SVG Version: 6.00 Build 0)  -->
<svg version="1.1" id="Ebene_1" xmlns="http://www.w3.org/2000/svg" xmlns:xlink="http://www.w3.org/1999/xlink" x="0px" y="0px"
	 viewBox="0 0 500 500" style="enable-background:new 0 0 500 500;" xml:space="preserve">
<style type="text/css">
	.st0{display:none;fill:#FFFFFF;}
	.st1{fill:#BE1622;}
</style>
<g id="qdRCa2_00000030471254236501156060000008548972176017790350_">
	<g>
		<path class="st0" d="M362.5,363c-75,0-150,0-225,0c0-75,0-150,0-225c75,0,150,0,225,0C362.5,213,362.5,288,362.5,363z
			 M225.43,250.63c-16.9,16.87-33.46,33.41-49.28,49.21c8.36,8.35,16.39,16.39,24.96,24.95c15.98-15.99,32.43-32.46,49.34-49.4
			c16.55,16.58,33.08,33.14,48.88,48.96c8.35-8.36,16.39-16.4,24.95-24.96c-15.99-15.98-32.46-32.43-49.4-49.34
			c16.58-16.55,33.14-33.09,48.96-48.88c-8.36-8.35-16.39-16.39-24.96-24.95c-15.98,15.99-32.42,32.46-49.34,49.4
			c-16.55-16.58-33.08-33.14-48.88-48.96c-8.35,8.36-16.39,16.4-24.65,24.65C191.91,217.17,208.28,233.51,225.43,250.63z"/>
		<path class="st1" d="M204.5,250.24c-31.56-31.51-61.67-61.57-90.91-90.77c15.19-15.2,29.98-29.99,45.35-45.36
			c29.07,29.11,59.49,59.59,89.94,90.09c31.13-31.16,61.4-61.46,90.79-90.89c15.76,15.76,30.55,30.54,45.93,45.91
			c-29.11,29.07-59.58,59.49-90.08,89.95c31.16,31.13,61.46,61.39,90.89,90.79c-15.76,15.76-30.54,30.55-45.92,45.93
			c-29.07-29.11-59.49-59.59-89.94-90.08c-31.13,31.16-61.4,61.46-90.79,90.89c-15.76-15.76-30.55-30.54-45.93-45.91
			C142.94,311.71,173.41,281.29,204.5,250.24z"/>
	</g>
</g>
</svg>
