<?xml version="1.0" encoding="utf-8"?>
<!-- Generator: Adobe Illustrator 25.4.0, SVG Export Plug-In . SVG Version: 6.00 Build 0)  -->
<svg version="1.1" id="Ebene_1" xmlns="http://www.w3.org/2000/svg" xmlns:xlink="http://www.w3.org/1999/xlink" x="0px" y="0px"
	 viewBox="0 0 500 500" style="enable-background:new 0 0 500 500;" xml:space="preserve">
<style type="text/css">
	.st0{display:none;fill:#FFFFFF;}
</style>
<g id="S8jC0E_00000016780412247131801850000007055286424189361291_">
	<g>
		<path class="st0" d="M491.5,492c-161,0-322,0-483,0c0-161,0-322,0-483c161,0,322,0,483,0C491.5,170,491.5,331,491.5,492z
			 M343.29,410.48c-0.55-6.3-0.9-12.15-1.59-17.95c-3.51-29.58-12.5-57.37-29.86-81.68c-10.72-15.01-23.33-28.67-35.16-42.89
			c-4.58-5.5-4.65-10.25,0.06-15.69c7.37-8.52,14.74-17.03,22.11-25.55c23.62-27.28,37.28-59.03,42.23-94.62
			c1.01-7.25,1.52-14.58,2.31-22.27c1.27,0,2.5,0.01,3.73,0c4.48-0.03,8.97,0.08,13.45-0.13c3.33-0.16,5.72-2.71,6.07-5.98
			c0.38-3.55-1.44-6.67-4.64-7.54c-1.41-0.38-2.96-0.35-4.45-0.35c-71.51-0.01-143.03,0-214.54,0c-1.15,0-2.31-0.04-3.45,0.06
			c-3.59,0.32-6.13,3-6.26,6.57c-0.17,4.35,2.58,7.25,7.24,7.34c5.37,0.11,10.73,0.02,16.15,0.02c0.52,5.87,0.9,11.24,1.49,16.6
			c4.15,37.3,17.67,70.65,42.12,99.35c7.6,8.92,15.34,17.73,23,26.6c4.58,5.3,4.62,10.22,0.12,15.42
			c-7.14,8.26-14.26,16.54-21.45,24.75c-24.1,27.52-38.11,59.58-43.07,95.69c-1,7.25-1.54,14.56-2.34,22.25
			c-5.2,0-10.34-0.05-15.49,0.01c-5.05,0.06-7.83,2.67-7.8,7.15c0.03,4.2,2.92,6.83,7.78,6.83c72.55,0.02,145.1,0.02,217.65,0
			c5.1,0,7.99-2.6,7.98-6.96c-0.01-4.42-2.83-6.97-7.93-7.04C353.73,410.43,348.69,410.48,343.29,410.48z"/>
		<path d="M343.29,410.48c5.4,0,10.44-0.05,15.48,0.01c5.1,0.06,7.92,2.62,7.93,7.04c0.01,4.35-2.88,6.96-7.98,6.96
			c-72.55,0.02-145.1,0.02-217.65,0c-4.86,0-7.75-2.63-7.78-6.83c-0.04-4.49,2.75-7.09,7.8-7.15c5.15-0.06,10.29-0.01,15.49-0.01
			c0.79-7.69,1.34-15,2.34-22.25c4.96-36.11,18.97-68.17,43.07-95.69c7.19-8.21,14.31-16.49,21.45-24.75
			c4.49-5.2,4.45-10.12-0.12-15.42c-7.66-8.87-15.4-17.68-23-26.6c-24.45-28.69-37.97-62.04-42.12-99.35
			c-0.6-5.35-0.97-10.73-1.49-16.6c-5.42,0-10.79,0.08-16.15-0.02c-4.66-0.09-7.41-2.99-7.24-7.34c0.14-3.56,2.67-6.25,6.26-6.57
			c1.14-0.1,2.3-0.06,3.45-0.06c71.51-0.01,143.03-0.01,214.54,0c1.49,0,3.04-0.04,4.45,0.35c3.2,0.87,5.02,4,4.64,7.54
			c-0.35,3.26-2.73,5.82-6.07,5.98c-4.47,0.21-8.96,0.1-13.45,0.13c-1.23,0.01-2.46,0-3.73,0c-0.78,7.69-1.3,15.02-2.31,22.27
			c-4.96,35.59-18.61,67.34-42.23,94.62c-7.37,8.51-14.74,17.03-22.11,25.55c-4.71,5.44-4.64,10.18-0.06,15.69
			c11.83,14.21,24.44,27.88,35.16,42.89c17.36,24.31,26.35,52.1,29.86,81.68C342.39,398.33,342.74,404.18,343.29,410.48z
			 M329.06,408.75c-0.59-6-0.98-11.6-1.71-17.16c-3.61-27.59-12.56-53.32-29.15-75.75c-10.16-13.74-21.84-26.36-32.89-39.44
			c-8.16-9.66-8.21-22.93,0.02-32.49c6.37-7.41,12.62-14.92,19.2-22.15c24.9-27.35,38.9-59.58,43.26-96.14
			c0.55-4.61,0.74-9.25,1.1-13.96c-52.88,0-105.14,0-157.56,0c0,1.39-0.07,2.53,0.01,3.66c2.48,37.68,14.67,71.59,39.23,100.66
			c7.94,9.39,16.09,18.61,24.1,27.94c8.24,9.61,8.22,22.92-0.01,32.47c-6.23,7.23-12.31,14.59-18.75,21.62
			c-25.24,27.55-39.38,60.08-43.75,97.01c-0.53,4.49-0.69,9.03-1.03,13.73C223.92,408.75,276.09,408.75,329.06,408.75z"/>
		<path class="st0" d="M329.06,408.75c-52.97,0-105.14,0-157.94,0c0.34-4.7,0.5-9.24,1.03-13.73c4.37-36.93,18.51-69.45,43.75-97.01
			c6.44-7.03,12.53-14.39,18.75-21.62c8.23-9.55,8.25-22.86,0.01-32.47c-8.01-9.34-16.16-18.55-24.1-27.94
			c-24.56-29.06-36.75-62.98-39.23-100.66c-0.07-1.13-0.01-2.27-0.01-3.66c52.42,0,104.68,0,157.56,0
			c-0.36,4.71-0.55,9.36-1.1,13.96c-4.37,36.56-18.36,68.79-43.26,96.14c-6.58,7.22-12.83,14.74-19.2,22.15
			c-8.22,9.56-8.18,22.83-0.02,32.49c11.05,13.08,22.73,25.7,32.89,39.44c16.59,22.44,25.54,48.16,29.15,75.75
			C328.07,397.16,328.47,402.76,329.06,408.75z M316.8,397.04c0-1.19,0.12-2.21-0.02-3.2c-3.66-27.36-13.05-52.48-29.42-74.86
			c-11.81-16.15-27.38-29.29-37.14-46.03c-3.49,4.66-7.01,9.71-10.89,14.46c-4.94,6.04-10.03,11.98-15.31,17.73
			c-20.67,22.51-33.5,48.9-39.21,78.83c-0.81,4.24-1.32,8.55-2,13.07C227.78,397.04,272.21,397.04,316.8,397.04z M291.63,194.94
			c-28.02,0-55.42,0-83.89,0c4.55,5.75,8.57,10.83,12.6,15.92c9.84,12.44,22.11,22.95,29.57,37.01
			C261.17,228.47,279.46,214.36,291.63,194.94z"/>
		<path d="M316.8,397.04c-44.59,0-89.02,0-133.99,0c0.68-4.52,1.19-8.83,2-13.07c5.71-29.93,18.54-56.31,39.21-78.83
			c5.28-5.75,10.37-11.69,15.31-17.73c3.88-4.75,7.4-9.8,10.89-14.46c9.76,16.75,25.32,29.88,37.14,46.03
			c16.37,22.37,25.75,47.49,29.42,74.86C316.91,394.83,316.8,395.85,316.8,397.04z"/>
		<path d="M291.63,194.94c-12.17,19.43-30.46,33.53-41.72,52.93c-7.45-14.06-19.72-24.56-29.57-37.01
			c-4.02-5.08-8.05-10.17-12.6-15.92C236.21,194.94,263.6,194.94,291.63,194.94z"/>
	</g>
</g>
</svg>
