<svg viewBox="143 251 512.4 507.33090753424653" version="1.1" xmlns="http://www.w3.org/2000/svg" style="max-height: 500px" width="512.4" height="507.33090753424653">
<path fill="#1D6EE5" d="m0 0 15 1 13 4 10 7 7 8 5 11 3 13v31l-4 13-5 8-7 7-7 4 11 7 7 9 5 13 1 9v36l-2 12-5 12-7 9-8 6-12 5-5 1h-25l-13-4-11-7-7-9-4-8-3-10-1-8v-25l2-1h30l1 1 1 27 4 8 4 3 3 1h12l6-2 4-10v-43l-4-8-5-4-8-2-16-1v-31l17-1 9-3 5-6 2-10v-25l-3-10-4-4-5-2h-9l-6 3-5 8-2 23h-31l-1-1v-21l4-15 6-11 10-10 10-5 8-2z" transform="translate(924,287)"/>
<path fill="#1D6EE5" d="m0 0h24l13 4 10 7 8 9 5 11 3 15v19l-4 16-5 12-7 12-10 14-13 15-11 12-10 13-6 12-2 13v6l64 1 1 1v30l-1 1h-98l-1-1v-36l3-17 7-16 6-10 7-9 11-13 10-11 11-14 7-12 5-16v-25l-4-8-4-3-3-1h-10l-7 3-4 6-2 9v22l-2 5h-30l-1-1v-31l4-16 6-11 9-9 12-6z" transform="translate(1043,288)"/>
<path fill="#3D3B3C" d="m0 0 8 6 46 46 8 7 27 27 8 7 58 58 8 7 29 29 7 6-2 4-13 13-7-6-14-14-8-7-15-15-8-7-76-76-8-7-7-7-8-7-31-31-4 1-48 48-8 7-17 16-78 78-8 7-12 12h-2v2l-5 4-4-2-8-8-4-6 24-24 8-7 55-55 8-7 39-39 8-7 46-46z" transform="translate(396,438)"/>
<path fill="#1E6EE5" d="m0 0 3 4 36 72 11 23 12 25 18 36v2l16 1 151 16 7 1-6 7-93 93-6 5-4-2-5-6 6-7 78-78 1-2-14-1-121-13-16-2-4-4-37-74-11-23-9-19-8-15-4-8v-2h-2l-3 9-26 52-11 23-25 50-3 5-7 2-126 17-26 4 4 5 8 7 15 15 8 7 15 14 17 17 8 7 11 10 2 5-7 7-4-2-9-9-8-7-20-20-8-7-16-15-13-13-8-7-7-7-8-7-8-8 1-2 58-8 102-14 17-3 10-19 10-21 45-90 11-23z" transform="translate(399,251)"/>
<path fill="#3B393A" d="m0 0h22l1 1v156h-23l-1-112-16 105-2 7h-20l-2-8-12-80-3-18v-8h-2v114h-21v-156h35l4 25 8 58 4 26 13-92 3-17z" transform="translate(941,581)"/>
<path fill="#3E3C3D" d="m0 0h46l13 4 7 6 5 10 2 11v20l-2 10-4 8-8 8 6 4 4 5 3 7 1 6 1 45 1 9 1 3-1 1h-20l-5-1-2-9-1-47-3-6-4-3-16-1v66l-3 1h-21l-1-3v-152zm24 22v45h14l6-3 3-4 1-4v-24l-3-7-5-3z" transform="translate(1415,582)"/>
<path fill="#3B393A" d="m0 0h46l12 3 8 6 6 11 2 16v12l-2 13-4 8-8 7 5 4 6 8 2 6 1 7 1 48 1 7-1 1h-21l-3-1-2-9-1-46-3-7-3-3-17-1v66l-5 1h-19l-1-1zm25 22v45h14l7-4 3-8v-23l-3-7-5-3z" transform="translate(1618,582)"/>
<path fill="#1D6EE5" d="m0 0h11l5 2 1 2 1 13v203l-2 1h-32l-1-1-1-167-35-1v-24l20-2 11-4 5-4h2l2-4 6-10 2-3z" transform="translate(1195,290)"/>
<path fill="#3F3D3E" d="m0 0h24l1 1 1 61 17-35 12-26 15-1h10l-1 5-23 45-4 9 16 53 13 44-1 2h-23l-3-3-17-57-2-8-3 4-6 12-1 39-1 12-1 1h-23z" transform="translate(1109,581)"/>
<path fill="#3C3A3B" d="m0 0h11l10 1 2 6 16 99 7 43v8l-5 1h-15l-4-1-4-24v-6h-28l-4 28-1 2h-23l10-65 15-90 1-1zm3 30-4 25-6 44v7h21l-1-15-8-58z" transform="translate(1032,581)"/>
<path fill="#3E3C3D" d="m0 0h67v22h-42v41l34 1v22h-34v48h42v23h-67l-1-49v-39z" transform="translate(1315,582)"/>
<path fill="#3B393A" d="m0 0h67v22h-42v42h34v21l-1 1h-33v48h42v22l-1 1h-66z" transform="translate(1727,582)"/>
<path fill="#3A3839" d="m0 0h12v480h-12z" transform="translate(725,265)"/>
<path fill="#3C3A3B" d="m0 0 52 1v21l-9 1h-31v44h31l1 1v21h-32v68l-1 1h-23l-1-1v-156z" transform="translate(1536,581)"/>
<path fill="#3E3C3D" d="m0 0h24l1 5v129h40v22l-1 1h-64l-1-15v-29z" transform="translate(1220,582)"/>
<path fill="#403E3F" d="m0 0h24v156l-1 1h-22l-1-1-1-14v-116z" transform="translate(1827,582)"/>
<path fill="#4D4B4C" d="m0 0h379v8l-1 1h-301l-77-1z" transform="translate(208,741)"/>
<path fill="#1F6FE5" d="m0 0h44v43h-44l-1-7v-35z" transform="translate(408,663)"/>
<path fill="#1F6FE5" d="m0 0h23l6 1v43h-43l-1-1v-42z" transform="translate(358,662)"/>
<path fill="#1D6DE4" d="m0 0h44v43h-43l-1-1z" transform="translate(343,600)"/>
<path fill="#1D6EE5" d="m0 0h31l7 1v42h-44v-42z" transform="translate(414,600)"/>
</svg>