<?xml version="1.0" encoding="utf-8"?>
<!-- Generator: Adobe Illustrator 25.4.0, SVG Export Plug-In . SVG Version: 6.00 Build 0)  -->
<svg version="1.1" id="Ebene_1" xmlns="http://www.w3.org/2000/svg" xmlns:xlink="http://www.w3.org/1999/xlink" x="0px" y="0px"
	 viewBox="0 0 500 500" style="enable-background:new 0 0 500 500;" xml:space="preserve">
<style type="text/css">
	.st0{display:none;}
	.st1{display:inline;}
	.st2{display:none;fill:#FFFFFF;}
	.st3{fill:#BE1622;}
</style>
<g id="qdRCa2_00000030471254236501156060000008548972176017790350_" class="st0">
	<g class="st1">
		<path class="st2" d="M362.5,363c-75,0-150,0-225,0c0-75,0-150,0-225c75,0,150,0,225,0C362.5,213,362.5,288,362.5,363z
			 M225.43,250.63c-16.9,16.87-33.46,33.41-49.28,49.21c8.36,8.35,16.39,16.39,24.96,24.95c15.98-15.99,32.43-32.46,49.34-49.4
			c16.55,16.58,33.08,33.14,48.88,48.96c8.35-8.36,16.39-16.4,24.95-24.96c-15.99-15.98-32.46-32.43-49.4-49.34
			c16.58-16.55,33.14-33.09,48.96-48.88c-8.36-8.35-16.39-16.39-24.96-24.95c-15.98,15.99-32.42,32.46-49.34,49.4
			c-16.55-16.58-33.08-33.14-48.88-48.96c-8.35,8.36-16.39,16.4-24.65,24.65C191.91,217.17,208.28,233.51,225.43,250.63z"/>
	</g>
</g>
<g id="_x39_zgzCD.tif">
	<g>
		<path class="st2" d="M505.5,506c-170.57,0-340.73,0-511,0c0-170.28,0-340.55,0-511c170.26,0,340.63,0,511,0
			C505.5,165.22,505.5,335.57,505.5,506z M336.33,416.52c0,0.01,0,0.03,0,0.04c37.93,0,75.86,0.04,113.79-0.03
			c9.31-0.02,18.66,0.13,27.9-0.7c9.17-0.83,15.97-8.7,15.33-17.81c-0.33-4.75-2.1-9.77-4.46-13.96
			c-39.26-69.71-78.72-139.31-118.14-208.93c-5.65-9.99-11.21-20.03-17.02-29.93c-8.66-14.75-25.17-14.81-33.97-0.23
			c-1.29,2.14-2.53,4.3-3.76,6.47c-40.38,71.37-80.75,142.75-121.14,214.12c-4.18,7.38-8.59,14.64-12.54,22.15
			c-6.01,11.42-1.23,24.06,10.41,27.57c3.27,0.99,6.88,1.18,10.33,1.18C247.49,416.54,291.91,416.52,336.33,416.52z M283.93,173.46
			c5.51-9.68,10.43-18.74,15.79-27.51c2.13-3.48,1.81-6.13-0.08-9.49c-33.53-59.68-102.32-91.17-169.22-77.34
			C45.83,76.59-9.35,159.99,7.58,244.78c14.76,73.91,79.7,126.99,155.25,127.23c6.37,0.02,10.39-1.41,13.21-7.52
			c3.4-7.38,7.9-14.24,11.88-21.35c0.65-1.17,1.11-2.45,1.78-3.95c-71.48,14.37-134.42-29.63-151.23-92.89
			c-16.8-63.23,17.73-129.42,79.56-152.59C181.95,69.76,258.58,101.26,283.93,173.46z M75.25,266.19
			c20.47-20.21,40.86-40.27,61.09-60.5c1.28-1.28,1.77-3.84,1.78-5.81c0.13-24.15,0.1-48.29,0.1-72.44c0-5.77,0-11.54,0-17.43
			C68.34,126.34,37.3,208.56,75.25,266.19z M172.88,162.11c0.01,0,0.01,0,0.02,0c0-1.83,0-3.67,0-5.5
			c-0.01-12.33-0.03-24.66-0.02-36.98c0-4.2-1.46-8.15-5.45-9.16c-2.94-0.74-7.07-0.04-9.52,1.67c-1.88,1.31-2.74,5.19-2.76,7.94
			c-0.19,27.82-0.06,55.64-0.24,83.46c-0.01,2.1-1.29,4.65-2.79,6.18c-4.25,4.3-6.75,9.17-5.88,15.2c0.46,3.2-0.65,5.21-2.68,7.42
			c-12.05,13.11-23.98,26.33-35.92,39.55c-4.23,4.69-4.38,9.56-0.59,13.28c3.99,3.91,9.21,3.61,13.54-1.11
			c12.27-13.36,24.37-26.88,36.73-40.16c1.45-1.55,4.08-2.68,6.23-2.77c7.76-0.35,13.87-4.17,16.76-11.18
			c2.82-6.82,1.32-14.64-4.38-19.58c-2.45-2.12-3.11-4.27-3.09-7.28C172.94,189.44,172.88,175.77,172.88,162.11z"/>
		<path class="st3" d="M336.33,416.52c-44.42,0-88.84,0.03-133.26-0.05c-3.45-0.01-7.06-0.2-10.33-1.18
			c-11.64-3.51-16.41-16.16-10.41-27.57c3.95-7.51,8.36-14.76,12.54-22.15c40.38-71.37,80.76-142.75,121.14-214.12
			c1.23-2.17,2.47-4.34,3.76-6.47c8.8-14.58,25.31-14.52,33.97,0.23c5.81,9.9,11.37,19.94,17.02,29.93
			c39.42,69.62,78.88,139.22,118.14,208.93c2.36,4.19,4.13,9.21,4.46,13.96c0.64,9.11-6.16,16.98-15.33,17.81
			c-9.25,0.84-18.6,0.69-27.9,0.7c-37.93,0.06-75.86,0.03-113.79,0.03C336.33,416.55,336.33,416.53,336.33,416.52z M321.68,275.41
			c0,15.16-0.06,30.32,0.02,45.49c0.05,9.33,6.25,15.54,15.19,15.46c8.81-0.08,14.91-6.51,14.91-15.83
			c0.02-29.66,0.01-59.31,0.01-88.97c0-9.65-6.05-16.44-14.78-16.65c-8.97-0.21-15.33,6.59-15.35,16.51
			C321.66,246.08,321.68,260.74,321.68,275.41z M336.81,377.05c7.9-0.03,14.12-6.39,14.01-14.33c-0.12-7.93-6.38-13.91-14.48-13.84
			c-7.76,0.07-13.67,6.16-13.64,14.04C322.74,371.08,328.72,377.08,336.81,377.05z"/>
		<path class="st3" d="M283.93,173.46c-25.34-72.2-101.97-103.7-165.89-79.75C56.2,116.88,21.67,183.07,38.47,246.3
			c16.81,63.27,79.74,107.26,151.23,92.89c-0.67,1.5-1.12,2.78-1.78,3.95c-3.98,7.11-8.48,13.98-11.88,21.35
			c-2.82,6.11-6.83,7.54-13.21,7.52c-75.55-0.24-140.5-53.32-155.25-127.23C-9.35,159.99,45.83,76.59,130.43,59.11
			c66.9-13.83,135.69,17.66,169.22,77.34c1.89,3.37,2.21,6.01,0.08,9.49C294.35,154.72,289.44,163.78,283.93,173.46z"/>
		<path class="st3" d="M75.25,266.19C37.3,208.56,68.34,126.34,138.23,110c0,5.89,0,11.66,0,17.43c-0.01,24.15,0.02,48.29-0.1,72.44
			c-0.01,1.97-0.5,4.54-1.78,5.81C116.11,225.91,95.72,245.97,75.25,266.19z"/>
		<path class="st3" d="M172.88,162.11c0,13.66,0.06,27.32-0.05,40.98c-0.02,3.01,0.63,5.15,3.09,7.28c5.7,4.94,7.2,12.76,4.38,19.58
			c-2.9,7.01-9,10.83-16.76,11.18c-2.14,0.1-4.78,1.22-6.23,2.77c-12.36,13.27-24.46,26.8-36.73,40.16
			c-4.33,4.72-9.55,5.02-13.54,1.11c-3.8-3.72-3.64-8.6,0.59-13.28c11.93-13.22,23.87-26.43,35.92-39.55
			c2.03-2.21,3.14-4.22,2.68-7.42c-0.87-6.03,1.63-10.9,5.88-15.2c1.51-1.53,2.78-4.08,2.79-6.18c0.18-27.82,0.05-55.64,0.24-83.46
			c0.02-2.75,0.87-6.63,2.76-7.94c2.45-1.71,6.59-2.41,9.52-1.67c3.99,1.01,5.45,4.96,5.45,9.16c-0.01,12.33,0.01,24.66,0.02,36.98
			c0,1.83,0,3.67,0,5.5C172.89,162.11,172.88,162.11,172.88,162.11z"/>
		<path class="st2" d="M321.68,275.41c0-14.66-0.03-29.32,0.01-43.99c0.02-9.93,6.38-16.72,15.35-16.51
			c8.73,0.2,14.78,6.99,14.78,16.65c0.01,29.66,0.01,59.31-0.01,88.97c-0.01,9.32-6.1,15.75-14.91,15.83
			c-8.94,0.08-15.15-6.13-15.19-15.46C321.63,305.73,321.68,290.57,321.68,275.41z"/>
		<path class="st2" d="M336.81,377.05c-8.09,0.03-14.08-5.96-14.11-14.13c-0.04-7.88,5.88-13.97,13.64-14.04
			c8.1-0.08,14.36,5.91,14.48,13.84C350.94,370.65,344.72,377.02,336.81,377.05z"/>
	</g>
</g>
</svg>
