<svg        
  fill="gray-400"
  stroke-linecap="round"
  stroke-linejoin="round"
  stroke-width="2"
  viewBox="0 0 500 500"
  stroke="currentColor"
>
	<path d="M242.59,442.58c-44.87,0-89.74,0.03-134.61-0.01c-26-0.02-46.12-20.13-46.13-46.07c-0.02-44,0.02-87.99,0.03-131.99
		c0.01-45.5,0.01-90.99,0.02-136.49c0.01-26.61,19.64-46.45,46.35-46.56c31.62-0.13,63.24-0.03,94.86-0.05
		c26.75-0.01,53.49,0.03,80.24-0.12c3.44-0.02,4.46,0.91,4.41,4.39c-0.19,15.75-0.11,31.5-0.12,47.24c0,5.13,0,5.14-5,5.14
		c-52.74,0.01-105.49,0-158.23,0.02c-5.89,0-5.92,0.04-5.92,5.84c-0.01,66.61-0.01,133.23-0.02,199.84
		c0,12.62,0.05,25.25-0.12,37.87c-0.04,3.28,0.73,4.6,4.35,4.59c48.37-0.14,96.74-0.14,145.11-0.16
		c31.25-0.01,62.49-0.01,93.74-0.01c4.96,0,4.95,0.02,4.95-4.94c-0.01-52.37-0.05-104.73,0.02-157.1c0.01-8.51-0.64-7.18,7.24-7.24
		c14.87-0.11,29.75,0.13,44.62-0.06c3.83-0.05,4.85,1.11,4.84,4.86c-0.12,48.62-0.09,97.24-0.1,145.86c0,9.87,0.04,19.75-0.02,29.62
		c-0.17,25.49-20.02,45.41-45.5,45.46c-45,0.08-89.99,0.02-134.99,0.02C242.59,442.55,242.59,442.56,242.59,442.58z"/>
	<path d="M370.99,92.99c-2.16,0-3.46,0-4.76,0c-16.37,0.02-32.74,0.06-49.11,0.03c-7.51-0.01-13.4-3.02-16.57-10.04
		c-1.09-2.43-1.65-5.27-1.74-7.94c-0.23-6.74-0.05-13.49-0.03-20.24c0.04-11.42,6.99-18.41,18.51-18.44
		c21.12-0.06,42.24-0.02,63.35-0.03c22.74-0.01,45.49,0,68.23-0.05c12.26-0.03,19.4,6.97,19.41,19.18c0,43.61,0,87.23,0,130.84
		c0,12.44-6.78,19.32-19.13,19.38c-6.37,0.03-12.75,0-19.12-0.01c-11.33-0.01-18.25-6.7-18.34-18.13
		c-0.12-15.49-0.01-30.99,0.01-46.49c0-2.2,0-4.41,0-7.75c-1.73,1.49-2.66,2.18-3.47,2.99c-43.8,43.8-87.58,87.62-131.37,131.43
		c-6.27,6.27-12.49,12.59-18.86,18.75c-7.7,7.44-17.66,7.27-25.32-0.3c-4.8-4.74-9.57-9.52-14.3-14.32
		c-7.71-7.83-7.8-17.85-0.08-25.58c34.34-34.4,68.73-68.76,103.1-103.14c15.73-15.73,31.46-31.45,47.18-47.19
		C369.23,95.28,369.77,94.49,370.99,92.99z"/>
</svg>