<?xml version="1.0" encoding="utf-8"?>
<!-- Generator: Adobe Illustrator 25.4.0, SVG Export Plug-In . SVG Version: 6.00 Build 0)  -->
<svg version="1.1" id="Ebene_1" xmlns="http://www.w3.org/2000/svg" xmlns:xlink="http://www.w3.org/1999/xlink" x="0px" y="0px"
	 viewBox="0 0 192 134" style="enable-background:new 0 0 192 134;" xml:space="preserve">
<style type="text/css">
	.st0{fill:#F8F8F8;stroke:#17813D;stroke-width:4;stroke-miterlimit:10;}
	.st1{fill:#17813D;stroke:#17813D;}
	.st2{fill:#17813D;stroke:#17813D;stroke-width:2;}
	.st3{fill:#17813D;stroke:#17813D;stroke-miterlimit:10;}
</style>
<path class="st0" d="M48.6,27v78.9h94.5V66.6l-47.3-0.1V27H48.6z"/>
<path class="st1" d="M150.2,75.9l3.3-9.1l3.3,9.1H150.2z"/>
<path class="st1" d="M156.9,96.9l-3.3,9.1l-3.3-9.1H156.9z"/>
<path class="st2" d="M153.6,74.4v25"/>
<path class="st3" d="M162,93.1c1.9,0,2.9-1,3.2-1.7h0.1v1.5h1.7v-7.2c0-3.5-2.6-3.9-4-3.9c-1.6,0-3.5,0.6-4.4,2.6l1.6,0.6
	c0.4-0.8,1.2-1.6,2.8-1.6c1.5,0,2.3,0.8,2.3,2.2v0.1c0,0.8-0.8,0.7-2.8,1c-2,0.3-4.2,0.7-4.2,3.2C158.3,91.8,159.9,93.1,162,93.1z
	 M162.3,91.5c-1.3,0-2.3-0.6-2.3-1.8c0-1.3,1.2-1.7,2.5-1.8c0.7-0.1,2.6-0.3,2.9-0.6v1.5C165.3,90.2,164.3,91.5,162.3,91.5z"/>
</svg>
