<?xml version="1.0" encoding="utf-8"?>
<!-- Generator: Adobe Illustrator 25.4.0, SVG Export Plug-In . SVG Version: 6.00 Build 0)  -->
<svg version="1.1" id="Ebene_1" xmlns="http://www.w3.org/2000/svg" xmlns:xlink="http://www.w3.org/1999/xlink" x="0px" y="0px"
	 viewBox="0 0 192 134" style="enable-background:new 0 0 192 134;" xml:space="preserve">
<style type="text/css">
	.st0{fill:#F8F8F8;stroke:#17813D;stroke-width:4;stroke-miterlimit:10;}
	.st1{fill:#17813D;stroke:#17813D;}
	.st2{fill:#17813D;stroke:#17813D;stroke-width:2;}
	.st3{fill:#17813D;stroke:#17813D;stroke-miterlimit:10;}
</style>
<path class="st0" d="M48.6,13v78.9h94.5V52.6l-47.3-0.1V13H48.6z"/>
<path class="st1" d="M56.6,105.8l-9.1-3.3l9.1-3.3V105.8z"/>
<path class="st1" d="M135.6,99.1l9.1,3.3l-9.1,3.3V99.1z"/>
<path class="st2" d="M55.1,102.4h83"/>
<path class="st3" d="M92.1,120.6h1.6v-1.7h0.2c0.4,0.6,1.1,1.9,3.2,1.9c2.7,0,4.6-2.2,4.6-5.7c0-3.4-1.9-5.6-4.7-5.6
	c-2.1,0-2.8,1.3-3.2,1.9h-0.1V106h-1.7V120.6z M93.8,115.1c0-2.4,1.1-4.1,3.1-4.1c2.1,0,3.2,1.8,3.2,4.1c0,2.3-1.1,4.2-3.2,4.2
	C94.9,119.3,93.8,117.6,93.8,115.1z"/>
</svg>
