<?xml version="1.0" encoding="utf-8"?>
<!-- Generator: Adobe Illustrator 25.4.0, SVG Export Plug-In . SVG Version: 6.00 Build 0)  -->
<svg version="1.1" id="Ebene_1" xmlns="http://www.w3.org/2000/svg" xmlns:xlink="http://www.w3.org/1999/xlink" x="0px" y="0px"
	 viewBox="0 0 192 134" style="enable-background:new 0 0 192 134;" xml:space="preserve">
<style type="text/css">
	.st0{fill:#F8F8F8;stroke:#17813D;stroke-width:4;stroke-miterlimit:10;}
	.st1{fill:#17813D;stroke:#17813D;}
	.st2{fill:#17813D;stroke:#17813D;stroke-width:2;}
	.st3{fill:#17813D;stroke:#17813D;stroke-miterlimit:10;}
</style>
<path class="st0" d="M48.6,42.6v78.9h94.5V82.2l-47.3-0.1V42.6H48.6z"/>
<path class="st1" d="M57.6,35.8l-9.1-3.3l9.1-3.3V35.8z"/>
<path class="st1" d="M87.6,29.1l9.1,3.3l-9.1,3.3V29.1z"/>
<path class="st2" d="M56.1,32.5h34"/>
<path class="st3" d="M73,25.4c2.1,0,2.8-1.3,3.2-1.9h0.2v1.7H78V10.7h-1.7V16h-0.1c-0.4-0.6-1-1.9-3.2-1.9c-2.8,0-4.7,2.2-4.7,5.6
	C68.4,23.3,70.3,25.4,73,25.4z M73.2,23.9c-2.1,0-3.2-1.8-3.2-4.2c0-2.3,1.1-4.1,3.2-4.1c2,0,3.1,1.6,3.1,4.1
	C76.4,22.2,75.2,23.9,73.2,23.9z"/>
</svg>
