<?xml version="1.0" encoding="utf-8"?>
<!-- Generator: Adobe Illustrator 26.4.1, SVG Export Plug-In . SVG Version: 6.00 Build 0)  -->
<svg version="1.1" id="Layer_1" xmlns="http://www.w3.org/2000/svg" xmlns:xlink="http://www.w3.org/1999/xlink" x="0px" y="0px"
	 viewBox="0 0 600 200" style="enable-background:new 0 0 600 200;" xml:space="preserve">
<style type="text/css">
	.st0{fill:#FFFFFF;stroke:#D9D9D8;}
	.st1{fill-rule:evenodd;clip-rule:evenodd;fill:#253D80;}
	.st2{fill-rule:evenodd;clip-rule:evenodd;fill:#189BD7;}
	.st3{fill:#253D80;}
	.st4{fill:#189BD7;}
	.st5{fill:#242E65;}
	.st6{fill-rule:evenodd;clip-rule:evenodd;fill:#293786;}
	.st7{fill-rule:evenodd;clip-rule:evenodd;fill:#FEBE10;}
	.st8{fill-rule:evenodd;clip-rule:evenodd;fill:#2A3580;}
	.st9{fill-rule:evenodd;clip-rule:evenodd;fill:#EC1D24;}
	.st10{fill-rule:evenodd;clip-rule:evenodd;fill:#F9A11B;}
	.st11{fill-rule:evenodd;clip-rule:evenodd;fill:#F16022;}
</style>
<path class="st0" d="M31.8,53.5H147c6,0,10.9,4.9,10.9,10.9v71.5c0,6-4.9,10.9-10.9,10.9H31.8c-6,0-10.9-4.9-10.9-10.9V64.4
	C20.9,58.4,25.8,53.5,31.8,53.5z"/>
<path class="st1" d="M59.2,113H53c-0.4,0-0.8,0.3-0.8,0.7l-2.5,15.8c0,0.3,0.2,0.6,0.5,0.6h2.9c0.4,0,0.8-0.3,0.8-0.7l0.7-4.3
	c0.1-0.4,0.4-0.7,0.8-0.7h2c4.1,0,6.4-2,7-5.9c0.3-1.7,0-3-0.8-4C62.8,113.6,61.3,113,59.2,113z M59.9,118.8c-0.3,2.2-2,2.2-3.7,2.2
	h-0.9l0.7-4.1c0-0.2,0.3-0.4,0.5-0.4h0.4c1.1,0,2.2,0,2.7,0.6C60,117.5,60.1,118,59.9,118.8z M77.7,118.7h-3c-0.3,0-0.5,0.2-0.5,0.4
	l-0.1,0.8l-0.2-0.3c-0.6-0.9-2.1-1.2-3.5-1.2c-3.3,0-6.1,2.5-6.6,5.9c-0.3,1.7,0.1,3.4,1.1,4.5c0.9,1.1,2.2,1.5,3.7,1.5
	c2.6,0,4.1-1.7,4.1-1.7l-0.1,0.8c0,0.3,0.2,0.6,0.5,0.6h2.7c0.4,0,0.8-0.3,0.8-0.7l1.6-10.1C78.2,119,78,118.7,77.7,118.7z
	 M73.6,124.5c-0.3,1.7-1.6,2.8-3.3,2.8c-0.9,0-1.5-0.3-2-0.8c-0.4-0.5-0.6-1.3-0.5-2.1c0.3-1.7,1.6-2.8,3.3-2.8c0.8,0,1.5,0.3,2,0.8
	C73.5,122.9,73.7,123.7,73.6,124.5z M90.5,118.7h3c0.4,0,0.7,0.5,0.4,0.8L84,133.8c-0.2,0.2-0.4,0.4-0.7,0.4h-3
	c-0.4,0-0.7-0.5-0.4-0.8L83,129l-3.3-9.6c-0.1-0.3,0.1-0.7,0.5-0.7h2.9c0.4,0,0.7,0.2,0.8,0.6l1.7,5.8l4.1-6
	C89.9,118.9,90.2,118.7,90.5,118.7z"/>
<path class="st2" d="M122.7,129.6l2.5-16.1c0-0.3,0.3-0.4,0.5-0.4h2.9c0.3,0,0.6,0.3,0.5,0.6l-2.5,15.8c-0.1,0.4-0.4,0.7-0.8,0.7
	h-2.5C122.9,130.2,122.7,129.9,122.7,129.6z M103.3,113h-6.2c-0.4,0-0.8,0.3-0.8,0.7l-2.5,15.8c0,0.3,0.2,0.6,0.5,0.6h3.2
	c0.3,0,0.5-0.2,0.6-0.5l0.7-4.5c0.1-0.4,0.4-0.7,0.8-0.7h2c4.1,0,6.4-2,7-5.9c0.3-1.7,0-3-0.8-4C106.9,113.6,105.4,113,103.3,113z
	 M104,118.8c-0.3,2.2-2,2.2-3.7,2.2h-0.9l0.7-4.1c0-0.2,0.3-0.4,0.5-0.4h0.4c1.1,0,2.2,0,2.7,0.6C104,117.5,104.1,118,104,118.8z
	 M121.8,118.7h-3c-0.3,0-0.5,0.2-0.5,0.4l-0.1,0.8l-0.2-0.3c-0.6-0.9-2.1-1.2-3.5-1.2c-3.3,0-6.1,2.5-6.6,5.9
	c-0.3,1.7,0.1,3.4,1.1,4.5c0.9,1.1,2.2,1.5,3.7,1.5c2.6,0,4.1-1.7,4.1-1.7l-0.1,0.8c0,0.3,0.2,0.6,0.5,0.6h2.7
	c0.4,0,0.8-0.3,0.8-0.7l1.6-10.1C122.3,119,122.1,118.7,121.8,118.7z M117.6,124.5c-0.3,1.7-1.6,2.8-3.3,2.8c-0.9,0-1.5-0.3-2-0.8
	c-0.4-0.5-0.6-1.3-0.5-2.1c0.3-1.7,1.6-2.8,3.3-2.8c0.8,0,1.5,0.3,2,0.8C117.6,122.9,117.8,123.7,117.6,124.5z"/>
<path class="st3" d="M82.1,107.4l0.8-4.8l-1.7,0h-8.1l5.6-35.6c0-0.1,0.1-0.2,0.2-0.3c0.1-0.1,0.2-0.1,0.3-0.1h13.6
	c4.5,0,7.6,0.9,9.3,2.8c0.8,0.9,1.3,1.8,1.5,2.8c0.2,1.1,0.3,2.3,0,3.8l0,0.1v1l0.8,0.4c0.6,0.3,1.2,0.7,1.5,1.2
	c0.7,0.7,1.1,1.7,1.3,2.8c0.2,1.2,0.1,2.5-0.2,4.1c-0.3,1.8-0.9,3.3-1.7,4.6c-0.7,1.2-1.6,2.1-2.7,2.9c-1,0.7-2.2,1.3-3.6,1.6
	c-1.3,0.3-2.8,0.5-4.5,0.5h-1.1c-0.8,0-1.5,0.3-2.1,0.8c-0.6,0.5-1,1.2-1.1,1.9l-0.1,0.4l-1.3,8.5l-0.1,0.3c0,0.1,0,0.1-0.1,0.2
	c0,0-0.1,0.1-0.1,0.1H82.1z"/>
<path class="st4" d="M105,76.2c0,0.3-0.1,0.5-0.1,0.8c-1.8,9.2-7.9,12.4-15.8,12.4h-4c-1,0-1.8,0.7-1.9,1.6l-2,13l-0.6,3.7
	c-0.1,0.6,0.4,1.2,1,1.2h7.1c0.8,0,1.6-0.6,1.7-1.4l0.1-0.4l1.3-8.5l0.1-0.5c0.1-0.8,0.8-1.4,1.7-1.4h1.1c6.9,0,12.2-2.8,13.8-10.9
	c0.7-3.4,0.3-6.2-1.4-8.2C106.4,77.1,105.8,76.6,105,76.2z"/>
<path class="st5" d="M103.1,75.4c-0.3-0.1-0.6-0.2-0.8-0.2c-0.3-0.1-0.6-0.1-0.9-0.2c-1.1-0.2-2.3-0.3-3.5-0.3H87.2
	c-0.3,0-0.5,0.1-0.7,0.2c-0.5,0.2-0.9,0.7-0.9,1.3l-2.3,14.4L83.2,91c0.1-0.9,1-1.6,1.9-1.6h4c7.8,0,14-3.2,15.8-12.4
	c0.1-0.3,0.1-0.5,0.1-0.8c-0.5-0.2-0.9-0.4-1.5-0.6C103.4,75.5,103.3,75.5,103.1,75.4z"/>
<path class="st3" d="M85.5,76.2c0.1-0.6,0.5-1,0.9-1.3c0.2-0.1,0.5-0.2,0.7-0.2h10.7c1.3,0,2.4,0.1,3.5,0.3c0.3,0,0.6,0.1,0.9,0.2
	c0.3,0.1,0.6,0.1,0.8,0.2c0.1,0,0.3,0.1,0.4,0.1c0.5,0.2,1,0.4,1.5,0.6c0.5-3.4,0-5.7-1.8-7.8c-2-2.3-5.7-3.3-10.4-3.3H79.1
	c-1,0-1.8,0.7-1.9,1.6l-5.7,36c-0.1,0.7,0.4,1.4,1.2,1.4h8.4l2.1-13.4L85.5,76.2z"/>
<path class="st0" d="M174.8,52.8h114.3c6,0,10.8,4.9,10.8,11v72c0,6.1-4.9,11-10.8,11H174.8c-6,0-10.8-4.9-10.8-11v-72
	C163.9,57.8,168.8,52.8,174.8,52.8z"/>
<path class="st6" d="M241.4,97.8h4.5c1.4-0.1,2.3-0.2,2.6-0.3c0.4-0.2,0.7-0.7,0.9-1.4c0.1-0.5,0.1-1.2,0.1-2.1c0-1.2-0.1-2-0.3-2.6
	c-0.3-0.8-0.9-1.3-1.9-1.4c-0.2,0-0.7,0-1.4,0h-4.6V97.8z M234.2,111.2V83.8h13.5c1.9,0,3.3,0.2,4.2,0.5c2.2,0.7,3.7,2.2,4.5,4.3
	c0.4,1.1,0.6,2.9,0.6,5.2c0,2.8-0.2,4.8-0.7,6c-0.9,2.4-2.6,3.8-5.3,4.1c-0.3,0.1-1.7,0.1-4,0.1l-1.2,0h-4.3v7.1H234.2z M197.8,92.6
	h6.7c0-0.6,0.1-1.1,0.1-1.4c0-3.7-1.5-5.9-4.4-6.7c-1.2-0.3-3.2-0.5-6-0.5c-1.8,0-3.4,0.1-4.9,0.2c-1.8,0.1-3.2,0.6-4.4,1.5
	c-0.8,0.5-1.3,1.3-1.7,2.4c-0.3,1-0.5,2.4-0.5,4.1c0,2.3,0.3,3.9,1,5c0.7,1.3,2.2,2.2,4.4,2.6c0.8,0.1,2.3,0.3,4.5,0.5
	c2.7,0.2,4.2,0.3,4.5,0.4c0.9,0.3,1.3,1,1.3,2.2c0,0.5-0.1,1-0.2,1.3c-0.2,0.6-0.6,1-1.2,1.2c-0.3,0.1-1.2,0.2-2.4,0.2h-2.5
	c-0.7,0-1.2-0.1-1.7-0.4c-0.7-0.3-1-1.1-1-2.3l0-0.2l0-0.4h-6.7c0,2.2,0.2,3.8,0.5,4.8c0.6,1.7,1.8,2.9,3.6,3.4
	c1.5,0.5,4.1,0.7,7.9,0.7c2.3,0,3.9-0.1,5-0.3c2.6-0.5,4.3-1.7,5.1-3.6c0.4-1,0.6-2.6,0.6-4.8c0-1,0-1.8-0.1-2.6
	c-0.2-1.3-0.6-2.3-1.5-3.1c-1-1-2.7-1.6-5-1.9c-0.7-0.1-2.5-0.2-5.5-0.4l-1.4-0.1c-0.6,0-1.1-0.2-1.4-0.4c-0.5-0.3-0.8-1-0.8-2
	c0-1.1,0.3-1.8,0.9-2.1c0.6-0.3,1.7-0.5,3.5-0.5c1.8,0,2.9,0.3,3.3,0.9C197.7,90.7,197.8,91.4,197.8,92.6z M182.7,116.6l1-0.1
	c0.1,0.3,0.2,0.6,0.4,0.8c0.2,0.2,0.4,0.2,0.8,0.2c0.3,0,0.6-0.1,0.8-0.2c0.2-0.1,0.3-0.3,0.3-0.5c0-0.1,0-0.2-0.1-0.3
	c-0.1-0.1-0.2-0.2-0.4-0.2c-0.1,0-0.4-0.1-0.8-0.2c-0.6-0.1-0.9-0.3-1.2-0.5c-0.3-0.3-0.5-0.6-0.5-1c0-0.3,0.1-0.5,0.2-0.7
	c0.1-0.2,0.4-0.4,0.6-0.5c0.3-0.1,0.6-0.2,1-0.2c0.6,0,1.1,0.1,1.5,0.4c0.3,0.3,0.5,0.7,0.5,1.2l-1,0c0-0.3-0.1-0.5-0.3-0.6
	c-0.1-0.1-0.4-0.2-0.7-0.2c-0.3,0-0.5,0.1-0.7,0.2c-0.1,0.1-0.2,0.2-0.2,0.3c0,0.1,0.1,0.2,0.2,0.3c0.1,0.1,0.4,0.2,1,0.3
	c0.5,0.1,0.9,0.2,1.1,0.4c0.2,0.1,0.4,0.3,0.6,0.5c0.1,0.2,0.2,0.5,0.2,0.8c0,0.3-0.1,0.6-0.2,0.8c-0.2,0.3-0.4,0.5-0.7,0.6
	c-0.3,0.1-0.7,0.2-1.1,0.2c-0.7,0-1.2-0.2-1.5-0.5C183,117.7,182.7,117.2,182.7,116.6z M187.9,114.5h1v3.8h-1V114.5z M187.9,113.1h1
	v0.9h-1V113.1z M192.6,118.3h1V116c0-0.3,0-0.5-0.1-0.7c0-0.2-0.1-0.3-0.2-0.4c-0.1-0.1-0.2-0.2-0.4-0.3c-0.2-0.1-0.4-0.1-0.6-0.1
	c-0.5,0-0.9,0.2-1.2,0.6v-0.6h-0.9v3.8h1v-1.7c0-0.4,0-0.7,0.1-0.9c0-0.2,0.1-0.3,0.3-0.4c0.1-0.1,0.3-0.1,0.5-0.1
	c0.1,0,0.2,0,0.3,0.1c0.1,0.1,0.2,0.2,0.2,0.3c0,0.1,0.1,0.4,0.1,0.8V118.3z M195.6,116.4c0,0.4,0.1,0.7,0.2,0.9
	c0.2,0.2,0.3,0.3,0.6,0.3c0.2,0,0.4-0.1,0.6-0.3c0.2-0.2,0.2-0.5,0.2-0.9c0-0.4-0.1-0.7-0.2-0.9c-0.2-0.2-0.4-0.3-0.6-0.3
	c-0.2,0-0.4,0.1-0.6,0.3C195.6,115.7,195.6,116,195.6,116.4z M194.7,118.6l1.1,0.1c0,0.1,0.1,0.2,0.1,0.3c0.1,0.1,0.2,0.1,0.4,0.1
	c0.3,0,0.5,0,0.6-0.1c0.1-0.1,0.2-0.1,0.2-0.3c0-0.1,0-0.2,0-0.5l0-0.6c-0.3,0.4-0.7,0.6-1.1,0.6c-0.5,0-0.9-0.2-1.2-0.6
	c-0.2-0.3-0.3-0.8-0.3-1.3c0-0.6,0.2-1.1,0.5-1.5c0.3-0.3,0.7-0.5,1.1-0.5c0.5,0,0.8,0.2,1.1,0.6v-0.5h0.9v3.4c0,0.4,0,0.8-0.1,1
	c-0.1,0.2-0.2,0.4-0.3,0.5c-0.1,0.1-0.3,0.2-0.5,0.3c-0.2,0.1-0.5,0.1-0.8,0.1c-0.6,0-1.1-0.1-1.3-0.3c-0.3-0.2-0.4-0.5-0.4-0.8
	C194.7,118.7,194.7,118.6,194.7,118.6z M200.4,113.1h-1v5.2h1V113.1z M203.8,116.1c0-0.3-0.1-0.5-0.2-0.7c-0.1-0.2-0.3-0.2-0.5-0.2
	c-0.2,0-0.4,0.1-0.5,0.2c-0.1,0.2-0.2,0.4-0.2,0.7H203.8z M203.8,117.1l1,0.2c-0.1,0.4-0.3,0.6-0.6,0.8c-0.3,0.2-0.6,0.3-1,0.3
	c-0.7,0-1.1-0.2-1.4-0.6c-0.2-0.3-0.4-0.8-0.4-1.3c0-0.6,0.2-1.1,0.5-1.5c0.3-0.4,0.7-0.5,1.2-0.5c0.6,0,1,0.2,1.3,0.6
	c0.3,0.4,0.5,0.9,0.5,1.7h-2.5c0,0.3,0.1,0.5,0.2,0.7c0.2,0.2,0.3,0.2,0.6,0.2c0.2,0,0.3,0,0.4-0.1
	C203.6,117.5,203.7,117.3,203.8,117.1z M208,113.1v5.2h3.9v-0.9h-2.9V116h2.6v-0.9h-2.6V114h2.8v-0.9H208z M215.5,118.3v-0.6
	c-0.1,0.2-0.3,0.4-0.5,0.5c-0.2,0.1-0.5,0.2-0.7,0.2c-0.3,0-0.5-0.1-0.7-0.2c-0.2-0.1-0.3-0.3-0.4-0.5c-0.1-0.2-0.1-0.5-0.1-0.8
	v-2.4h1v1.7c0,0.5,0,0.9,0.1,1c0,0.1,0.1,0.2,0.2,0.3c0.1,0.1,0.2,0.1,0.4,0.1c0.2,0,0.3,0,0.5-0.1c0.1-0.1,0.2-0.2,0.3-0.3
	c0-0.1,0.1-0.5,0.1-1v-1.6h1v3.8H215.5z M217.6,118.3h1v-1.2c0-0.6,0-1.1,0.1-1.3s0.1-0.3,0.2-0.4c0.1-0.1,0.2-0.1,0.4-0.1
	c0.1,0,0.3,0.1,0.5,0.2l0.3-0.9c-0.2-0.1-0.4-0.2-0.7-0.2c-0.2,0-0.3,0-0.4,0.1c-0.1,0.1-0.3,0.3-0.4,0.5v-0.5h-0.9V118.3z
	 M221.4,116.4c0,0.4,0.1,0.7,0.3,0.9c0.2,0.2,0.4,0.3,0.7,0.3c0.3,0,0.5-0.1,0.6-0.3c0.2-0.2,0.3-0.5,0.3-0.9c0-0.4-0.1-0.7-0.3-0.9
	c-0.2-0.2-0.4-0.3-0.6-0.3c-0.3,0-0.5,0.1-0.7,0.3C221.5,115.8,221.4,116.1,221.4,116.4z M220.4,116.4c0-0.3,0.1-0.7,0.2-1
	c0.2-0.3,0.4-0.6,0.7-0.7c0.3-0.2,0.6-0.2,1-0.2c0.6,0,1,0.2,1.4,0.6c0.4,0.4,0.5,0.8,0.5,1.4c0,0.6-0.2,1.1-0.5,1.4
	c-0.4,0.4-0.8,0.6-1.4,0.6c-0.3,0-0.7-0.1-1-0.2c-0.3-0.2-0.5-0.4-0.7-0.7C220.5,117.2,220.4,116.8,220.4,116.4z M228.5,115.5V114
	h0.5c0.4,0,0.6,0,0.7,0c0.2,0,0.3,0.1,0.4,0.2c0.1,0.1,0.2,0.3,0.2,0.5c0,0.2,0,0.3-0.1,0.4c-0.1,0.1-0.2,0.2-0.3,0.3
	c-0.1,0.1-0.4,0.1-0.8,0.1H228.5z M227.5,113.1v5.2h1v-2h0.7c0.5,0,0.8,0,1.1-0.1c0.2,0,0.4-0.1,0.5-0.2c0.2-0.1,0.3-0.3,0.4-0.5
	c0.1-0.2,0.2-0.5,0.2-0.8c0-0.4-0.1-0.8-0.3-1c-0.2-0.3-0.4-0.4-0.7-0.5c-0.2-0.1-0.6-0.1-1.2-0.1H227.5z M234.5,116.5
	c-0.1,0-0.3,0.1-0.6,0.2c-0.3,0.1-0.5,0.1-0.5,0.2c-0.1,0.1-0.2,0.2-0.2,0.4c0,0.1,0.1,0.3,0.2,0.4c0.1,0.1,0.2,0.2,0.4,0.2
	c0.2,0,0.3-0.1,0.5-0.2c0.1-0.1,0.2-0.2,0.2-0.3c0-0.1,0-0.2,0-0.5V116.5z M233.2,115.7l-0.9-0.2c0.1-0.4,0.3-0.6,0.5-0.8
	c0.2-0.2,0.6-0.3,1.1-0.3c0.4,0,0.8,0.1,1,0.2c0.2,0.1,0.4,0.2,0.5,0.4c0.1,0.2,0.1,0.5,0.1,0.9l0,1.2c0,0.3,0,0.6,0,0.7
	c0,0.2,0.1,0.3,0.2,0.5h-1c0-0.1-0.1-0.2-0.1-0.3c0-0.1,0-0.1,0-0.1c-0.2,0.2-0.3,0.3-0.5,0.4c-0.2,0.1-0.4,0.1-0.6,0.1
	c-0.4,0-0.7-0.1-0.9-0.3c-0.2-0.2-0.3-0.5-0.3-0.8c0-0.2,0.1-0.4,0.2-0.6c0.1-0.2,0.2-0.3,0.4-0.4c0.2-0.1,0.4-0.2,0.8-0.2
	c0.5-0.1,0.8-0.2,1-0.2v-0.1c0-0.2,0-0.3-0.1-0.4c-0.1-0.1-0.3-0.1-0.5-0.1c-0.2,0-0.3,0-0.4,0.1
	C233.3,115.4,233.3,115.5,233.2,115.7z M237.3,114.5h-1.1l1.4,3.8c-0.1,0.2-0.1,0.4-0.3,0.5c-0.1,0.1-0.3,0.2-0.5,0.2
	c-0.1,0-0.3,0-0.4,0l0.1,0.8c0.2,0,0.4,0.1,0.6,0.1c0.2,0,0.4,0,0.5-0.1c0.1,0,0.3-0.1,0.4-0.2c0.1-0.1,0.2-0.2,0.3-0.3
	c0.1-0.1,0.2-0.3,0.2-0.5l1.6-4.3h-1l-0.9,2.7L237.3,114.5z M240.8,114.5h0.9v0.5c0.3-0.4,0.7-0.6,1.2-0.6c0.2,0,0.4,0,0.6,0.1
	c0.2,0.1,0.3,0.3,0.4,0.5c0.2-0.2,0.3-0.4,0.5-0.5c0.2-0.1,0.4-0.1,0.6-0.1c0.3,0,0.5,0.1,0.7,0.2c0.2,0.1,0.3,0.3,0.4,0.5
	c0.1,0.2,0.1,0.4,0.1,0.8v2.4h-1v-2.2c0-0.4,0-0.6-0.1-0.7c-0.1-0.1-0.2-0.2-0.4-0.2c-0.1,0-0.3,0-0.4,0.1c-0.1,0.1-0.2,0.2-0.3,0.4
	c-0.1,0.2-0.1,0.4-0.1,0.8v1.8h-1v-2.1c0-0.4,0-0.6-0.1-0.7c0-0.1-0.1-0.2-0.2-0.2c-0.1-0.1-0.2-0.1-0.3-0.1c-0.2,0-0.3,0-0.4,0.1
	c-0.1,0.1-0.2,0.2-0.3,0.4c-0.1,0.2-0.1,0.4-0.1,0.8v1.8h-1V114.5z M249.5,115.5c0.1,0.2,0.2,0.4,0.2,0.7h-1.5
	c0-0.3,0.1-0.5,0.2-0.7c0.1-0.2,0.3-0.2,0.5-0.2C249.2,115.2,249.4,115.3,249.5,115.5z M250.6,117.3l-1-0.2
	c-0.1,0.2-0.1,0.3-0.2,0.4c-0.1,0.1-0.2,0.1-0.4,0.1c-0.2,0-0.4-0.1-0.6-0.2c-0.2-0.2-0.2-0.4-0.2-0.7h2.5c0-0.8-0.1-1.3-0.5-1.7
	c-0.3-0.4-0.8-0.6-1.3-0.6c-0.5,0-0.9,0.2-1.2,0.5c-0.3,0.4-0.5,0.9-0.5,1.5c0,0.5,0.1,1,0.4,1.3c0.3,0.4,0.8,0.6,1.4,0.6
	c0.4,0,0.8-0.1,1-0.3C250.3,117.9,250.5,117.7,250.6,117.3z M255.1,118.3h-1v-1.9c0-0.4,0-0.7-0.1-0.8c0-0.1-0.1-0.2-0.2-0.3
	c-0.1-0.1-0.2-0.1-0.3-0.1c-0.2,0-0.3,0-0.5,0.1c-0.1,0.1-0.2,0.2-0.3,0.4c0,0.2-0.1,0.4-0.1,0.9v1.7h-1v-3.8h0.9v0.6
	c0.3-0.4,0.7-0.6,1.2-0.6c0.2,0,0.4,0,0.6,0.1c0.2,0.1,0.3,0.2,0.4,0.3c0.1,0.1,0.2,0.3,0.2,0.4c0,0.2,0.1,0.4,0.1,0.7V118.3z
	 M258,115.3v-0.8h-0.7v-1.3l-1,0.6v0.8h-0.4v0.8h0.4v1.7c0,0.4,0,0.6,0,0.7c0,0.2,0.1,0.3,0.1,0.4c0.1,0.1,0.2,0.2,0.3,0.2
	c0.1,0.1,0.3,0.1,0.5,0.1c0.3,0,0.5-0.1,0.8-0.2l-0.1-0.8c-0.2,0.1-0.3,0.1-0.4,0.1c-0.1,0-0.1,0-0.2-0.1c0,0-0.1-0.1-0.1-0.1
	c0-0.1,0-0.2,0-0.5v-1.5H258z M258.6,117.3l1-0.2c0,0.2,0.1,0.3,0.3,0.4c0.1,0.1,0.3,0.2,0.5,0.2c0.3,0,0.4,0,0.6-0.1
	c0.1-0.1,0.1-0.2,0.1-0.3c0-0.1,0-0.1-0.1-0.2c0,0-0.2-0.1-0.3-0.1c-0.8-0.2-1.3-0.3-1.5-0.5c-0.3-0.2-0.4-0.5-0.4-0.9
	c0-0.3,0.1-0.6,0.4-0.8c0.3-0.2,0.7-0.3,1.2-0.3c0.5,0,0.9,0.1,1.1,0.3c0.2,0.2,0.4,0.4,0.5,0.7l-0.9,0.2c0-0.1-0.1-0.3-0.2-0.3
	c-0.1-0.1-0.3-0.1-0.5-0.1c-0.3,0-0.5,0-0.6,0.1c-0.1,0.1-0.1,0.1-0.1,0.2c0,0.1,0,0.1,0.1,0.2c0.1,0.1,0.4,0.2,0.9,0.3
	c0.5,0.1,0.9,0.3,1.1,0.4c0.2,0.2,0.3,0.4,0.3,0.7c0,0.3-0.1,0.6-0.4,0.9c-0.3,0.3-0.7,0.4-1.3,0.4c-0.5,0-0.9-0.1-1.2-0.3
	C258.9,117.9,258.7,117.6,258.6,117.3z M267.4,114.3l0.7,1.9h-1.4L267.4,114.3z M268.9,118.3h1.1l-2.1-5.2h-1.1l-2,5.2h1.1l0.4-1.2
	h2.1L268.9,118.3z M271.7,118.3h-1v-3.8h0.9v0.5c0.2-0.3,0.3-0.4,0.4-0.5c0.1-0.1,0.3-0.1,0.4-0.1c0.2,0,0.4,0.1,0.6,0.2l-0.3,0.9
	c-0.2-0.1-0.3-0.2-0.5-0.2c-0.1,0-0.3,0-0.4,0.1c-0.1,0.1-0.2,0.2-0.2,0.4c-0.1,0.2-0.1,0.6-0.1,1.3V118.3z M275.8,115.5
	c0.1,0.2,0.2,0.4,0.2,0.7h-1.5c0-0.3,0.1-0.5,0.2-0.7c0.1-0.2,0.3-0.2,0.5-0.2C275.5,115.2,275.6,115.3,275.8,115.5z M276.9,117.3
	l-1-0.2c-0.1,0.2-0.1,0.3-0.2,0.4c-0.1,0.1-0.2,0.1-0.4,0.1c-0.2,0-0.4-0.1-0.6-0.2c-0.2-0.2-0.2-0.4-0.2-0.7h2.5
	c0-0.8-0.1-1.3-0.5-1.7c-0.3-0.4-0.8-0.6-1.3-0.6c-0.5,0-0.9,0.2-1.2,0.5c-0.3,0.4-0.5,0.9-0.5,1.5c0,0.5,0.1,1,0.4,1.3
	c0.3,0.4,0.8,0.6,1.4,0.6c0.4,0,0.8-0.1,1-0.3C276.6,117.9,276.8,117.7,276.9,117.3z M280,116.5c-0.1,0-0.3,0.1-0.6,0.2
	c-0.3,0.1-0.5,0.1-0.5,0.2c-0.1,0.1-0.2,0.2-0.2,0.4c0,0.1,0.1,0.3,0.2,0.4c0.1,0.1,0.2,0.2,0.4,0.2c0.2,0,0.3-0.1,0.5-0.2
	c0.1-0.1,0.2-0.2,0.2-0.3c0-0.1,0-0.2,0-0.5V116.5z M278.7,115.7l-0.9-0.2c0.1-0.4,0.3-0.6,0.5-0.8c0.2-0.2,0.6-0.3,1.1-0.3
	c0.4,0,0.8,0.1,1,0.2c0.2,0.1,0.4,0.2,0.5,0.4c0.1,0.2,0.1,0.5,0.1,0.9l0,1.2c0,0.3,0,0.6,0,0.7c0,0.2,0.1,0.3,0.2,0.5h-1
	c0-0.1-0.1-0.2-0.1-0.3c0-0.1,0-0.1,0-0.1c-0.2,0.2-0.3,0.3-0.5,0.4c-0.2,0.1-0.4,0.1-0.6,0.1c-0.4,0-0.7-0.1-0.9-0.3
	c-0.2-0.2-0.3-0.5-0.3-0.8c0-0.2,0-0.4,0.2-0.6c0.1-0.2,0.2-0.3,0.4-0.4c0.2-0.1,0.4-0.2,0.8-0.2c0.5-0.1,0.8-0.2,1-0.2v-0.1
	c0-0.2,0-0.3-0.1-0.4c-0.1-0.1-0.3-0.1-0.5-0.1c-0.2,0-0.3,0-0.4,0.1C278.9,115.4,278.8,115.5,278.7,115.7z M267.6,89.3l3.4,11.9
	h-6.7L267.6,89.3z M262.8,106.5h9.7l1.4,4.7h7.3L273,83.8h-10.9l-8.1,27.4h7.5L262.8,106.5z"/>
<path class="st7" d="M224.2,87.7c3,0,5.7,1.4,7.4,3.6l1.6-3.4c-2.4-2.3-5.8-3.8-9.4-3.8c-5.7,0-10.6,3.5-12.6,8.5h-3l-1.8,3.9h3.9
	c0,0.4,0,0.7,0,1.1c0,0.4,0,0.9,0.1,1.3h-2l-1.8,3.9h4.8c2.1,4.8,6.9,8.2,12.5,8.2c2.8,0,5.5-0.9,7.6-2.3v-4.8
	c-1.8,2-4.3,3.3-7.2,3.3c-3.3,0-6.3-1.8-8-4.4h10l1.8-3.9h-13.3c-0.1-0.5-0.1-1-0.1-1.4c0-0.3,0-0.7,0-1h14.4l1.8-3.9h-15
	C217.6,89.6,220.7,87.7,224.2,87.7z"/>
<path class="st0" d="M316.9,52.1H432c6,0,10.9,4.9,10.9,10.9v71.5c0,6-4.9,10.9-10.9,10.9H316.9c-6,0-10.9-4.9-10.9-10.9V63.1
	C306,57,310.9,52.1,316.9,52.1z"/>
<path class="st8" d="M347.2,115.7h-8.4l-6.3-24.1c-0.3-1.1-0.9-2.1-1.9-2.5c-2.3-1.2-4.9-2.1-7.7-2.5v-0.9h13.6c1.9,0,3.3,1.4,3.5,3
	l3.3,17.4l8.4-20.4h8.2L347.2,115.7z M364.5,115.7h-7.9l6.5-30.1h7.9L364.5,115.7z M381.3,93.9c0.2-1.6,1.6-2.5,3.3-2.5
	c2.6-0.2,5.4,0.2,7.7,1.4l1.4-6.5c-2.3-0.9-4.9-1.4-7.2-1.4c-7.7,0-13.3,4.2-13.3,10c0,4.4,4,6.7,6.8,8.1c3,1.4,4.2,2.3,4,3.7
	c0,2.1-2.3,3-4.7,3c-2.8,0-5.6-0.7-8.2-1.9l-1.4,6.5c2.8,1.2,5.8,1.6,8.7,1.6c8.7,0.2,14-3.9,14-10.2
	C392.3,97.9,381.3,97.4,381.3,93.9z M420.1,115.7l-6.3-30.1H407c-1.4,0-2.8,0.9-3.3,2.3L392,115.7h8.2l1.6-4.4h10.1l0.9,4.4H420.1z
	 M408.2,93.7l2.3,11.3H404L408.2,93.7z"/>
<path class="st0" d="M459.6,52.8H572c5.9,0,10.7,4.8,10.7,10.7v69.7c0,5.9-4.8,10.7-10.7,10.7H459.6c-5.9,0-10.7-4.8-10.7-10.7V63.5
	C448.9,57.6,453.7,52.8,459.6,52.8z"/>
<path class="st9" d="M516.7,118.3c-4.6,4-10.6,6.4-17.2,6.4c-14.6,0-26.4-12-26.4-26.7c0-14.8,11.8-26.7,26.4-26.7
	c6.5,0,12.5,2.4,17.2,6.4c4.6-4,10.6-6.4,17.2-6.4c14.6,0,26.4,12,26.4,26.7c0,14.8-11.8,26.7-26.4,26.7
	C527.4,124.7,521.4,122.3,516.7,118.3z"/>
<path class="st10" d="M516.7,118.3c5.7-4.9,9.3-12.2,9.3-20.4c0-8.2-3.6-15.5-9.3-20.4c4.6-4,10.6-6.4,17.2-6.4
	c14.6,0,26.4,12,26.4,26.7c0,14.8-11.8,26.7-26.4,26.7C527.4,124.7,521.4,122.3,516.7,118.3z"/>
<path class="st11" d="M516.7,77.6c5.7,4.9,9.3,12.2,9.3,20.4s-3.6,15.5-9.3,20.4c-5.7-4.9-9.3-12.2-9.3-20.4S511.1,82.5,516.7,77.6z
	"/>
</svg>
