<?xml version="1.0" encoding="utf-8"?>
<!-- Generator: Adobe Illustrator 25.4.0, SVG Export Plug-In . SVG Version: 6.00 Build 0)  -->
<svg version="1.1" id="Ebene_1" xmlns="http://www.w3.org/2000/svg" xmlns:xlink="http://www.w3.org/1999/xlink" x="0px" y="0px"
	 viewBox="0 0 208 132" style="enable-background:new 0 0 208 132;" xml:space="preserve">
<style type="text/css">
	.st0{fill:#F8F8F8;stroke:#17813D;stroke-width:4;stroke-miterlimit:10;}
	.st1{fill:#004B54;stroke:#17813D;}
	.st2{fill:none;stroke:#17813D;stroke-width:2;}
	.st3{fill:#004B54;stroke:#17813D;stroke-miterlimit:10;}
</style>
<path class="st0" d="M162,31H28v70h134V31z"/>
<path class="st1" d="M169.2,39.6l3.3-9.1l3.3,9.1H169.2z"/>
<path class="st1" d="M175.9,92.6l-3.3,9.1l-3.3-9.1H175.9z"/>
<path class="st2" d="M172.6,38.1v57"/>
<path class="st3" d="M181,72.7c1.9,0,2.9-1,3.2-1.7h0.1v1.5h1.7v-7.2c0-3.5-2.6-3.9-4-3.9c-1.6,0-3.5,0.6-4.4,2.6l1.6,0.6
	c0.4-0.8,1.2-1.6,2.8-1.6c1.5,0,2.3,0.8,2.3,2.2v0.1c0,0.8-0.8,0.7-2.8,1c-2,0.3-4.2,0.7-4.2,3.2C177.3,71.5,178.9,72.7,181,72.7z
	 M181.3,71.2c-1.3,0-2.3-0.6-2.3-1.8c0-1.3,1.2-1.7,2.5-1.8c0.7-0.1,2.6-0.3,2.9-0.6v1.5C184.3,69.8,183.3,71.2,181.3,71.2z"/>
</svg>
