<?xml version="1.0" encoding="utf-8"?>
<!-- Generator: Adobe Illustrator 25.4.0, SVG Export Plug-In . SVG Version: 6.00 Build 0)  -->
<svg version="1.1" id="Ebene_1" xmlns="http://www.w3.org/2000/svg" xmlns:xlink="http://www.w3.org/1999/xlink" x="0px" y="0px"
	 viewBox="0 0 197 139" style="enable-background:new 0 0 197 139;" xml:space="preserve">
<style type="text/css">
	.st0{fill:#F8F8F8;stroke:#17813D;stroke-width:4;stroke-miterlimit:10;}
	.st1{fill:#004B54;stroke:#17813D;}
	.st2{fill:none;stroke:#17813D;stroke-width:2;}
	.st3{fill:#004B54;stroke:#17813D;stroke-miterlimit:10;}
</style>
<path class="st0" d="M166,43H30v72h136V43z"/>
<path class="st1" d="M38.6,35.8l-9.1-3.3l9.1-3.3V35.8z"/>
<path class="st1" d="M157.6,29.1l9.1,3.3l-9.1,3.3V29.1z"/>
<path class="st2" d="M37.1,32.5h123"/>
<path class="st3" d="M98,25.4c2.1,0,2.8-1.3,3.2-1.9h0.2v1.7h1.6V10.7h-1.7V16h-0.1c-0.4-0.6-1-1.9-3.2-1.9c-2.8,0-4.7,2.2-4.7,5.6
	C93.4,23.3,95.3,25.4,98,25.4z M98.2,23.9c-2.1,0-3.2-1.8-3.2-4.2c0-2.3,1.1-4.1,3.2-4.1c2,0,3.1,1.6,3.1,4.1
	C101.4,22.2,100.2,23.9,98.2,23.9z"/>
</svg>
