<?xml version="1.0" encoding="utf-8"?>
<!-- Generator: Adobe Illustrator 25.4.0, SVG Export Plug-In . SVG Version: 6.00 Build 0)  -->
<svg version="1.1" id="Ebene_1" xmlns="http://www.w3.org/2000/svg" xmlns:xlink="http://www.w3.org/1999/xlink" x="0px" y="0px"
	 viewBox="0 0 230 147" style="enable-background:new 0 0 230 147;" xml:space="preserve">
<style type="text/css">
	.st0{fill:#F8F8F8;stroke:#17813D;stroke-width:4;stroke-miterlimit:10;}
	.st1{fill:#17813D;stroke:#17813D;}
	.st2{fill:#17813D;stroke:#17813D;stroke-width:2;}
	.st3{fill:#17813D;stroke:#17813D;stroke-miterlimit:10;}
</style>
<path class="st0" d="M185.4,134.2h-141V85.6H89L88.9,40h52.8v45.6l43.9-0.1L185.4,134.2z"/>
<path class="st1" d="M97.6,33.8l-9.1-3.3l9.1-3.3V33.8z"/>
<path class="st1" d="M132.6,27.1l9.1,3.3l-9.1,3.3V27.1z"/>
<path class="st2" d="M96.1,30.5h39"/>
<path class="st3" d="M114.2,23.5c1.9,0,2.9-1,3.2-1.7h0.1v1.5h1.7V16c0-3.5-2.6-3.9-4-3.9c-1.6,0-3.5,0.6-4.4,2.6l1.6,0.6
	c0.4-0.8,1.2-1.6,2.8-1.6c1.5,0,2.3,0.8,2.3,2.2v0.1c0,0.8-0.8,0.7-2.8,1c-2,0.3-4.2,0.7-4.2,3.2C110.4,22.3,112.1,23.5,114.2,23.5z
	 M114.4,22c-1.3,0-2.3-0.6-2.3-1.8c0-1.3,1.2-1.7,2.5-1.8c0.7-0.1,2.6-0.3,2.9-0.6v1.5C117.5,20.6,116.4,22,114.4,22z"/>
</svg>
