<?xml version="1.0" encoding="utf-8"?>
<!-- Generator: Adobe Illustrator 25.4.0, SVG Export Plug-In . SVG Version: 6.00 Build 0)  -->
<svg version="1.1" id="Ebene_1" xmlns="http://www.w3.org/2000/svg" xmlns:xlink="http://www.w3.org/1999/xlink" x="0px" y="0px"
	 viewBox="0 0 230 147" style="enable-background:new 0 0 230 147;" xml:space="preserve">
<style type="text/css">
	.st0{fill:#F8F8F8;stroke:#17813D;stroke-width:4;stroke-miterlimit:10;}
	.st1{fill:#17813D;stroke:#17813D;}
	.st2{fill:#17813D;stroke:#17813D;stroke-width:2;}
	.st3{fill:#17813D;stroke:#17813D;stroke-miterlimit:10;}
</style>
<path class="st0" d="M185.4,121.2h-141V72.6H89L88.9,27h52.8v45.6l43.9-0.1L185.4,121.2z"/>
<path class="st1" d="M154.6,65.8l-9.1-3.3l9.1-3.3V65.8z"/>
<path class="st1" d="M176.6,59.1l9.1,3.3l-9.1,3.3V59.1z"/>
<path class="st2" d="M153.1,62.5h26"/>
<path class="st3" d="M166.4,55.4c2.4,0,4-1.5,4.3-3.4h-1.7c-0.3,1.2-1.3,1.9-2.6,1.9c-2,0-3.3-1.6-3.3-4.2c0-2.5,1.3-4.1,3.3-4.1
	c1.5,0,2.4,0.9,2.6,1.9h1.7c-0.3-2-2-3.4-4.3-3.4c-3,0-4.9,2.3-4.9,5.7C161.5,53.1,163.4,55.4,166.4,55.4z"/>
</svg>
