<?xml version="1.0" encoding="utf-8"?>
<!-- Generator: Adobe Illustrator 25.4.0, SVG Export Plug-In . SVG Version: 6.00 Build 0)  -->
<svg version="1.1" id="Ebene_1" xmlns="http://www.w3.org/2000/svg" xmlns:xlink="http://www.w3.org/1999/xlink" x="0px" y="0px"
	 viewBox="0 0 230 147" style="enable-background:new 0 0 230 147;" xml:space="preserve">
<style type="text/css">
	.st0{fill:#F8F8F8;stroke:#17813D;stroke-width:4;stroke-miterlimit:10;}
	.st1{fill:#17813D;stroke:#17813D;}
	.st2{fill:#17813D;stroke:#17813D;stroke-width:2;}
	.st3{fill:#17813D;stroke:#17813D;stroke-miterlimit:10;}
</style>
<path class="st0" d="M187.4,121.2h-141V72.6H91L90.9,27h52.8v45.6l43.9-0.1L187.4,121.2z"/>
<path class="st1" d="M32.9,82.6l3.3-9.1l3.3,9.1H32.9z"/>
<path class="st1" d="M39.6,110.6l-3.3,9.1l-3.3-9.1H39.6z"/>
<path class="st2" d="M36.2,81.1v32"/>
<path class="st3" d="M32.1,92.5h-2.4v-1.1c0-1.1,0.5-1.6,1.6-1.6c0.5,0,0.8,0.1,0.9,0.2l0.5-1.4c-0.3-0.1-0.8-0.3-1.6-0.3
	c-1.6,0-3.1,0.9-3.1,2.8v1.5h-1.8v1.4H28v9.5h1.7v-9.5h2.4V92.5z"/>
</svg>
