<?xml version="1.0" encoding="utf-8"?>
<!-- Generator: Adobe Illustrator 25.4.0, SVG Export Plug-In . SVG Version: 6.00 Build 0)  -->
<svg version="1.1" id="Ebene_1" xmlns="http://www.w3.org/2000/svg" xmlns:xlink="http://www.w3.org/1999/xlink" x="0px" y="0px"
	 viewBox="0 0 236 138" style="enable-background:new 0 0 236 138;" xml:space="preserve">
<style type="text/css">
	.st0{fill:#F8F8F8;stroke:#17813D;stroke-width:4;stroke-miterlimit:10;}
	.st1{fill:#17813D;stroke:#17813D;}
	.st2{fill:#17813D;stroke:#17813D;stroke-width:2;}
	.st3{fill:#17813D;stroke:#17813D;stroke-miterlimit:10;}
</style>
<path class="st0" d="M26,42v84h185V42h-48.9l-0.3,45.4l-87.3-0.3L74.2,42H26z"/>
<path class="st1" d="M170.6,35.8l-9.1-3.3l9.1-3.3V35.8z"/>
<path class="st1" d="M202.6,29.1l9.1,3.3l-9.1,3.3V29.1z"/>
<path class="st2" d="M169.1,32.5h36"/>
<path class="st3" d="M183.1,25.2h1.6v-1.7h0.2c0.4,0.6,1.1,1.9,3.2,1.9c2.7,0,4.6-2.2,4.6-5.7c0-3.4-1.9-5.6-4.7-5.6
	c-2.1,0-2.8,1.3-3.2,1.9h-0.1v-5.4h-1.7V25.2z M184.8,19.8c0-2.4,1.1-4.1,3.1-4.1c2.1,0,3.2,1.8,3.2,4.1c0,2.3-1.1,4.2-3.2,4.2
	C185.9,23.9,184.8,22.2,184.8,19.8z"/>
</svg>
