<?xml version="1.0" encoding="utf-8"?>
<!-- Generator: Adobe Illustrator 25.4.0, SVG Export Plug-In . SVG Version: 6.00 Build 0)  -->
<svg version="1.1" id="Ebene_1" xmlns="http://www.w3.org/2000/svg" xmlns:xlink="http://www.w3.org/1999/xlink" x="0px" y="0px"
	 viewBox="0 0 236 138" style="enable-background:new 0 0 236 138;" xml:space="preserve">
<style type="text/css">
	.st0{clip-path:url(#SVGID_00000107552555137369723070000015355605400061482630_);}
	.st1{fill:#F8F8F8;stroke:#17813D;stroke-width:4;stroke-miterlimit:10;}
	.st2{fill:#17813D;stroke:#17813D;}
	.st3{fill:#17813D;stroke:#17813D;stroke-width:2;}
	.st4{fill:#17813D;stroke:#17813D;stroke-miterlimit:10;}
</style>
<g>
	<defs>
		<rect id="SVGID_1_" width="236" height="138"/>
	</defs>
	<clipPath id="SVGID_00000171708294293665684790000018383182532638526886_">
		<use xlink:href="#SVGID_1_"  style="overflow:visible;"/>
	</clipPath>
	<g style="clip-path:url(#SVGID_00000171708294293665684790000018383182532638526886_);">
		<path class="st1" d="M26,27v84h185V27h-48.9l-0.3,45.4l-87.3-0.3L74.2,27H26z"/>
		<path class="st2" d="M218.2,37.6l3.3-9.1l3.3,9.1H218.2z"/>
		<path class="st2" d="M224.9,100.6l-3.3,9.1l-3.3-9.1H224.9z"/>
		<path class="st3" d="M221.6,36.1v67"/>
		<path class="st4" d="M231.3,75.6c2.4,0,4-1.5,4.3-3.4h-1.7c-0.3,1.2-1.3,1.9-2.6,1.9c-2,0-3.3-1.6-3.3-4.2c0-2.5,1.3-4.1,3.3-4.1
			c1.5,0,2.4,0.9,2.6,1.9h1.7c-0.3-2-2-3.4-4.3-3.4c-3,0-4.9,2.3-4.9,5.7C226.4,73.3,228.2,75.6,231.3,75.6z"/>
	</g>
</g>
</svg>
